M48
; DRILL file {KiCad 5.1.9-73d0e3b20d~88~ubuntu20.04.1} date Thu Feb 11 17:45:44 2021
; FORMAT={-:-/ absolute / inch / decimal}
; #@! TF.CreationDate,2021-02-11T17:45:44+05:30
; #@! TF.GenerationSoftware,Kicad,Pcbnew,5.1.9-73d0e3b20d~88~ubuntu20.04.1
; #@! TF.FileFunction,Plated,1,2,PTH
FMAT,2
INCH
T1C0.0157
T2C0.0315
T3C0.0354
T4C0.0394
T5C0.0598
%
G90
G05
T1
X2.3Y-3.9
T2
X2.45Y-3.9
X2.45Y-4.0
X2.45Y-4.1
X2.45Y-4.2
X2.55Y-3.5
X2.55Y-3.7
X2.75Y-3.5
X2.75Y-3.7
X2.75Y-3.9
X2.75Y-4.0
X2.75Y-4.1
X2.75Y-4.2
X3.0Y-3.5
X3.0Y-3.7
T3
X3.0Y-4.05
X3.0Y-4.15
T4
X2.1Y-4.0094
X2.1Y-4.6
T5
X2.15Y-3.55
X2.15Y-3.75
T0
M30
