%TF.GenerationSoftware,KiCad,Pcbnew,5.1.9-73d0e3b20d~88~ubuntu20.04.1*%
%TF.CreationDate,2021-02-11T17:45:22+05:30*%
%TF.ProjectId,Design your own Circuit Boards using Kicad Part 1 (FREE software),44657369-676e-4207-996f-7572206f776e,rev?*%
%TF.SameCoordinates,Original*%
%TF.FileFunction,Copper,L2,Bot*%
%TF.FilePolarity,Positive*%
%FSLAX46Y46*%
G04 Gerber Fmt 4.6, Leading zero omitted, Abs format (unit mm)*
G04 Created by KiCad (PCBNEW 5.1.9-73d0e3b20d~88~ubuntu20.04.1) date 2021-02-11 17:45:22*
%MOMM*%
%LPD*%
G01*
G04 APERTURE LIST*
%TA.AperFunction,ComponentPad*%
%ADD10C,1.600000*%
%TD*%
%TA.AperFunction,ComponentPad*%
%ADD11O,1.600000X1.600000*%
%TD*%
%TA.AperFunction,ComponentPad*%
%ADD12R,2.400000X1.600000*%
%TD*%
%TA.AperFunction,ComponentPad*%
%ADD13O,2.400000X1.600000*%
%TD*%
%TA.AperFunction,ComponentPad*%
%ADD14R,3.000000X3.000000*%
%TD*%
%TA.AperFunction,ComponentPad*%
%ADD15C,3.000000*%
%TD*%
%TA.AperFunction,ComponentPad*%
%ADD16R,2.000000X2.000000*%
%TD*%
%TA.AperFunction,ComponentPad*%
%ADD17O,2.000000X2.000000*%
%TD*%
%TA.AperFunction,ComponentPad*%
%ADD18R,1.800000X1.800000*%
%TD*%
%TA.AperFunction,ComponentPad*%
%ADD19C,1.800000*%
%TD*%
%TA.AperFunction,ViaPad*%
%ADD20C,0.800000*%
%TD*%
%TA.AperFunction,Conductor*%
%ADD21C,0.250000*%
%TD*%
%TA.AperFunction,Conductor*%
%ADD22C,0.254000*%
%TD*%
%TA.AperFunction,Conductor*%
%ADD23C,0.100000*%
%TD*%
G04 APERTURE END LIST*
D10*
%TO.P,R1,1*%
%TO.N,+9V*%
X69850000Y-93980000D03*
D11*
%TO.P,R1,2*%
%TO.N,1*%
X69850000Y-88900000D03*
%TD*%
D12*
%TO.P,U1,1*%
%TO.N,GND*%
X62230000Y-99060000D03*
D13*
%TO.P,U1,5*%
%TO.N,Net-(U1-Pad5)*%
X69850000Y-106680000D03*
%TO.P,U1,2*%
%TO.N,Net-(C1-Pad1)*%
X62230000Y-101600000D03*
%TO.P,U1,6*%
X69850000Y-104140000D03*
%TO.P,U1,3*%
%TO.N,Net-(R2-Pad2)*%
X62230000Y-104140000D03*
%TO.P,U1,7*%
%TO.N,1*%
X69850000Y-101600000D03*
%TO.P,U1,4*%
%TO.N,+9V*%
X62230000Y-106680000D03*
%TO.P,U1,8*%
X69850000Y-99060000D03*
%TD*%
D11*
%TO.P,R2,2*%
%TO.N,Net-(R2-Pad2)*%
X64770000Y-88900000D03*
D10*
%TO.P,R2,1*%
%TO.N,Net-(D1-Pad2)*%
X64770000Y-93980000D03*
%TD*%
%TO.P,R3,1*%
%TO.N,1*%
X76200000Y-93980000D03*
D11*
%TO.P,R3,2*%
%TO.N,Net-(C1-Pad1)*%
X76200000Y-88900000D03*
%TD*%
D14*
%TO.P,J1,1*%
%TO.N,GND*%
X54610000Y-90170000D03*
D15*
%TO.P,J1,2*%
%TO.N,+9V*%
X54610000Y-95250000D03*
%TD*%
D16*
%TO.P,C1,1*%
%TO.N,Net-(C1-Pad1)*%
X53340000Y-116840000D03*
D17*
%TO.P,C1,2*%
%TO.N,GND*%
X53340000Y-101840000D03*
%TD*%
D18*
%TO.P,D1,1*%
%TO.N,GND*%
X76200000Y-105410000D03*
D19*
%TO.P,D1,2*%
%TO.N,Net-(D1-Pad2)*%
X76200000Y-102870000D03*
%TD*%
D20*
%TO.N,+9V*%
X58420000Y-99060000D03*
%TD*%
D21*
%TO.N,*%
X60704999Y-100120001D02*
X60704999Y-97999999D01*
X62230000Y-100330000D02*
X60914998Y-100330000D01*
X60914998Y-100330000D02*
X60704999Y-100120001D01*
X60769999Y-97934999D02*
X62230000Y-97934999D01*
X60704999Y-97999999D02*
X60769999Y-97934999D01*
%TO.N,GND*%
X62680010Y-98609990D02*
X62230000Y-99060000D01*
%TO.N,+9V*%
X58420000Y-99060000D02*
X58420000Y-102870000D01*
X58420000Y-102870000D02*
X62230000Y-106680000D01*
%TD*%
D22*
%TO.N,GND*%
X82423000Y-120523000D02*
X48387000Y-120523000D01*
X48387000Y-115840000D01*
X51701928Y-115840000D01*
X51701928Y-117840000D01*
X51714188Y-117964482D01*
X51750498Y-118084180D01*
X51809463Y-118194494D01*
X51888815Y-118291185D01*
X51985506Y-118370537D01*
X52095820Y-118429502D01*
X52215518Y-118465812D01*
X52340000Y-118478072D01*
X54340000Y-118478072D01*
X54464482Y-118465812D01*
X54584180Y-118429502D01*
X54694494Y-118370537D01*
X54791185Y-118291185D01*
X54870537Y-118194494D01*
X54929502Y-118084180D01*
X54965812Y-117964482D01*
X54978072Y-117840000D01*
X54978072Y-115840000D01*
X54965812Y-115715518D01*
X54929502Y-115595820D01*
X54870537Y-115485506D01*
X54791185Y-115388815D01*
X54743733Y-115349872D01*
X58725000Y-115349872D01*
X58725000Y-115790128D01*
X58810890Y-116221925D01*
X58979369Y-116628669D01*
X59223962Y-116994729D01*
X59535271Y-117306038D01*
X59901331Y-117550631D01*
X60308075Y-117719110D01*
X60739872Y-117805000D01*
X61180128Y-117805000D01*
X61611925Y-117719110D01*
X62018669Y-117550631D01*
X62384729Y-117306038D01*
X62696038Y-116994729D01*
X62940631Y-116628669D01*
X63109110Y-116221925D01*
X63195000Y-115790128D01*
X63195000Y-115349872D01*
X73965000Y-115349872D01*
X73965000Y-115790128D01*
X74050890Y-116221925D01*
X74219369Y-116628669D01*
X74463962Y-116994729D01*
X74775271Y-117306038D01*
X75141331Y-117550631D01*
X75548075Y-117719110D01*
X75979872Y-117805000D01*
X76420128Y-117805000D01*
X76851925Y-117719110D01*
X77258669Y-117550631D01*
X77624729Y-117306038D01*
X77936038Y-116994729D01*
X78180631Y-116628669D01*
X78349110Y-116221925D01*
X78435000Y-115790128D01*
X78435000Y-115349872D01*
X78349110Y-114918075D01*
X78180631Y-114511331D01*
X77936038Y-114145271D01*
X77624729Y-113833962D01*
X77258669Y-113589369D01*
X76851925Y-113420890D01*
X76420128Y-113335000D01*
X75979872Y-113335000D01*
X75548075Y-113420890D01*
X75141331Y-113589369D01*
X74775271Y-113833962D01*
X74463962Y-114145271D01*
X74219369Y-114511331D01*
X74050890Y-114918075D01*
X73965000Y-115349872D01*
X63195000Y-115349872D01*
X63109110Y-114918075D01*
X62940631Y-114511331D01*
X62696038Y-114145271D01*
X62384729Y-113833962D01*
X62018669Y-113589369D01*
X61611925Y-113420890D01*
X61180128Y-113335000D01*
X60739872Y-113335000D01*
X60308075Y-113420890D01*
X59901331Y-113589369D01*
X59535271Y-113833962D01*
X59223962Y-114145271D01*
X58979369Y-114511331D01*
X58810890Y-114918075D01*
X58725000Y-115349872D01*
X54743733Y-115349872D01*
X54694494Y-115309463D01*
X54584180Y-115250498D01*
X54464482Y-115214188D01*
X54340000Y-115201928D01*
X52340000Y-115201928D01*
X52215518Y-115214188D01*
X52095820Y-115250498D01*
X51985506Y-115309463D01*
X51888815Y-115388815D01*
X51809463Y-115485506D01*
X51750498Y-115595820D01*
X51714188Y-115715518D01*
X51701928Y-115840000D01*
X48387000Y-115840000D01*
X48387000Y-102220435D01*
X51749871Y-102220435D01*
X51854644Y-102523344D01*
X52016499Y-102799992D01*
X52229215Y-103039748D01*
X52484618Y-103233399D01*
X52772893Y-103373502D01*
X52959566Y-103430124D01*
X53213000Y-103310777D01*
X53213000Y-101967000D01*
X53467000Y-101967000D01*
X53467000Y-103310777D01*
X53720434Y-103430124D01*
X53907107Y-103373502D01*
X54195382Y-103233399D01*
X54450785Y-103039748D01*
X54663501Y-102799992D01*
X54825356Y-102523344D01*
X54930129Y-102220435D01*
X54811315Y-101967000D01*
X53467000Y-101967000D01*
X53213000Y-101967000D01*
X51868685Y-101967000D01*
X51749871Y-102220435D01*
X48387000Y-102220435D01*
X48387000Y-101459565D01*
X51749871Y-101459565D01*
X51868685Y-101713000D01*
X53213000Y-101713000D01*
X53213000Y-100369223D01*
X53467000Y-100369223D01*
X53467000Y-101713000D01*
X54811315Y-101713000D01*
X54930129Y-101459565D01*
X54825356Y-101156656D01*
X54663501Y-100880008D01*
X54450785Y-100640252D01*
X54195382Y-100446601D01*
X53907107Y-100306498D01*
X53720434Y-100249876D01*
X53467000Y-100369223D01*
X53213000Y-100369223D01*
X52959566Y-100249876D01*
X52772893Y-100306498D01*
X52484618Y-100446601D01*
X52229215Y-100640252D01*
X52016499Y-100880008D01*
X51854644Y-101156656D01*
X51749871Y-101459565D01*
X48387000Y-101459565D01*
X48387000Y-98958061D01*
X57385000Y-98958061D01*
X57385000Y-99161939D01*
X57424774Y-99361898D01*
X57502795Y-99550256D01*
X57616063Y-99719774D01*
X57660000Y-99763711D01*
X57660001Y-102832668D01*
X57656324Y-102870000D01*
X57660001Y-102907333D01*
X57662449Y-102932182D01*
X57670998Y-103018985D01*
X57714454Y-103162246D01*
X57785026Y-103294276D01*
X57821648Y-103338899D01*
X57880000Y-103410001D01*
X57908998Y-103433799D01*
X60534592Y-106059393D01*
X60497818Y-106128192D01*
X60415764Y-106398691D01*
X60388057Y-106680000D01*
X60415764Y-106961309D01*
X60497818Y-107231808D01*
X60631068Y-107481101D01*
X60810392Y-107699608D01*
X61028899Y-107878932D01*
X61278192Y-108012182D01*
X61548691Y-108094236D01*
X61759508Y-108115000D01*
X62700492Y-108115000D01*
X62911309Y-108094236D01*
X63181808Y-108012182D01*
X63431101Y-107878932D01*
X63649608Y-107699608D01*
X63828932Y-107481101D01*
X63962182Y-107231808D01*
X64044236Y-106961309D01*
X64071943Y-106680000D01*
X64044236Y-106398691D01*
X63962182Y-106128192D01*
X63828932Y-105878899D01*
X63649608Y-105660392D01*
X63431101Y-105481068D01*
X63298142Y-105410000D01*
X63431101Y-105338932D01*
X63649608Y-105159608D01*
X63828932Y-104941101D01*
X63962182Y-104691808D01*
X64044236Y-104421309D01*
X64071943Y-104140000D01*
X64044236Y-103858691D01*
X63962182Y-103588192D01*
X63828932Y-103338899D01*
X63649608Y-103120392D01*
X63431101Y-102941068D01*
X63298142Y-102870000D01*
X63431101Y-102798932D01*
X63649608Y-102619608D01*
X63828932Y-102401101D01*
X63962182Y-102151808D01*
X64044236Y-101881309D01*
X64071943Y-101600000D01*
X64044236Y-101318691D01*
X63962182Y-101048192D01*
X63828932Y-100798899D01*
X63649608Y-100580392D01*
X63536518Y-100487581D01*
X63554482Y-100485812D01*
X63674180Y-100449502D01*
X63784494Y-100390537D01*
X63881185Y-100311185D01*
X63960537Y-100214494D01*
X64019502Y-100104180D01*
X64055812Y-99984482D01*
X64068072Y-99860000D01*
X64065000Y-99345750D01*
X63906250Y-99187000D01*
X62357000Y-99187000D01*
X62357000Y-99207000D01*
X62103000Y-99207000D01*
X62103000Y-99187000D01*
X62083000Y-99187000D01*
X62083000Y-99060000D01*
X68008057Y-99060000D01*
X68035764Y-99341309D01*
X68117818Y-99611808D01*
X68251068Y-99861101D01*
X68430392Y-100079608D01*
X68648899Y-100258932D01*
X68781858Y-100330000D01*
X68648899Y-100401068D01*
X68430392Y-100580392D01*
X68251068Y-100798899D01*
X68117818Y-101048192D01*
X68035764Y-101318691D01*
X68008057Y-101600000D01*
X68035764Y-101881309D01*
X68117818Y-102151808D01*
X68251068Y-102401101D01*
X68430392Y-102619608D01*
X68648899Y-102798932D01*
X68781858Y-102870000D01*
X68648899Y-102941068D01*
X68430392Y-103120392D01*
X68251068Y-103338899D01*
X68117818Y-103588192D01*
X68035764Y-103858691D01*
X68008057Y-104140000D01*
X68035764Y-104421309D01*
X68117818Y-104691808D01*
X68251068Y-104941101D01*
X68430392Y-105159608D01*
X68648899Y-105338932D01*
X68781858Y-105410000D01*
X68648899Y-105481068D01*
X68430392Y-105660392D01*
X68251068Y-105878899D01*
X68117818Y-106128192D01*
X68035764Y-106398691D01*
X68008057Y-106680000D01*
X68035764Y-106961309D01*
X68117818Y-107231808D01*
X68251068Y-107481101D01*
X68430392Y-107699608D01*
X68648899Y-107878932D01*
X68898192Y-108012182D01*
X69168691Y-108094236D01*
X69379508Y-108115000D01*
X70320492Y-108115000D01*
X70531309Y-108094236D01*
X70801808Y-108012182D01*
X71051101Y-107878932D01*
X71269608Y-107699608D01*
X71448932Y-107481101D01*
X71582182Y-107231808D01*
X71664236Y-106961309D01*
X71691943Y-106680000D01*
X71664236Y-106398691D01*
X71637333Y-106310000D01*
X74661928Y-106310000D01*
X74674188Y-106434482D01*
X74710498Y-106554180D01*
X74769463Y-106664494D01*
X74848815Y-106761185D01*
X74945506Y-106840537D01*
X75055820Y-106899502D01*
X75175518Y-106935812D01*
X75300000Y-106948072D01*
X75914250Y-106945000D01*
X76073000Y-106786250D01*
X76073000Y-105537000D01*
X76327000Y-105537000D01*
X76327000Y-106786250D01*
X76485750Y-106945000D01*
X77100000Y-106948072D01*
X77224482Y-106935812D01*
X77344180Y-106899502D01*
X77454494Y-106840537D01*
X77551185Y-106761185D01*
X77630537Y-106664494D01*
X77689502Y-106554180D01*
X77725812Y-106434482D01*
X77738072Y-106310000D01*
X77735000Y-105695750D01*
X77576250Y-105537000D01*
X76327000Y-105537000D01*
X76073000Y-105537000D01*
X74823750Y-105537000D01*
X74665000Y-105695750D01*
X74661928Y-106310000D01*
X71637333Y-106310000D01*
X71582182Y-106128192D01*
X71448932Y-105878899D01*
X71269608Y-105660392D01*
X71051101Y-105481068D01*
X70918142Y-105410000D01*
X71051101Y-105338932D01*
X71269608Y-105159608D01*
X71448932Y-104941101D01*
X71582182Y-104691808D01*
X71637332Y-104510000D01*
X74661928Y-104510000D01*
X74665000Y-105124250D01*
X74823750Y-105283000D01*
X76073000Y-105283000D01*
X76073000Y-105263000D01*
X76327000Y-105263000D01*
X76327000Y-105283000D01*
X77576250Y-105283000D01*
X77735000Y-105124250D01*
X77738072Y-104510000D01*
X77725812Y-104385518D01*
X77689502Y-104265820D01*
X77630537Y-104155506D01*
X77551185Y-104058815D01*
X77454494Y-103979463D01*
X77344180Y-103920498D01*
X77325873Y-103914944D01*
X77392312Y-103848505D01*
X77560299Y-103597095D01*
X77676011Y-103317743D01*
X77735000Y-103021184D01*
X77735000Y-102718816D01*
X77676011Y-102422257D01*
X77560299Y-102142905D01*
X77392312Y-101891495D01*
X77178505Y-101677688D01*
X76927095Y-101509701D01*
X76647743Y-101393989D01*
X76351184Y-101335000D01*
X76048816Y-101335000D01*
X75752257Y-101393989D01*
X75472905Y-101509701D01*
X75221495Y-101677688D01*
X75007688Y-101891495D01*
X74839701Y-102142905D01*
X74723989Y-102422257D01*
X74665000Y-102718816D01*
X74665000Y-103021184D01*
X74723989Y-103317743D01*
X74839701Y-103597095D01*
X75007688Y-103848505D01*
X75074127Y-103914944D01*
X75055820Y-103920498D01*
X74945506Y-103979463D01*
X74848815Y-104058815D01*
X74769463Y-104155506D01*
X74710498Y-104265820D01*
X74674188Y-104385518D01*
X74661928Y-104510000D01*
X71637332Y-104510000D01*
X71664236Y-104421309D01*
X71691943Y-104140000D01*
X71664236Y-103858691D01*
X71582182Y-103588192D01*
X71448932Y-103338899D01*
X71269608Y-103120392D01*
X71051101Y-102941068D01*
X70918142Y-102870000D01*
X71051101Y-102798932D01*
X71269608Y-102619608D01*
X71448932Y-102401101D01*
X71582182Y-102151808D01*
X71664236Y-101881309D01*
X71691943Y-101600000D01*
X71664236Y-101318691D01*
X71582182Y-101048192D01*
X71448932Y-100798899D01*
X71269608Y-100580392D01*
X71051101Y-100401068D01*
X70918142Y-100330000D01*
X71051101Y-100258932D01*
X71269608Y-100079608D01*
X71448932Y-99861101D01*
X71582182Y-99611808D01*
X71664236Y-99341309D01*
X71691943Y-99060000D01*
X71664236Y-98778691D01*
X71582182Y-98508192D01*
X71448932Y-98258899D01*
X71269608Y-98040392D01*
X71051101Y-97861068D01*
X70801808Y-97727818D01*
X70531309Y-97645764D01*
X70320492Y-97625000D01*
X69379508Y-97625000D01*
X69168691Y-97645764D01*
X68898192Y-97727818D01*
X68648899Y-97861068D01*
X68430392Y-98040392D01*
X68251068Y-98258899D01*
X68117818Y-98508192D01*
X68035764Y-98778691D01*
X68008057Y-99060000D01*
X62083000Y-99060000D01*
X62083000Y-98933000D01*
X62103000Y-98933000D01*
X62103000Y-98913000D01*
X62357000Y-98913000D01*
X62357000Y-98933000D01*
X63906250Y-98933000D01*
X64065000Y-98774250D01*
X64068072Y-98260000D01*
X64055812Y-98135518D01*
X64019502Y-98015820D01*
X63960537Y-97905506D01*
X63881185Y-97808815D01*
X63784494Y-97729463D01*
X63674180Y-97670498D01*
X63554482Y-97634188D01*
X63430000Y-97621928D01*
X62925322Y-97623624D01*
X62864974Y-97510723D01*
X62770001Y-97394998D01*
X62654276Y-97300025D01*
X62522247Y-97229453D01*
X62378986Y-97185996D01*
X62267333Y-97174999D01*
X60807322Y-97174999D01*
X60769999Y-97171323D01*
X60732677Y-97174999D01*
X60732666Y-97174999D01*
X60621013Y-97185996D01*
X60477752Y-97229453D01*
X60345723Y-97300025D01*
X60229998Y-97394998D01*
X60206195Y-97424002D01*
X60193997Y-97436200D01*
X60164999Y-97459998D01*
X60141201Y-97488996D01*
X60141200Y-97488997D01*
X60070025Y-97575723D01*
X59999453Y-97707753D01*
X59955997Y-97851014D01*
X59941323Y-97999999D01*
X59945000Y-98037331D01*
X59944999Y-100082678D01*
X59941323Y-100120001D01*
X59944999Y-100157323D01*
X59944999Y-100157333D01*
X59955996Y-100268986D01*
X59996062Y-100401068D01*
X59999453Y-100412247D01*
X60070025Y-100544277D01*
X60099664Y-100580392D01*
X60164998Y-100660002D01*
X60194001Y-100683804D01*
X60351198Y-100841002D01*
X60374997Y-100870001D01*
X60490722Y-100964974D01*
X60530838Y-100986417D01*
X60497818Y-101048192D01*
X60415764Y-101318691D01*
X60388057Y-101600000D01*
X60415764Y-101881309D01*
X60497818Y-102151808D01*
X60631068Y-102401101D01*
X60810392Y-102619608D01*
X61028899Y-102798932D01*
X61161858Y-102870000D01*
X61028899Y-102941068D01*
X60810392Y-103120392D01*
X60631068Y-103338899D01*
X60497818Y-103588192D01*
X60431527Y-103806726D01*
X59180000Y-102555199D01*
X59180000Y-99763711D01*
X59223937Y-99719774D01*
X59337205Y-99550256D01*
X59415226Y-99361898D01*
X59455000Y-99161939D01*
X59455000Y-98958061D01*
X59415226Y-98758102D01*
X59337205Y-98569744D01*
X59223937Y-98400226D01*
X59079774Y-98256063D01*
X58910256Y-98142795D01*
X58721898Y-98064774D01*
X58521939Y-98025000D01*
X58318061Y-98025000D01*
X58118102Y-98064774D01*
X57929744Y-98142795D01*
X57760226Y-98256063D01*
X57616063Y-98400226D01*
X57502795Y-98569744D01*
X57424774Y-98758102D01*
X57385000Y-98958061D01*
X48387000Y-98958061D01*
X48387000Y-95039721D01*
X52475000Y-95039721D01*
X52475000Y-95460279D01*
X52557047Y-95872756D01*
X52717988Y-96261302D01*
X52951637Y-96610983D01*
X53249017Y-96908363D01*
X53598698Y-97142012D01*
X53987244Y-97302953D01*
X54399721Y-97385000D01*
X54820279Y-97385000D01*
X55232756Y-97302953D01*
X55621302Y-97142012D01*
X55970983Y-96908363D01*
X56268363Y-96610983D01*
X56502012Y-96261302D01*
X56662953Y-95872756D01*
X56745000Y-95460279D01*
X56745000Y-95039721D01*
X56662953Y-94627244D01*
X56502012Y-94238698D01*
X56268363Y-93889017D01*
X56218011Y-93838665D01*
X63335000Y-93838665D01*
X63335000Y-94121335D01*
X63390147Y-94398574D01*
X63498320Y-94659727D01*
X63655363Y-94894759D01*
X63855241Y-95094637D01*
X64090273Y-95251680D01*
X64351426Y-95359853D01*
X64628665Y-95415000D01*
X64911335Y-95415000D01*
X65188574Y-95359853D01*
X65449727Y-95251680D01*
X65684759Y-95094637D01*
X65884637Y-94894759D01*
X66041680Y-94659727D01*
X66149853Y-94398574D01*
X66205000Y-94121335D01*
X66205000Y-93838665D01*
X68415000Y-93838665D01*
X68415000Y-94121335D01*
X68470147Y-94398574D01*
X68578320Y-94659727D01*
X68735363Y-94894759D01*
X68935241Y-95094637D01*
X69170273Y-95251680D01*
X69431426Y-95359853D01*
X69708665Y-95415000D01*
X69991335Y-95415000D01*
X70268574Y-95359853D01*
X70529727Y-95251680D01*
X70764759Y-95094637D01*
X70964637Y-94894759D01*
X71121680Y-94659727D01*
X71229853Y-94398574D01*
X71285000Y-94121335D01*
X71285000Y-93838665D01*
X74765000Y-93838665D01*
X74765000Y-94121335D01*
X74820147Y-94398574D01*
X74928320Y-94659727D01*
X75085363Y-94894759D01*
X75285241Y-95094637D01*
X75520273Y-95251680D01*
X75781426Y-95359853D01*
X76058665Y-95415000D01*
X76341335Y-95415000D01*
X76618574Y-95359853D01*
X76879727Y-95251680D01*
X77114759Y-95094637D01*
X77314637Y-94894759D01*
X77471680Y-94659727D01*
X77579853Y-94398574D01*
X77635000Y-94121335D01*
X77635000Y-93838665D01*
X77579853Y-93561426D01*
X77471680Y-93300273D01*
X77314637Y-93065241D01*
X77114759Y-92865363D01*
X76879727Y-92708320D01*
X76618574Y-92600147D01*
X76341335Y-92545000D01*
X76058665Y-92545000D01*
X75781426Y-92600147D01*
X75520273Y-92708320D01*
X75285241Y-92865363D01*
X75085363Y-93065241D01*
X74928320Y-93300273D01*
X74820147Y-93561426D01*
X74765000Y-93838665D01*
X71285000Y-93838665D01*
X71229853Y-93561426D01*
X71121680Y-93300273D01*
X70964637Y-93065241D01*
X70764759Y-92865363D01*
X70529727Y-92708320D01*
X70268574Y-92600147D01*
X69991335Y-92545000D01*
X69708665Y-92545000D01*
X69431426Y-92600147D01*
X69170273Y-92708320D01*
X68935241Y-92865363D01*
X68735363Y-93065241D01*
X68578320Y-93300273D01*
X68470147Y-93561426D01*
X68415000Y-93838665D01*
X66205000Y-93838665D01*
X66149853Y-93561426D01*
X66041680Y-93300273D01*
X65884637Y-93065241D01*
X65684759Y-92865363D01*
X65449727Y-92708320D01*
X65188574Y-92600147D01*
X64911335Y-92545000D01*
X64628665Y-92545000D01*
X64351426Y-92600147D01*
X64090273Y-92708320D01*
X63855241Y-92865363D01*
X63655363Y-93065241D01*
X63498320Y-93300273D01*
X63390147Y-93561426D01*
X63335000Y-93838665D01*
X56218011Y-93838665D01*
X55970983Y-93591637D01*
X55621302Y-93357988D01*
X55232756Y-93197047D01*
X54820279Y-93115000D01*
X54399721Y-93115000D01*
X53987244Y-93197047D01*
X53598698Y-93357988D01*
X53249017Y-93591637D01*
X52951637Y-93889017D01*
X52717988Y-94238698D01*
X52557047Y-94627244D01*
X52475000Y-95039721D01*
X48387000Y-95039721D01*
X48387000Y-91670000D01*
X52471928Y-91670000D01*
X52484188Y-91794482D01*
X52520498Y-91914180D01*
X52579463Y-92024494D01*
X52658815Y-92121185D01*
X52755506Y-92200537D01*
X52865820Y-92259502D01*
X52985518Y-92295812D01*
X53110000Y-92308072D01*
X54324250Y-92305000D01*
X54483000Y-92146250D01*
X54483000Y-90297000D01*
X54737000Y-90297000D01*
X54737000Y-92146250D01*
X54895750Y-92305000D01*
X56110000Y-92308072D01*
X56234482Y-92295812D01*
X56354180Y-92259502D01*
X56464494Y-92200537D01*
X56561185Y-92121185D01*
X56640537Y-92024494D01*
X56699502Y-91914180D01*
X56735812Y-91794482D01*
X56748072Y-91670000D01*
X56745000Y-90455750D01*
X56586250Y-90297000D01*
X54737000Y-90297000D01*
X54483000Y-90297000D01*
X52633750Y-90297000D01*
X52475000Y-90455750D01*
X52471928Y-91670000D01*
X48387000Y-91670000D01*
X48387000Y-88670000D01*
X52471928Y-88670000D01*
X52475000Y-89884250D01*
X52633750Y-90043000D01*
X54483000Y-90043000D01*
X54483000Y-88193750D01*
X54737000Y-88193750D01*
X54737000Y-90043000D01*
X56586250Y-90043000D01*
X56745000Y-89884250D01*
X56747847Y-88758665D01*
X63335000Y-88758665D01*
X63335000Y-89041335D01*
X63390147Y-89318574D01*
X63498320Y-89579727D01*
X63655363Y-89814759D01*
X63855241Y-90014637D01*
X64090273Y-90171680D01*
X64351426Y-90279853D01*
X64628665Y-90335000D01*
X64911335Y-90335000D01*
X65188574Y-90279853D01*
X65449727Y-90171680D01*
X65684759Y-90014637D01*
X65884637Y-89814759D01*
X66041680Y-89579727D01*
X66149853Y-89318574D01*
X66205000Y-89041335D01*
X66205000Y-88758665D01*
X68415000Y-88758665D01*
X68415000Y-89041335D01*
X68470147Y-89318574D01*
X68578320Y-89579727D01*
X68735363Y-89814759D01*
X68935241Y-90014637D01*
X69170273Y-90171680D01*
X69431426Y-90279853D01*
X69708665Y-90335000D01*
X69991335Y-90335000D01*
X70268574Y-90279853D01*
X70529727Y-90171680D01*
X70764759Y-90014637D01*
X70964637Y-89814759D01*
X71121680Y-89579727D01*
X71229853Y-89318574D01*
X71285000Y-89041335D01*
X71285000Y-88758665D01*
X74765000Y-88758665D01*
X74765000Y-89041335D01*
X74820147Y-89318574D01*
X74928320Y-89579727D01*
X75085363Y-89814759D01*
X75285241Y-90014637D01*
X75520273Y-90171680D01*
X75781426Y-90279853D01*
X76058665Y-90335000D01*
X76341335Y-90335000D01*
X76618574Y-90279853D01*
X76879727Y-90171680D01*
X77114759Y-90014637D01*
X77314637Y-89814759D01*
X77471680Y-89579727D01*
X77579853Y-89318574D01*
X77635000Y-89041335D01*
X77635000Y-88758665D01*
X77579853Y-88481426D01*
X77471680Y-88220273D01*
X77314637Y-87985241D01*
X77114759Y-87785363D01*
X76879727Y-87628320D01*
X76618574Y-87520147D01*
X76341335Y-87465000D01*
X76058665Y-87465000D01*
X75781426Y-87520147D01*
X75520273Y-87628320D01*
X75285241Y-87785363D01*
X75085363Y-87985241D01*
X74928320Y-88220273D01*
X74820147Y-88481426D01*
X74765000Y-88758665D01*
X71285000Y-88758665D01*
X71229853Y-88481426D01*
X71121680Y-88220273D01*
X70964637Y-87985241D01*
X70764759Y-87785363D01*
X70529727Y-87628320D01*
X70268574Y-87520147D01*
X69991335Y-87465000D01*
X69708665Y-87465000D01*
X69431426Y-87520147D01*
X69170273Y-87628320D01*
X68935241Y-87785363D01*
X68735363Y-87985241D01*
X68578320Y-88220273D01*
X68470147Y-88481426D01*
X68415000Y-88758665D01*
X66205000Y-88758665D01*
X66149853Y-88481426D01*
X66041680Y-88220273D01*
X65884637Y-87985241D01*
X65684759Y-87785363D01*
X65449727Y-87628320D01*
X65188574Y-87520147D01*
X64911335Y-87465000D01*
X64628665Y-87465000D01*
X64351426Y-87520147D01*
X64090273Y-87628320D01*
X63855241Y-87785363D01*
X63655363Y-87985241D01*
X63498320Y-88220273D01*
X63390147Y-88481426D01*
X63335000Y-88758665D01*
X56747847Y-88758665D01*
X56748072Y-88670000D01*
X56735812Y-88545518D01*
X56699502Y-88425820D01*
X56640537Y-88315506D01*
X56561185Y-88218815D01*
X56464494Y-88139463D01*
X56354180Y-88080498D01*
X56234482Y-88044188D01*
X56110000Y-88031928D01*
X54895750Y-88035000D01*
X54737000Y-88193750D01*
X54483000Y-88193750D01*
X54324250Y-88035000D01*
X53110000Y-88031928D01*
X52985518Y-88044188D01*
X52865820Y-88080498D01*
X52755506Y-88139463D01*
X52658815Y-88218815D01*
X52579463Y-88315506D01*
X52520498Y-88425820D01*
X52484188Y-88545518D01*
X52471928Y-88670000D01*
X48387000Y-88670000D01*
X48387000Y-81059872D01*
X51105000Y-81059872D01*
X51105000Y-81500128D01*
X51190890Y-81931925D01*
X51359369Y-82338669D01*
X51603962Y-82704729D01*
X51915271Y-83016038D01*
X52281331Y-83260631D01*
X52688075Y-83429110D01*
X53119872Y-83515000D01*
X53560128Y-83515000D01*
X53991925Y-83429110D01*
X54398669Y-83260631D01*
X54764729Y-83016038D01*
X55076038Y-82704729D01*
X55320631Y-82338669D01*
X55489110Y-81931925D01*
X55575000Y-81500128D01*
X55575000Y-81059872D01*
X72695000Y-81059872D01*
X72695000Y-81500128D01*
X72780890Y-81931925D01*
X72949369Y-82338669D01*
X73193962Y-82704729D01*
X73505271Y-83016038D01*
X73871331Y-83260631D01*
X74278075Y-83429110D01*
X74709872Y-83515000D01*
X75150128Y-83515000D01*
X75581925Y-83429110D01*
X75988669Y-83260631D01*
X76354729Y-83016038D01*
X76666038Y-82704729D01*
X76910631Y-82338669D01*
X77079110Y-81931925D01*
X77165000Y-81500128D01*
X77165000Y-81059872D01*
X77079110Y-80628075D01*
X76910631Y-80221331D01*
X76666038Y-79855271D01*
X76354729Y-79543962D01*
X75988669Y-79299369D01*
X75581925Y-79130890D01*
X75150128Y-79045000D01*
X74709872Y-79045000D01*
X74278075Y-79130890D01*
X73871331Y-79299369D01*
X73505271Y-79543962D01*
X73193962Y-79855271D01*
X72949369Y-80221331D01*
X72780890Y-80628075D01*
X72695000Y-81059872D01*
X55575000Y-81059872D01*
X55489110Y-80628075D01*
X55320631Y-80221331D01*
X55076038Y-79855271D01*
X54764729Y-79543962D01*
X54398669Y-79299369D01*
X53991925Y-79130890D01*
X53560128Y-79045000D01*
X53119872Y-79045000D01*
X52688075Y-79130890D01*
X52281331Y-79299369D01*
X51915271Y-79543962D01*
X51603962Y-79855271D01*
X51359369Y-80221331D01*
X51190890Y-80628075D01*
X51105000Y-81059872D01*
X48387000Y-81059872D01*
X48387000Y-77597000D01*
X82423000Y-77597000D01*
X82423000Y-120523000D01*
%TA.AperFunction,Conductor*%
D23*
G36*
X82423000Y-120523000D02*
G01*
X48387000Y-120523000D01*
X48387000Y-115840000D01*
X51701928Y-115840000D01*
X51701928Y-117840000D01*
X51714188Y-117964482D01*
X51750498Y-118084180D01*
X51809463Y-118194494D01*
X51888815Y-118291185D01*
X51985506Y-118370537D01*
X52095820Y-118429502D01*
X52215518Y-118465812D01*
X52340000Y-118478072D01*
X54340000Y-118478072D01*
X54464482Y-118465812D01*
X54584180Y-118429502D01*
X54694494Y-118370537D01*
X54791185Y-118291185D01*
X54870537Y-118194494D01*
X54929502Y-118084180D01*
X54965812Y-117964482D01*
X54978072Y-117840000D01*
X54978072Y-115840000D01*
X54965812Y-115715518D01*
X54929502Y-115595820D01*
X54870537Y-115485506D01*
X54791185Y-115388815D01*
X54743733Y-115349872D01*
X58725000Y-115349872D01*
X58725000Y-115790128D01*
X58810890Y-116221925D01*
X58979369Y-116628669D01*
X59223962Y-116994729D01*
X59535271Y-117306038D01*
X59901331Y-117550631D01*
X60308075Y-117719110D01*
X60739872Y-117805000D01*
X61180128Y-117805000D01*
X61611925Y-117719110D01*
X62018669Y-117550631D01*
X62384729Y-117306038D01*
X62696038Y-116994729D01*
X62940631Y-116628669D01*
X63109110Y-116221925D01*
X63195000Y-115790128D01*
X63195000Y-115349872D01*
X73965000Y-115349872D01*
X73965000Y-115790128D01*
X74050890Y-116221925D01*
X74219369Y-116628669D01*
X74463962Y-116994729D01*
X74775271Y-117306038D01*
X75141331Y-117550631D01*
X75548075Y-117719110D01*
X75979872Y-117805000D01*
X76420128Y-117805000D01*
X76851925Y-117719110D01*
X77258669Y-117550631D01*
X77624729Y-117306038D01*
X77936038Y-116994729D01*
X78180631Y-116628669D01*
X78349110Y-116221925D01*
X78435000Y-115790128D01*
X78435000Y-115349872D01*
X78349110Y-114918075D01*
X78180631Y-114511331D01*
X77936038Y-114145271D01*
X77624729Y-113833962D01*
X77258669Y-113589369D01*
X76851925Y-113420890D01*
X76420128Y-113335000D01*
X75979872Y-113335000D01*
X75548075Y-113420890D01*
X75141331Y-113589369D01*
X74775271Y-113833962D01*
X74463962Y-114145271D01*
X74219369Y-114511331D01*
X74050890Y-114918075D01*
X73965000Y-115349872D01*
X63195000Y-115349872D01*
X63109110Y-114918075D01*
X62940631Y-114511331D01*
X62696038Y-114145271D01*
X62384729Y-113833962D01*
X62018669Y-113589369D01*
X61611925Y-113420890D01*
X61180128Y-113335000D01*
X60739872Y-113335000D01*
X60308075Y-113420890D01*
X59901331Y-113589369D01*
X59535271Y-113833962D01*
X59223962Y-114145271D01*
X58979369Y-114511331D01*
X58810890Y-114918075D01*
X58725000Y-115349872D01*
X54743733Y-115349872D01*
X54694494Y-115309463D01*
X54584180Y-115250498D01*
X54464482Y-115214188D01*
X54340000Y-115201928D01*
X52340000Y-115201928D01*
X52215518Y-115214188D01*
X52095820Y-115250498D01*
X51985506Y-115309463D01*
X51888815Y-115388815D01*
X51809463Y-115485506D01*
X51750498Y-115595820D01*
X51714188Y-115715518D01*
X51701928Y-115840000D01*
X48387000Y-115840000D01*
X48387000Y-102220435D01*
X51749871Y-102220435D01*
X51854644Y-102523344D01*
X52016499Y-102799992D01*
X52229215Y-103039748D01*
X52484618Y-103233399D01*
X52772893Y-103373502D01*
X52959566Y-103430124D01*
X53213000Y-103310777D01*
X53213000Y-101967000D01*
X53467000Y-101967000D01*
X53467000Y-103310777D01*
X53720434Y-103430124D01*
X53907107Y-103373502D01*
X54195382Y-103233399D01*
X54450785Y-103039748D01*
X54663501Y-102799992D01*
X54825356Y-102523344D01*
X54930129Y-102220435D01*
X54811315Y-101967000D01*
X53467000Y-101967000D01*
X53213000Y-101967000D01*
X51868685Y-101967000D01*
X51749871Y-102220435D01*
X48387000Y-102220435D01*
X48387000Y-101459565D01*
X51749871Y-101459565D01*
X51868685Y-101713000D01*
X53213000Y-101713000D01*
X53213000Y-100369223D01*
X53467000Y-100369223D01*
X53467000Y-101713000D01*
X54811315Y-101713000D01*
X54930129Y-101459565D01*
X54825356Y-101156656D01*
X54663501Y-100880008D01*
X54450785Y-100640252D01*
X54195382Y-100446601D01*
X53907107Y-100306498D01*
X53720434Y-100249876D01*
X53467000Y-100369223D01*
X53213000Y-100369223D01*
X52959566Y-100249876D01*
X52772893Y-100306498D01*
X52484618Y-100446601D01*
X52229215Y-100640252D01*
X52016499Y-100880008D01*
X51854644Y-101156656D01*
X51749871Y-101459565D01*
X48387000Y-101459565D01*
X48387000Y-98958061D01*
X57385000Y-98958061D01*
X57385000Y-99161939D01*
X57424774Y-99361898D01*
X57502795Y-99550256D01*
X57616063Y-99719774D01*
X57660000Y-99763711D01*
X57660001Y-102832668D01*
X57656324Y-102870000D01*
X57660001Y-102907333D01*
X57662449Y-102932182D01*
X57670998Y-103018985D01*
X57714454Y-103162246D01*
X57785026Y-103294276D01*
X57821648Y-103338899D01*
X57880000Y-103410001D01*
X57908998Y-103433799D01*
X60534592Y-106059393D01*
X60497818Y-106128192D01*
X60415764Y-106398691D01*
X60388057Y-106680000D01*
X60415764Y-106961309D01*
X60497818Y-107231808D01*
X60631068Y-107481101D01*
X60810392Y-107699608D01*
X61028899Y-107878932D01*
X61278192Y-108012182D01*
X61548691Y-108094236D01*
X61759508Y-108115000D01*
X62700492Y-108115000D01*
X62911309Y-108094236D01*
X63181808Y-108012182D01*
X63431101Y-107878932D01*
X63649608Y-107699608D01*
X63828932Y-107481101D01*
X63962182Y-107231808D01*
X64044236Y-106961309D01*
X64071943Y-106680000D01*
X64044236Y-106398691D01*
X63962182Y-106128192D01*
X63828932Y-105878899D01*
X63649608Y-105660392D01*
X63431101Y-105481068D01*
X63298142Y-105410000D01*
X63431101Y-105338932D01*
X63649608Y-105159608D01*
X63828932Y-104941101D01*
X63962182Y-104691808D01*
X64044236Y-104421309D01*
X64071943Y-104140000D01*
X64044236Y-103858691D01*
X63962182Y-103588192D01*
X63828932Y-103338899D01*
X63649608Y-103120392D01*
X63431101Y-102941068D01*
X63298142Y-102870000D01*
X63431101Y-102798932D01*
X63649608Y-102619608D01*
X63828932Y-102401101D01*
X63962182Y-102151808D01*
X64044236Y-101881309D01*
X64071943Y-101600000D01*
X64044236Y-101318691D01*
X63962182Y-101048192D01*
X63828932Y-100798899D01*
X63649608Y-100580392D01*
X63536518Y-100487581D01*
X63554482Y-100485812D01*
X63674180Y-100449502D01*
X63784494Y-100390537D01*
X63881185Y-100311185D01*
X63960537Y-100214494D01*
X64019502Y-100104180D01*
X64055812Y-99984482D01*
X64068072Y-99860000D01*
X64065000Y-99345750D01*
X63906250Y-99187000D01*
X62357000Y-99187000D01*
X62357000Y-99207000D01*
X62103000Y-99207000D01*
X62103000Y-99187000D01*
X62083000Y-99187000D01*
X62083000Y-99060000D01*
X68008057Y-99060000D01*
X68035764Y-99341309D01*
X68117818Y-99611808D01*
X68251068Y-99861101D01*
X68430392Y-100079608D01*
X68648899Y-100258932D01*
X68781858Y-100330000D01*
X68648899Y-100401068D01*
X68430392Y-100580392D01*
X68251068Y-100798899D01*
X68117818Y-101048192D01*
X68035764Y-101318691D01*
X68008057Y-101600000D01*
X68035764Y-101881309D01*
X68117818Y-102151808D01*
X68251068Y-102401101D01*
X68430392Y-102619608D01*
X68648899Y-102798932D01*
X68781858Y-102870000D01*
X68648899Y-102941068D01*
X68430392Y-103120392D01*
X68251068Y-103338899D01*
X68117818Y-103588192D01*
X68035764Y-103858691D01*
X68008057Y-104140000D01*
X68035764Y-104421309D01*
X68117818Y-104691808D01*
X68251068Y-104941101D01*
X68430392Y-105159608D01*
X68648899Y-105338932D01*
X68781858Y-105410000D01*
X68648899Y-105481068D01*
X68430392Y-105660392D01*
X68251068Y-105878899D01*
X68117818Y-106128192D01*
X68035764Y-106398691D01*
X68008057Y-106680000D01*
X68035764Y-106961309D01*
X68117818Y-107231808D01*
X68251068Y-107481101D01*
X68430392Y-107699608D01*
X68648899Y-107878932D01*
X68898192Y-108012182D01*
X69168691Y-108094236D01*
X69379508Y-108115000D01*
X70320492Y-108115000D01*
X70531309Y-108094236D01*
X70801808Y-108012182D01*
X71051101Y-107878932D01*
X71269608Y-107699608D01*
X71448932Y-107481101D01*
X71582182Y-107231808D01*
X71664236Y-106961309D01*
X71691943Y-106680000D01*
X71664236Y-106398691D01*
X71637333Y-106310000D01*
X74661928Y-106310000D01*
X74674188Y-106434482D01*
X74710498Y-106554180D01*
X74769463Y-106664494D01*
X74848815Y-106761185D01*
X74945506Y-106840537D01*
X75055820Y-106899502D01*
X75175518Y-106935812D01*
X75300000Y-106948072D01*
X75914250Y-106945000D01*
X76073000Y-106786250D01*
X76073000Y-105537000D01*
X76327000Y-105537000D01*
X76327000Y-106786250D01*
X76485750Y-106945000D01*
X77100000Y-106948072D01*
X77224482Y-106935812D01*
X77344180Y-106899502D01*
X77454494Y-106840537D01*
X77551185Y-106761185D01*
X77630537Y-106664494D01*
X77689502Y-106554180D01*
X77725812Y-106434482D01*
X77738072Y-106310000D01*
X77735000Y-105695750D01*
X77576250Y-105537000D01*
X76327000Y-105537000D01*
X76073000Y-105537000D01*
X74823750Y-105537000D01*
X74665000Y-105695750D01*
X74661928Y-106310000D01*
X71637333Y-106310000D01*
X71582182Y-106128192D01*
X71448932Y-105878899D01*
X71269608Y-105660392D01*
X71051101Y-105481068D01*
X70918142Y-105410000D01*
X71051101Y-105338932D01*
X71269608Y-105159608D01*
X71448932Y-104941101D01*
X71582182Y-104691808D01*
X71637332Y-104510000D01*
X74661928Y-104510000D01*
X74665000Y-105124250D01*
X74823750Y-105283000D01*
X76073000Y-105283000D01*
X76073000Y-105263000D01*
X76327000Y-105263000D01*
X76327000Y-105283000D01*
X77576250Y-105283000D01*
X77735000Y-105124250D01*
X77738072Y-104510000D01*
X77725812Y-104385518D01*
X77689502Y-104265820D01*
X77630537Y-104155506D01*
X77551185Y-104058815D01*
X77454494Y-103979463D01*
X77344180Y-103920498D01*
X77325873Y-103914944D01*
X77392312Y-103848505D01*
X77560299Y-103597095D01*
X77676011Y-103317743D01*
X77735000Y-103021184D01*
X77735000Y-102718816D01*
X77676011Y-102422257D01*
X77560299Y-102142905D01*
X77392312Y-101891495D01*
X77178505Y-101677688D01*
X76927095Y-101509701D01*
X76647743Y-101393989D01*
X76351184Y-101335000D01*
X76048816Y-101335000D01*
X75752257Y-101393989D01*
X75472905Y-101509701D01*
X75221495Y-101677688D01*
X75007688Y-101891495D01*
X74839701Y-102142905D01*
X74723989Y-102422257D01*
X74665000Y-102718816D01*
X74665000Y-103021184D01*
X74723989Y-103317743D01*
X74839701Y-103597095D01*
X75007688Y-103848505D01*
X75074127Y-103914944D01*
X75055820Y-103920498D01*
X74945506Y-103979463D01*
X74848815Y-104058815D01*
X74769463Y-104155506D01*
X74710498Y-104265820D01*
X74674188Y-104385518D01*
X74661928Y-104510000D01*
X71637332Y-104510000D01*
X71664236Y-104421309D01*
X71691943Y-104140000D01*
X71664236Y-103858691D01*
X71582182Y-103588192D01*
X71448932Y-103338899D01*
X71269608Y-103120392D01*
X71051101Y-102941068D01*
X70918142Y-102870000D01*
X71051101Y-102798932D01*
X71269608Y-102619608D01*
X71448932Y-102401101D01*
X71582182Y-102151808D01*
X71664236Y-101881309D01*
X71691943Y-101600000D01*
X71664236Y-101318691D01*
X71582182Y-101048192D01*
X71448932Y-100798899D01*
X71269608Y-100580392D01*
X71051101Y-100401068D01*
X70918142Y-100330000D01*
X71051101Y-100258932D01*
X71269608Y-100079608D01*
X71448932Y-99861101D01*
X71582182Y-99611808D01*
X71664236Y-99341309D01*
X71691943Y-99060000D01*
X71664236Y-98778691D01*
X71582182Y-98508192D01*
X71448932Y-98258899D01*
X71269608Y-98040392D01*
X71051101Y-97861068D01*
X70801808Y-97727818D01*
X70531309Y-97645764D01*
X70320492Y-97625000D01*
X69379508Y-97625000D01*
X69168691Y-97645764D01*
X68898192Y-97727818D01*
X68648899Y-97861068D01*
X68430392Y-98040392D01*
X68251068Y-98258899D01*
X68117818Y-98508192D01*
X68035764Y-98778691D01*
X68008057Y-99060000D01*
X62083000Y-99060000D01*
X62083000Y-98933000D01*
X62103000Y-98933000D01*
X62103000Y-98913000D01*
X62357000Y-98913000D01*
X62357000Y-98933000D01*
X63906250Y-98933000D01*
X64065000Y-98774250D01*
X64068072Y-98260000D01*
X64055812Y-98135518D01*
X64019502Y-98015820D01*
X63960537Y-97905506D01*
X63881185Y-97808815D01*
X63784494Y-97729463D01*
X63674180Y-97670498D01*
X63554482Y-97634188D01*
X63430000Y-97621928D01*
X62925322Y-97623624D01*
X62864974Y-97510723D01*
X62770001Y-97394998D01*
X62654276Y-97300025D01*
X62522247Y-97229453D01*
X62378986Y-97185996D01*
X62267333Y-97174999D01*
X60807322Y-97174999D01*
X60769999Y-97171323D01*
X60732677Y-97174999D01*
X60732666Y-97174999D01*
X60621013Y-97185996D01*
X60477752Y-97229453D01*
X60345723Y-97300025D01*
X60229998Y-97394998D01*
X60206195Y-97424002D01*
X60193997Y-97436200D01*
X60164999Y-97459998D01*
X60141201Y-97488996D01*
X60141200Y-97488997D01*
X60070025Y-97575723D01*
X59999453Y-97707753D01*
X59955997Y-97851014D01*
X59941323Y-97999999D01*
X59945000Y-98037331D01*
X59944999Y-100082678D01*
X59941323Y-100120001D01*
X59944999Y-100157323D01*
X59944999Y-100157333D01*
X59955996Y-100268986D01*
X59996062Y-100401068D01*
X59999453Y-100412247D01*
X60070025Y-100544277D01*
X60099664Y-100580392D01*
X60164998Y-100660002D01*
X60194001Y-100683804D01*
X60351198Y-100841002D01*
X60374997Y-100870001D01*
X60490722Y-100964974D01*
X60530838Y-100986417D01*
X60497818Y-101048192D01*
X60415764Y-101318691D01*
X60388057Y-101600000D01*
X60415764Y-101881309D01*
X60497818Y-102151808D01*
X60631068Y-102401101D01*
X60810392Y-102619608D01*
X61028899Y-102798932D01*
X61161858Y-102870000D01*
X61028899Y-102941068D01*
X60810392Y-103120392D01*
X60631068Y-103338899D01*
X60497818Y-103588192D01*
X60431527Y-103806726D01*
X59180000Y-102555199D01*
X59180000Y-99763711D01*
X59223937Y-99719774D01*
X59337205Y-99550256D01*
X59415226Y-99361898D01*
X59455000Y-99161939D01*
X59455000Y-98958061D01*
X59415226Y-98758102D01*
X59337205Y-98569744D01*
X59223937Y-98400226D01*
X59079774Y-98256063D01*
X58910256Y-98142795D01*
X58721898Y-98064774D01*
X58521939Y-98025000D01*
X58318061Y-98025000D01*
X58118102Y-98064774D01*
X57929744Y-98142795D01*
X57760226Y-98256063D01*
X57616063Y-98400226D01*
X57502795Y-98569744D01*
X57424774Y-98758102D01*
X57385000Y-98958061D01*
X48387000Y-98958061D01*
X48387000Y-95039721D01*
X52475000Y-95039721D01*
X52475000Y-95460279D01*
X52557047Y-95872756D01*
X52717988Y-96261302D01*
X52951637Y-96610983D01*
X53249017Y-96908363D01*
X53598698Y-97142012D01*
X53987244Y-97302953D01*
X54399721Y-97385000D01*
X54820279Y-97385000D01*
X55232756Y-97302953D01*
X55621302Y-97142012D01*
X55970983Y-96908363D01*
X56268363Y-96610983D01*
X56502012Y-96261302D01*
X56662953Y-95872756D01*
X56745000Y-95460279D01*
X56745000Y-95039721D01*
X56662953Y-94627244D01*
X56502012Y-94238698D01*
X56268363Y-93889017D01*
X56218011Y-93838665D01*
X63335000Y-93838665D01*
X63335000Y-94121335D01*
X63390147Y-94398574D01*
X63498320Y-94659727D01*
X63655363Y-94894759D01*
X63855241Y-95094637D01*
X64090273Y-95251680D01*
X64351426Y-95359853D01*
X64628665Y-95415000D01*
X64911335Y-95415000D01*
X65188574Y-95359853D01*
X65449727Y-95251680D01*
X65684759Y-95094637D01*
X65884637Y-94894759D01*
X66041680Y-94659727D01*
X66149853Y-94398574D01*
X66205000Y-94121335D01*
X66205000Y-93838665D01*
X68415000Y-93838665D01*
X68415000Y-94121335D01*
X68470147Y-94398574D01*
X68578320Y-94659727D01*
X68735363Y-94894759D01*
X68935241Y-95094637D01*
X69170273Y-95251680D01*
X69431426Y-95359853D01*
X69708665Y-95415000D01*
X69991335Y-95415000D01*
X70268574Y-95359853D01*
X70529727Y-95251680D01*
X70764759Y-95094637D01*
X70964637Y-94894759D01*
X71121680Y-94659727D01*
X71229853Y-94398574D01*
X71285000Y-94121335D01*
X71285000Y-93838665D01*
X74765000Y-93838665D01*
X74765000Y-94121335D01*
X74820147Y-94398574D01*
X74928320Y-94659727D01*
X75085363Y-94894759D01*
X75285241Y-95094637D01*
X75520273Y-95251680D01*
X75781426Y-95359853D01*
X76058665Y-95415000D01*
X76341335Y-95415000D01*
X76618574Y-95359853D01*
X76879727Y-95251680D01*
X77114759Y-95094637D01*
X77314637Y-94894759D01*
X77471680Y-94659727D01*
X77579853Y-94398574D01*
X77635000Y-94121335D01*
X77635000Y-93838665D01*
X77579853Y-93561426D01*
X77471680Y-93300273D01*
X77314637Y-93065241D01*
X77114759Y-92865363D01*
X76879727Y-92708320D01*
X76618574Y-92600147D01*
X76341335Y-92545000D01*
X76058665Y-92545000D01*
X75781426Y-92600147D01*
X75520273Y-92708320D01*
X75285241Y-92865363D01*
X75085363Y-93065241D01*
X74928320Y-93300273D01*
X74820147Y-93561426D01*
X74765000Y-93838665D01*
X71285000Y-93838665D01*
X71229853Y-93561426D01*
X71121680Y-93300273D01*
X70964637Y-93065241D01*
X70764759Y-92865363D01*
X70529727Y-92708320D01*
X70268574Y-92600147D01*
X69991335Y-92545000D01*
X69708665Y-92545000D01*
X69431426Y-92600147D01*
X69170273Y-92708320D01*
X68935241Y-92865363D01*
X68735363Y-93065241D01*
X68578320Y-93300273D01*
X68470147Y-93561426D01*
X68415000Y-93838665D01*
X66205000Y-93838665D01*
X66149853Y-93561426D01*
X66041680Y-93300273D01*
X65884637Y-93065241D01*
X65684759Y-92865363D01*
X65449727Y-92708320D01*
X65188574Y-92600147D01*
X64911335Y-92545000D01*
X64628665Y-92545000D01*
X64351426Y-92600147D01*
X64090273Y-92708320D01*
X63855241Y-92865363D01*
X63655363Y-93065241D01*
X63498320Y-93300273D01*
X63390147Y-93561426D01*
X63335000Y-93838665D01*
X56218011Y-93838665D01*
X55970983Y-93591637D01*
X55621302Y-93357988D01*
X55232756Y-93197047D01*
X54820279Y-93115000D01*
X54399721Y-93115000D01*
X53987244Y-93197047D01*
X53598698Y-93357988D01*
X53249017Y-93591637D01*
X52951637Y-93889017D01*
X52717988Y-94238698D01*
X52557047Y-94627244D01*
X52475000Y-95039721D01*
X48387000Y-95039721D01*
X48387000Y-91670000D01*
X52471928Y-91670000D01*
X52484188Y-91794482D01*
X52520498Y-91914180D01*
X52579463Y-92024494D01*
X52658815Y-92121185D01*
X52755506Y-92200537D01*
X52865820Y-92259502D01*
X52985518Y-92295812D01*
X53110000Y-92308072D01*
X54324250Y-92305000D01*
X54483000Y-92146250D01*
X54483000Y-90297000D01*
X54737000Y-90297000D01*
X54737000Y-92146250D01*
X54895750Y-92305000D01*
X56110000Y-92308072D01*
X56234482Y-92295812D01*
X56354180Y-92259502D01*
X56464494Y-92200537D01*
X56561185Y-92121185D01*
X56640537Y-92024494D01*
X56699502Y-91914180D01*
X56735812Y-91794482D01*
X56748072Y-91670000D01*
X56745000Y-90455750D01*
X56586250Y-90297000D01*
X54737000Y-90297000D01*
X54483000Y-90297000D01*
X52633750Y-90297000D01*
X52475000Y-90455750D01*
X52471928Y-91670000D01*
X48387000Y-91670000D01*
X48387000Y-88670000D01*
X52471928Y-88670000D01*
X52475000Y-89884250D01*
X52633750Y-90043000D01*
X54483000Y-90043000D01*
X54483000Y-88193750D01*
X54737000Y-88193750D01*
X54737000Y-90043000D01*
X56586250Y-90043000D01*
X56745000Y-89884250D01*
X56747847Y-88758665D01*
X63335000Y-88758665D01*
X63335000Y-89041335D01*
X63390147Y-89318574D01*
X63498320Y-89579727D01*
X63655363Y-89814759D01*
X63855241Y-90014637D01*
X64090273Y-90171680D01*
X64351426Y-90279853D01*
X64628665Y-90335000D01*
X64911335Y-90335000D01*
X65188574Y-90279853D01*
X65449727Y-90171680D01*
X65684759Y-90014637D01*
X65884637Y-89814759D01*
X66041680Y-89579727D01*
X66149853Y-89318574D01*
X66205000Y-89041335D01*
X66205000Y-88758665D01*
X68415000Y-88758665D01*
X68415000Y-89041335D01*
X68470147Y-89318574D01*
X68578320Y-89579727D01*
X68735363Y-89814759D01*
X68935241Y-90014637D01*
X69170273Y-90171680D01*
X69431426Y-90279853D01*
X69708665Y-90335000D01*
X69991335Y-90335000D01*
X70268574Y-90279853D01*
X70529727Y-90171680D01*
X70764759Y-90014637D01*
X70964637Y-89814759D01*
X71121680Y-89579727D01*
X71229853Y-89318574D01*
X71285000Y-89041335D01*
X71285000Y-88758665D01*
X74765000Y-88758665D01*
X74765000Y-89041335D01*
X74820147Y-89318574D01*
X74928320Y-89579727D01*
X75085363Y-89814759D01*
X75285241Y-90014637D01*
X75520273Y-90171680D01*
X75781426Y-90279853D01*
X76058665Y-90335000D01*
X76341335Y-90335000D01*
X76618574Y-90279853D01*
X76879727Y-90171680D01*
X77114759Y-90014637D01*
X77314637Y-89814759D01*
X77471680Y-89579727D01*
X77579853Y-89318574D01*
X77635000Y-89041335D01*
X77635000Y-88758665D01*
X77579853Y-88481426D01*
X77471680Y-88220273D01*
X77314637Y-87985241D01*
X77114759Y-87785363D01*
X76879727Y-87628320D01*
X76618574Y-87520147D01*
X76341335Y-87465000D01*
X76058665Y-87465000D01*
X75781426Y-87520147D01*
X75520273Y-87628320D01*
X75285241Y-87785363D01*
X75085363Y-87985241D01*
X74928320Y-88220273D01*
X74820147Y-88481426D01*
X74765000Y-88758665D01*
X71285000Y-88758665D01*
X71229853Y-88481426D01*
X71121680Y-88220273D01*
X70964637Y-87985241D01*
X70764759Y-87785363D01*
X70529727Y-87628320D01*
X70268574Y-87520147D01*
X69991335Y-87465000D01*
X69708665Y-87465000D01*
X69431426Y-87520147D01*
X69170273Y-87628320D01*
X68935241Y-87785363D01*
X68735363Y-87985241D01*
X68578320Y-88220273D01*
X68470147Y-88481426D01*
X68415000Y-88758665D01*
X66205000Y-88758665D01*
X66149853Y-88481426D01*
X66041680Y-88220273D01*
X65884637Y-87985241D01*
X65684759Y-87785363D01*
X65449727Y-87628320D01*
X65188574Y-87520147D01*
X64911335Y-87465000D01*
X64628665Y-87465000D01*
X64351426Y-87520147D01*
X64090273Y-87628320D01*
X63855241Y-87785363D01*
X63655363Y-87985241D01*
X63498320Y-88220273D01*
X63390147Y-88481426D01*
X63335000Y-88758665D01*
X56747847Y-88758665D01*
X56748072Y-88670000D01*
X56735812Y-88545518D01*
X56699502Y-88425820D01*
X56640537Y-88315506D01*
X56561185Y-88218815D01*
X56464494Y-88139463D01*
X56354180Y-88080498D01*
X56234482Y-88044188D01*
X56110000Y-88031928D01*
X54895750Y-88035000D01*
X54737000Y-88193750D01*
X54483000Y-88193750D01*
X54324250Y-88035000D01*
X53110000Y-88031928D01*
X52985518Y-88044188D01*
X52865820Y-88080498D01*
X52755506Y-88139463D01*
X52658815Y-88218815D01*
X52579463Y-88315506D01*
X52520498Y-88425820D01*
X52484188Y-88545518D01*
X52471928Y-88670000D01*
X48387000Y-88670000D01*
X48387000Y-81059872D01*
X51105000Y-81059872D01*
X51105000Y-81500128D01*
X51190890Y-81931925D01*
X51359369Y-82338669D01*
X51603962Y-82704729D01*
X51915271Y-83016038D01*
X52281331Y-83260631D01*
X52688075Y-83429110D01*
X53119872Y-83515000D01*
X53560128Y-83515000D01*
X53991925Y-83429110D01*
X54398669Y-83260631D01*
X54764729Y-83016038D01*
X55076038Y-82704729D01*
X55320631Y-82338669D01*
X55489110Y-81931925D01*
X55575000Y-81500128D01*
X55575000Y-81059872D01*
X72695000Y-81059872D01*
X72695000Y-81500128D01*
X72780890Y-81931925D01*
X72949369Y-82338669D01*
X73193962Y-82704729D01*
X73505271Y-83016038D01*
X73871331Y-83260631D01*
X74278075Y-83429110D01*
X74709872Y-83515000D01*
X75150128Y-83515000D01*
X75581925Y-83429110D01*
X75988669Y-83260631D01*
X76354729Y-83016038D01*
X76666038Y-82704729D01*
X76910631Y-82338669D01*
X77079110Y-81931925D01*
X77165000Y-81500128D01*
X77165000Y-81059872D01*
X77079110Y-80628075D01*
X76910631Y-80221331D01*
X76666038Y-79855271D01*
X76354729Y-79543962D01*
X75988669Y-79299369D01*
X75581925Y-79130890D01*
X75150128Y-79045000D01*
X74709872Y-79045000D01*
X74278075Y-79130890D01*
X73871331Y-79299369D01*
X73505271Y-79543962D01*
X73193962Y-79855271D01*
X72949369Y-80221331D01*
X72780890Y-80628075D01*
X72695000Y-81059872D01*
X55575000Y-81059872D01*
X55489110Y-80628075D01*
X55320631Y-80221331D01*
X55076038Y-79855271D01*
X54764729Y-79543962D01*
X54398669Y-79299369D01*
X53991925Y-79130890D01*
X53560128Y-79045000D01*
X53119872Y-79045000D01*
X52688075Y-79130890D01*
X52281331Y-79299369D01*
X51915271Y-79543962D01*
X51603962Y-79855271D01*
X51359369Y-80221331D01*
X51190890Y-80628075D01*
X51105000Y-81059872D01*
X48387000Y-81059872D01*
X48387000Y-77597000D01*
X82423000Y-77597000D01*
X82423000Y-120523000D01*
G37*
%TD.AperFunction*%
%TD*%
M02*
