%TF.GenerationSoftware,KiCad,Pcbnew,5.1.9-73d0e3b20d~88~ubuntu20.04.1*%
%TF.CreationDate,2021-02-11T17:45:22+05:30*%
%TF.ProjectId,Design your own Circuit Boards using Kicad Part 1 (FREE software),44657369-676e-4207-996f-7572206f776e,rev?*%
%TF.SameCoordinates,Original*%
%TF.FileFunction,Legend,Top*%
%TF.FilePolarity,Positive*%
%FSLAX46Y46*%
G04 Gerber Fmt 4.6, Leading zero omitted, Abs format (unit mm)*
G04 Created by KiCad (PCBNEW 5.1.9-73d0e3b20d~88~ubuntu20.04.1) date 2021-02-11 17:45:22*
%MOMM*%
%LPD*%
G01*
G04 APERTURE LIST*
%ADD10C,0.150000*%
%ADD11C,0.010000*%
%ADD12C,0.120000*%
G04 APERTURE END LIST*
D10*
X64638586Y-119832380D02*
X64763586Y-118832380D01*
X65144538Y-118832380D01*
X65233824Y-118880000D01*
X65275491Y-118927619D01*
X65311205Y-119022857D01*
X65293348Y-119165714D01*
X65233824Y-119260952D01*
X65180252Y-119308571D01*
X65079062Y-119356190D01*
X64698110Y-119356190D01*
X65638586Y-119832380D02*
X65721919Y-119165714D01*
X65698110Y-119356190D02*
X65757633Y-119260952D01*
X65811205Y-119213333D01*
X65912395Y-119165714D01*
X66007633Y-119165714D01*
X66686205Y-119832380D02*
X66751681Y-119308571D01*
X66715967Y-119213333D01*
X66626681Y-119165714D01*
X66436205Y-119165714D01*
X66335014Y-119213333D01*
X66692157Y-119784761D02*
X66590967Y-119832380D01*
X66352872Y-119832380D01*
X66263586Y-119784761D01*
X66227872Y-119689523D01*
X66239776Y-119594285D01*
X66299300Y-119499047D01*
X66400491Y-119451428D01*
X66638586Y-119451428D01*
X66739776Y-119403809D01*
X67102872Y-119165714D02*
X67483824Y-119165714D01*
X67287395Y-118832380D02*
X67180252Y-119689523D01*
X67215967Y-119784761D01*
X67305252Y-119832380D01*
X67400491Y-119832380D01*
X68120729Y-119784761D02*
X68019538Y-119832380D01*
X67829062Y-119832380D01*
X67739776Y-119784761D01*
X67704062Y-119689523D01*
X67751681Y-119308571D01*
X67811205Y-119213333D01*
X67912395Y-119165714D01*
X68102872Y-119165714D01*
X68192157Y-119213333D01*
X68227872Y-119308571D01*
X68215967Y-119403809D01*
X67727872Y-119499047D01*
X68977872Y-119784761D02*
X68876681Y-119832380D01*
X68686205Y-119832380D01*
X68596919Y-119784761D01*
X68561205Y-119689523D01*
X68608824Y-119308571D01*
X68668348Y-119213333D01*
X68769538Y-119165714D01*
X68960014Y-119165714D01*
X69049300Y-119213333D01*
X69085014Y-119308571D01*
X69073110Y-119403809D01*
X68585014Y-119499047D01*
X69448110Y-119832380D02*
X69573110Y-118832380D01*
X69590967Y-119451428D02*
X69829062Y-119832380D01*
X69912395Y-119165714D02*
X69483824Y-119546666D01*
D11*
%TO.C,REF\u002A\u002A*%
G36*
X61823600Y-78769054D02*
G01*
X61834465Y-78882993D01*
X61866082Y-78990616D01*
X61916985Y-79089615D01*
X61985707Y-79177684D01*
X62070781Y-79252516D01*
X62167768Y-79310384D01*
X62274036Y-79350005D01*
X62381050Y-79368573D01*
X62486700Y-79367434D01*
X62588875Y-79347930D01*
X62685466Y-79311406D01*
X62774362Y-79259205D01*
X62853454Y-79192673D01*
X62920631Y-79113152D01*
X62973783Y-79021987D01*
X63010801Y-78920523D01*
X63029573Y-78810102D01*
X63031511Y-78760206D01*
X63031511Y-78672267D01*
X63083440Y-78672267D01*
X63119747Y-78675111D01*
X63146645Y-78686911D01*
X63173751Y-78710649D01*
X63212133Y-78749031D01*
X63212133Y-80940602D01*
X63212124Y-81202739D01*
X63212092Y-81443241D01*
X63212028Y-81663048D01*
X63211924Y-81863101D01*
X63211773Y-82044344D01*
X63211566Y-82207716D01*
X63211294Y-82354160D01*
X63210950Y-82484617D01*
X63210526Y-82600029D01*
X63210013Y-82701338D01*
X63209403Y-82789484D01*
X63208688Y-82865410D01*
X63207860Y-82930057D01*
X63206911Y-82984367D01*
X63205833Y-83029280D01*
X63204617Y-83065740D01*
X63203255Y-83094687D01*
X63201739Y-83117063D01*
X63200062Y-83133809D01*
X63198214Y-83145868D01*
X63196187Y-83154180D01*
X63193975Y-83159687D01*
X63192892Y-83161537D01*
X63188729Y-83168549D01*
X63185195Y-83174996D01*
X63181365Y-83180900D01*
X63176318Y-83186286D01*
X63169129Y-83191178D01*
X63158877Y-83195598D01*
X63144636Y-83199572D01*
X63125486Y-83203121D01*
X63100501Y-83206270D01*
X63068760Y-83209042D01*
X63029338Y-83211461D01*
X62981314Y-83213551D01*
X62923763Y-83215335D01*
X62855763Y-83216837D01*
X62776390Y-83218080D01*
X62684721Y-83219089D01*
X62579834Y-83219885D01*
X62460804Y-83220494D01*
X62326710Y-83220939D01*
X62176627Y-83221243D01*
X62009633Y-83221430D01*
X61824804Y-83221524D01*
X61621217Y-83221548D01*
X61397950Y-83221525D01*
X61154078Y-83221480D01*
X60888679Y-83221437D01*
X60850296Y-83221432D01*
X60583318Y-83221389D01*
X60337998Y-83221318D01*
X60113417Y-83221213D01*
X59908655Y-83221066D01*
X59722794Y-83220869D01*
X59554912Y-83220616D01*
X59404092Y-83220300D01*
X59269413Y-83219913D01*
X59149956Y-83219447D01*
X59044801Y-83218897D01*
X58953029Y-83218253D01*
X58873721Y-83217511D01*
X58805957Y-83216661D01*
X58748818Y-83215697D01*
X58701383Y-83214611D01*
X58662734Y-83213397D01*
X58631951Y-83212047D01*
X58608115Y-83210555D01*
X58590306Y-83208911D01*
X58577605Y-83207111D01*
X58569092Y-83205145D01*
X58564734Y-83203477D01*
X58556272Y-83199906D01*
X58548503Y-83197270D01*
X58541398Y-83194634D01*
X58534927Y-83191062D01*
X58529061Y-83185621D01*
X58523771Y-83177375D01*
X58519026Y-83165390D01*
X58514798Y-83148731D01*
X58511057Y-83126463D01*
X58507773Y-83097652D01*
X58504917Y-83061363D01*
X58502460Y-83016661D01*
X58500371Y-82962611D01*
X58498622Y-82898279D01*
X58497183Y-82822730D01*
X58496024Y-82735030D01*
X58495117Y-82634243D01*
X58494431Y-82519434D01*
X58493937Y-82389670D01*
X58493605Y-82244015D01*
X58493407Y-82081535D01*
X58493313Y-81901295D01*
X58493292Y-81702360D01*
X58493315Y-81483796D01*
X58493354Y-81244668D01*
X58493378Y-80984040D01*
X58493378Y-80941889D01*
X58493364Y-80678992D01*
X58493339Y-80437732D01*
X58493329Y-80217165D01*
X58493358Y-80016352D01*
X58493452Y-79834349D01*
X58493638Y-79670216D01*
X58493941Y-79523011D01*
X58494386Y-79391792D01*
X58494966Y-79281867D01*
X58797803Y-79281867D01*
X58837593Y-79339711D01*
X58848764Y-79355479D01*
X58858834Y-79369441D01*
X58867862Y-79382784D01*
X58875903Y-79396693D01*
X58883014Y-79412356D01*
X58889253Y-79430958D01*
X58894675Y-79453686D01*
X58899338Y-79481727D01*
X58903299Y-79516267D01*
X58906615Y-79558492D01*
X58909341Y-79609589D01*
X58911536Y-79670744D01*
X58913255Y-79743144D01*
X58914556Y-79827975D01*
X58915495Y-79926422D01*
X58916130Y-80039674D01*
X58916516Y-80168916D01*
X58916712Y-80315334D01*
X58916773Y-80480116D01*
X58916757Y-80664447D01*
X58916720Y-80869513D01*
X58916711Y-80992133D01*
X58916735Y-81209082D01*
X58916769Y-81404642D01*
X58916757Y-81579999D01*
X58916642Y-81736341D01*
X58916370Y-81874857D01*
X58915882Y-81996734D01*
X58915124Y-82103160D01*
X58914038Y-82195322D01*
X58912569Y-82274409D01*
X58910660Y-82341608D01*
X58908256Y-82398107D01*
X58905299Y-82445093D01*
X58901734Y-82483755D01*
X58897505Y-82515280D01*
X58892554Y-82540855D01*
X58886827Y-82561670D01*
X58880267Y-82578911D01*
X58872817Y-82593765D01*
X58864421Y-82607422D01*
X58855024Y-82621069D01*
X58844568Y-82635893D01*
X58838477Y-82644783D01*
X58799704Y-82702400D01*
X59331268Y-82702400D01*
X59454517Y-82702365D01*
X59557013Y-82702215D01*
X59640580Y-82701878D01*
X59707044Y-82701286D01*
X59758229Y-82700367D01*
X59795959Y-82699051D01*
X59822060Y-82697269D01*
X59838356Y-82694951D01*
X59846672Y-82692026D01*
X59848832Y-82688424D01*
X59846661Y-82684075D01*
X59845465Y-82682645D01*
X59820315Y-82645573D01*
X59794417Y-82592772D01*
X59770808Y-82530770D01*
X59762539Y-82504357D01*
X59757922Y-82486416D01*
X59754021Y-82465355D01*
X59750752Y-82439089D01*
X59748034Y-82405532D01*
X59745785Y-82362599D01*
X59743923Y-82308204D01*
X59742364Y-82240262D01*
X59741028Y-82156688D01*
X59739831Y-82055395D01*
X59738692Y-81934300D01*
X59738315Y-81889600D01*
X59737298Y-81764449D01*
X59736540Y-81660082D01*
X59736097Y-81574707D01*
X59736030Y-81506533D01*
X59736395Y-81453765D01*
X59737252Y-81414614D01*
X59738659Y-81387285D01*
X59740675Y-81369986D01*
X59743357Y-81360926D01*
X59746764Y-81358312D01*
X59750956Y-81360351D01*
X59755429Y-81364667D01*
X59765784Y-81377602D01*
X59787842Y-81406676D01*
X59820043Y-81449759D01*
X59860826Y-81504718D01*
X59908630Y-81569423D01*
X59961895Y-81641742D01*
X60019060Y-81719544D01*
X60078563Y-81800698D01*
X60138845Y-81883072D01*
X60198345Y-81964536D01*
X60255502Y-82042957D01*
X60308755Y-82116204D01*
X60356543Y-82182147D01*
X60397307Y-82238654D01*
X60429484Y-82283593D01*
X60451515Y-82314834D01*
X60456083Y-82321466D01*
X60479004Y-82358369D01*
X60505812Y-82406359D01*
X60531211Y-82455897D01*
X60534432Y-82462577D01*
X60556110Y-82510772D01*
X60568696Y-82548334D01*
X60574426Y-82584160D01*
X60575544Y-82626200D01*
X60574910Y-82702400D01*
X61729349Y-82702400D01*
X61638185Y-82608669D01*
X61591388Y-82558775D01*
X61541101Y-82502295D01*
X61495056Y-82448026D01*
X61474631Y-82422673D01*
X61444193Y-82383128D01*
X61404138Y-82329916D01*
X61355639Y-82264667D01*
X61299865Y-82189011D01*
X61237989Y-82104577D01*
X61171181Y-82012994D01*
X61100613Y-81915892D01*
X61027455Y-81814901D01*
X60952879Y-81711650D01*
X60878056Y-81607768D01*
X60804157Y-81504885D01*
X60732354Y-81404631D01*
X60663816Y-81308636D01*
X60599716Y-81218527D01*
X60541225Y-81135936D01*
X60489514Y-81062492D01*
X60445753Y-80999824D01*
X60411115Y-80949561D01*
X60386770Y-80913334D01*
X60373889Y-80892771D01*
X60372131Y-80888668D01*
X60380090Y-80877342D01*
X60400885Y-80850162D01*
X60433153Y-80808829D01*
X60475530Y-80755044D01*
X60526653Y-80690506D01*
X60585159Y-80616918D01*
X60649686Y-80535978D01*
X60718869Y-80449388D01*
X60791347Y-80358848D01*
X60865754Y-80266060D01*
X60925483Y-80191702D01*
X61936489Y-80191702D01*
X61942398Y-80204659D01*
X61956728Y-80226908D01*
X61957775Y-80228391D01*
X61976562Y-80258544D01*
X61996209Y-80295375D01*
X62000108Y-80303511D01*
X62003644Y-80311940D01*
X62006770Y-80322059D01*
X62009514Y-80335260D01*
X62011908Y-80352938D01*
X62013981Y-80376484D01*
X62015765Y-80407293D01*
X62017288Y-80446757D01*
X62018581Y-80496269D01*
X62019674Y-80557223D01*
X62020597Y-80631011D01*
X62021381Y-80719028D01*
X62022055Y-80822665D01*
X62022650Y-80943316D01*
X62023195Y-81082374D01*
X62023721Y-81241232D01*
X62024255Y-81420089D01*
X62024794Y-81605207D01*
X62025228Y-81769145D01*
X62025491Y-81913303D01*
X62025516Y-82039079D01*
X62025235Y-82147871D01*
X62024581Y-82241077D01*
X62023486Y-82320097D01*
X62021882Y-82386328D01*
X62019703Y-82441170D01*
X62016881Y-82486021D01*
X62013349Y-82522278D01*
X62009039Y-82551341D01*
X62003883Y-82574609D01*
X61997815Y-82593479D01*
X61990767Y-82609351D01*
X61982671Y-82623622D01*
X61973460Y-82637691D01*
X61964960Y-82650158D01*
X61947824Y-82676452D01*
X61937678Y-82694037D01*
X61936489Y-82697257D01*
X61947396Y-82698334D01*
X61978589Y-82699335D01*
X62027777Y-82700235D01*
X62092667Y-82701010D01*
X62170970Y-82701637D01*
X62260393Y-82702091D01*
X62358644Y-82702349D01*
X62427555Y-82702400D01*
X62532548Y-82702180D01*
X62629390Y-82701548D01*
X62715893Y-82700549D01*
X62789868Y-82699227D01*
X62849126Y-82697626D01*
X62891480Y-82695791D01*
X62914740Y-82693765D01*
X62918622Y-82692493D01*
X62910924Y-82677591D01*
X62902926Y-82669560D01*
X62889754Y-82652434D01*
X62872515Y-82622183D01*
X62860593Y-82597622D01*
X62833955Y-82538711D01*
X62830880Y-81361845D01*
X62827805Y-80184978D01*
X62382147Y-80184978D01*
X62284330Y-80185142D01*
X62193936Y-80185611D01*
X62113370Y-80186347D01*
X62045038Y-80187316D01*
X61991344Y-80188480D01*
X61954695Y-80189803D01*
X61937496Y-80191249D01*
X61936489Y-80191702D01*
X60925483Y-80191702D01*
X60940730Y-80172722D01*
X61014910Y-80080537D01*
X61086931Y-79991204D01*
X61155431Y-79906424D01*
X61219045Y-79827898D01*
X61276412Y-79757326D01*
X61326167Y-79696409D01*
X61366948Y-79646847D01*
X61384112Y-79626178D01*
X61470404Y-79525516D01*
X61547003Y-79442259D01*
X61615817Y-79374438D01*
X61678752Y-79320089D01*
X61688133Y-79312722D01*
X61727644Y-79282117D01*
X60595884Y-79281867D01*
X60601173Y-79329844D01*
X60597870Y-79387188D01*
X60576339Y-79455463D01*
X60536365Y-79535212D01*
X60491057Y-79607495D01*
X60474839Y-79630140D01*
X60446786Y-79667696D01*
X60408570Y-79718021D01*
X60361863Y-79778973D01*
X60308339Y-79848411D01*
X60249669Y-79924194D01*
X60187525Y-80004180D01*
X60123579Y-80086228D01*
X60059505Y-80168196D01*
X59996973Y-80247943D01*
X59937657Y-80323327D01*
X59883229Y-80392207D01*
X59835361Y-80452442D01*
X59795725Y-80501889D01*
X59765994Y-80538408D01*
X59747839Y-80559858D01*
X59744780Y-80563156D01*
X59741921Y-80555149D01*
X59739707Y-80524855D01*
X59738143Y-80472556D01*
X59737233Y-80398531D01*
X59736980Y-80303063D01*
X59737387Y-80186434D01*
X59738296Y-80066445D01*
X59739618Y-79934333D01*
X59741143Y-79822594D01*
X59743119Y-79729025D01*
X59745794Y-79651419D01*
X59749418Y-79587574D01*
X59754239Y-79535283D01*
X59760506Y-79492344D01*
X59768468Y-79456551D01*
X59778373Y-79425700D01*
X59790469Y-79397586D01*
X59805007Y-79370005D01*
X59819689Y-79344966D01*
X59857686Y-79281867D01*
X58797803Y-79281867D01*
X58494966Y-79281867D01*
X58494999Y-79275617D01*
X58495805Y-79173544D01*
X58496830Y-79084633D01*
X58498100Y-79007941D01*
X58499640Y-78942527D01*
X58501476Y-78887449D01*
X58503633Y-78841765D01*
X58506137Y-78804534D01*
X58509013Y-78774813D01*
X58512287Y-78751662D01*
X58515985Y-78734139D01*
X58520131Y-78721301D01*
X58524753Y-78712208D01*
X58529874Y-78705918D01*
X58535522Y-78701488D01*
X58541721Y-78697978D01*
X58548496Y-78694445D01*
X58554492Y-78690876D01*
X58559725Y-78688300D01*
X58567901Y-78685972D01*
X58580114Y-78683878D01*
X58597459Y-78682007D01*
X58621031Y-78680347D01*
X58651923Y-78678884D01*
X58691232Y-78677608D01*
X58740050Y-78676504D01*
X58799473Y-78675561D01*
X58870596Y-78674767D01*
X58954512Y-78674109D01*
X59052317Y-78673575D01*
X59165106Y-78673153D01*
X59293971Y-78672829D01*
X59440009Y-78672592D01*
X59604314Y-78672430D01*
X59787980Y-78672330D01*
X59992103Y-78672280D01*
X60203247Y-78672267D01*
X61823600Y-78672267D01*
X61823600Y-78769054D01*
G37*
X61823600Y-78769054D02*
X61834465Y-78882993D01*
X61866082Y-78990616D01*
X61916985Y-79089615D01*
X61985707Y-79177684D01*
X62070781Y-79252516D01*
X62167768Y-79310384D01*
X62274036Y-79350005D01*
X62381050Y-79368573D01*
X62486700Y-79367434D01*
X62588875Y-79347930D01*
X62685466Y-79311406D01*
X62774362Y-79259205D01*
X62853454Y-79192673D01*
X62920631Y-79113152D01*
X62973783Y-79021987D01*
X63010801Y-78920523D01*
X63029573Y-78810102D01*
X63031511Y-78760206D01*
X63031511Y-78672267D01*
X63083440Y-78672267D01*
X63119747Y-78675111D01*
X63146645Y-78686911D01*
X63173751Y-78710649D01*
X63212133Y-78749031D01*
X63212133Y-80940602D01*
X63212124Y-81202739D01*
X63212092Y-81443241D01*
X63212028Y-81663048D01*
X63211924Y-81863101D01*
X63211773Y-82044344D01*
X63211566Y-82207716D01*
X63211294Y-82354160D01*
X63210950Y-82484617D01*
X63210526Y-82600029D01*
X63210013Y-82701338D01*
X63209403Y-82789484D01*
X63208688Y-82865410D01*
X63207860Y-82930057D01*
X63206911Y-82984367D01*
X63205833Y-83029280D01*
X63204617Y-83065740D01*
X63203255Y-83094687D01*
X63201739Y-83117063D01*
X63200062Y-83133809D01*
X63198214Y-83145868D01*
X63196187Y-83154180D01*
X63193975Y-83159687D01*
X63192892Y-83161537D01*
X63188729Y-83168549D01*
X63185195Y-83174996D01*
X63181365Y-83180900D01*
X63176318Y-83186286D01*
X63169129Y-83191178D01*
X63158877Y-83195598D01*
X63144636Y-83199572D01*
X63125486Y-83203121D01*
X63100501Y-83206270D01*
X63068760Y-83209042D01*
X63029338Y-83211461D01*
X62981314Y-83213551D01*
X62923763Y-83215335D01*
X62855763Y-83216837D01*
X62776390Y-83218080D01*
X62684721Y-83219089D01*
X62579834Y-83219885D01*
X62460804Y-83220494D01*
X62326710Y-83220939D01*
X62176627Y-83221243D01*
X62009633Y-83221430D01*
X61824804Y-83221524D01*
X61621217Y-83221548D01*
X61397950Y-83221525D01*
X61154078Y-83221480D01*
X60888679Y-83221437D01*
X60850296Y-83221432D01*
X60583318Y-83221389D01*
X60337998Y-83221318D01*
X60113417Y-83221213D01*
X59908655Y-83221066D01*
X59722794Y-83220869D01*
X59554912Y-83220616D01*
X59404092Y-83220300D01*
X59269413Y-83219913D01*
X59149956Y-83219447D01*
X59044801Y-83218897D01*
X58953029Y-83218253D01*
X58873721Y-83217511D01*
X58805957Y-83216661D01*
X58748818Y-83215697D01*
X58701383Y-83214611D01*
X58662734Y-83213397D01*
X58631951Y-83212047D01*
X58608115Y-83210555D01*
X58590306Y-83208911D01*
X58577605Y-83207111D01*
X58569092Y-83205145D01*
X58564734Y-83203477D01*
X58556272Y-83199906D01*
X58548503Y-83197270D01*
X58541398Y-83194634D01*
X58534927Y-83191062D01*
X58529061Y-83185621D01*
X58523771Y-83177375D01*
X58519026Y-83165390D01*
X58514798Y-83148731D01*
X58511057Y-83126463D01*
X58507773Y-83097652D01*
X58504917Y-83061363D01*
X58502460Y-83016661D01*
X58500371Y-82962611D01*
X58498622Y-82898279D01*
X58497183Y-82822730D01*
X58496024Y-82735030D01*
X58495117Y-82634243D01*
X58494431Y-82519434D01*
X58493937Y-82389670D01*
X58493605Y-82244015D01*
X58493407Y-82081535D01*
X58493313Y-81901295D01*
X58493292Y-81702360D01*
X58493315Y-81483796D01*
X58493354Y-81244668D01*
X58493378Y-80984040D01*
X58493378Y-80941889D01*
X58493364Y-80678992D01*
X58493339Y-80437732D01*
X58493329Y-80217165D01*
X58493358Y-80016352D01*
X58493452Y-79834349D01*
X58493638Y-79670216D01*
X58493941Y-79523011D01*
X58494386Y-79391792D01*
X58494966Y-79281867D01*
X58797803Y-79281867D01*
X58837593Y-79339711D01*
X58848764Y-79355479D01*
X58858834Y-79369441D01*
X58867862Y-79382784D01*
X58875903Y-79396693D01*
X58883014Y-79412356D01*
X58889253Y-79430958D01*
X58894675Y-79453686D01*
X58899338Y-79481727D01*
X58903299Y-79516267D01*
X58906615Y-79558492D01*
X58909341Y-79609589D01*
X58911536Y-79670744D01*
X58913255Y-79743144D01*
X58914556Y-79827975D01*
X58915495Y-79926422D01*
X58916130Y-80039674D01*
X58916516Y-80168916D01*
X58916712Y-80315334D01*
X58916773Y-80480116D01*
X58916757Y-80664447D01*
X58916720Y-80869513D01*
X58916711Y-80992133D01*
X58916735Y-81209082D01*
X58916769Y-81404642D01*
X58916757Y-81579999D01*
X58916642Y-81736341D01*
X58916370Y-81874857D01*
X58915882Y-81996734D01*
X58915124Y-82103160D01*
X58914038Y-82195322D01*
X58912569Y-82274409D01*
X58910660Y-82341608D01*
X58908256Y-82398107D01*
X58905299Y-82445093D01*
X58901734Y-82483755D01*
X58897505Y-82515280D01*
X58892554Y-82540855D01*
X58886827Y-82561670D01*
X58880267Y-82578911D01*
X58872817Y-82593765D01*
X58864421Y-82607422D01*
X58855024Y-82621069D01*
X58844568Y-82635893D01*
X58838477Y-82644783D01*
X58799704Y-82702400D01*
X59331268Y-82702400D01*
X59454517Y-82702365D01*
X59557013Y-82702215D01*
X59640580Y-82701878D01*
X59707044Y-82701286D01*
X59758229Y-82700367D01*
X59795959Y-82699051D01*
X59822060Y-82697269D01*
X59838356Y-82694951D01*
X59846672Y-82692026D01*
X59848832Y-82688424D01*
X59846661Y-82684075D01*
X59845465Y-82682645D01*
X59820315Y-82645573D01*
X59794417Y-82592772D01*
X59770808Y-82530770D01*
X59762539Y-82504357D01*
X59757922Y-82486416D01*
X59754021Y-82465355D01*
X59750752Y-82439089D01*
X59748034Y-82405532D01*
X59745785Y-82362599D01*
X59743923Y-82308204D01*
X59742364Y-82240262D01*
X59741028Y-82156688D01*
X59739831Y-82055395D01*
X59738692Y-81934300D01*
X59738315Y-81889600D01*
X59737298Y-81764449D01*
X59736540Y-81660082D01*
X59736097Y-81574707D01*
X59736030Y-81506533D01*
X59736395Y-81453765D01*
X59737252Y-81414614D01*
X59738659Y-81387285D01*
X59740675Y-81369986D01*
X59743357Y-81360926D01*
X59746764Y-81358312D01*
X59750956Y-81360351D01*
X59755429Y-81364667D01*
X59765784Y-81377602D01*
X59787842Y-81406676D01*
X59820043Y-81449759D01*
X59860826Y-81504718D01*
X59908630Y-81569423D01*
X59961895Y-81641742D01*
X60019060Y-81719544D01*
X60078563Y-81800698D01*
X60138845Y-81883072D01*
X60198345Y-81964536D01*
X60255502Y-82042957D01*
X60308755Y-82116204D01*
X60356543Y-82182147D01*
X60397307Y-82238654D01*
X60429484Y-82283593D01*
X60451515Y-82314834D01*
X60456083Y-82321466D01*
X60479004Y-82358369D01*
X60505812Y-82406359D01*
X60531211Y-82455897D01*
X60534432Y-82462577D01*
X60556110Y-82510772D01*
X60568696Y-82548334D01*
X60574426Y-82584160D01*
X60575544Y-82626200D01*
X60574910Y-82702400D01*
X61729349Y-82702400D01*
X61638185Y-82608669D01*
X61591388Y-82558775D01*
X61541101Y-82502295D01*
X61495056Y-82448026D01*
X61474631Y-82422673D01*
X61444193Y-82383128D01*
X61404138Y-82329916D01*
X61355639Y-82264667D01*
X61299865Y-82189011D01*
X61237989Y-82104577D01*
X61171181Y-82012994D01*
X61100613Y-81915892D01*
X61027455Y-81814901D01*
X60952879Y-81711650D01*
X60878056Y-81607768D01*
X60804157Y-81504885D01*
X60732354Y-81404631D01*
X60663816Y-81308636D01*
X60599716Y-81218527D01*
X60541225Y-81135936D01*
X60489514Y-81062492D01*
X60445753Y-80999824D01*
X60411115Y-80949561D01*
X60386770Y-80913334D01*
X60373889Y-80892771D01*
X60372131Y-80888668D01*
X60380090Y-80877342D01*
X60400885Y-80850162D01*
X60433153Y-80808829D01*
X60475530Y-80755044D01*
X60526653Y-80690506D01*
X60585159Y-80616918D01*
X60649686Y-80535978D01*
X60718869Y-80449388D01*
X60791347Y-80358848D01*
X60865754Y-80266060D01*
X60925483Y-80191702D01*
X61936489Y-80191702D01*
X61942398Y-80204659D01*
X61956728Y-80226908D01*
X61957775Y-80228391D01*
X61976562Y-80258544D01*
X61996209Y-80295375D01*
X62000108Y-80303511D01*
X62003644Y-80311940D01*
X62006770Y-80322059D01*
X62009514Y-80335260D01*
X62011908Y-80352938D01*
X62013981Y-80376484D01*
X62015765Y-80407293D01*
X62017288Y-80446757D01*
X62018581Y-80496269D01*
X62019674Y-80557223D01*
X62020597Y-80631011D01*
X62021381Y-80719028D01*
X62022055Y-80822665D01*
X62022650Y-80943316D01*
X62023195Y-81082374D01*
X62023721Y-81241232D01*
X62024255Y-81420089D01*
X62024794Y-81605207D01*
X62025228Y-81769145D01*
X62025491Y-81913303D01*
X62025516Y-82039079D01*
X62025235Y-82147871D01*
X62024581Y-82241077D01*
X62023486Y-82320097D01*
X62021882Y-82386328D01*
X62019703Y-82441170D01*
X62016881Y-82486021D01*
X62013349Y-82522278D01*
X62009039Y-82551341D01*
X62003883Y-82574609D01*
X61997815Y-82593479D01*
X61990767Y-82609351D01*
X61982671Y-82623622D01*
X61973460Y-82637691D01*
X61964960Y-82650158D01*
X61947824Y-82676452D01*
X61937678Y-82694037D01*
X61936489Y-82697257D01*
X61947396Y-82698334D01*
X61978589Y-82699335D01*
X62027777Y-82700235D01*
X62092667Y-82701010D01*
X62170970Y-82701637D01*
X62260393Y-82702091D01*
X62358644Y-82702349D01*
X62427555Y-82702400D01*
X62532548Y-82702180D01*
X62629390Y-82701548D01*
X62715893Y-82700549D01*
X62789868Y-82699227D01*
X62849126Y-82697626D01*
X62891480Y-82695791D01*
X62914740Y-82693765D01*
X62918622Y-82692493D01*
X62910924Y-82677591D01*
X62902926Y-82669560D01*
X62889754Y-82652434D01*
X62872515Y-82622183D01*
X62860593Y-82597622D01*
X62833955Y-82538711D01*
X62830880Y-81361845D01*
X62827805Y-80184978D01*
X62382147Y-80184978D01*
X62284330Y-80185142D01*
X62193936Y-80185611D01*
X62113370Y-80186347D01*
X62045038Y-80187316D01*
X61991344Y-80188480D01*
X61954695Y-80189803D01*
X61937496Y-80191249D01*
X61936489Y-80191702D01*
X60925483Y-80191702D01*
X60940730Y-80172722D01*
X61014910Y-80080537D01*
X61086931Y-79991204D01*
X61155431Y-79906424D01*
X61219045Y-79827898D01*
X61276412Y-79757326D01*
X61326167Y-79696409D01*
X61366948Y-79646847D01*
X61384112Y-79626178D01*
X61470404Y-79525516D01*
X61547003Y-79442259D01*
X61615817Y-79374438D01*
X61678752Y-79320089D01*
X61688133Y-79312722D01*
X61727644Y-79282117D01*
X60595884Y-79281867D01*
X60601173Y-79329844D01*
X60597870Y-79387188D01*
X60576339Y-79455463D01*
X60536365Y-79535212D01*
X60491057Y-79607495D01*
X60474839Y-79630140D01*
X60446786Y-79667696D01*
X60408570Y-79718021D01*
X60361863Y-79778973D01*
X60308339Y-79848411D01*
X60249669Y-79924194D01*
X60187525Y-80004180D01*
X60123579Y-80086228D01*
X60059505Y-80168196D01*
X59996973Y-80247943D01*
X59937657Y-80323327D01*
X59883229Y-80392207D01*
X59835361Y-80452442D01*
X59795725Y-80501889D01*
X59765994Y-80538408D01*
X59747839Y-80559858D01*
X59744780Y-80563156D01*
X59741921Y-80555149D01*
X59739707Y-80524855D01*
X59738143Y-80472556D01*
X59737233Y-80398531D01*
X59736980Y-80303063D01*
X59737387Y-80186434D01*
X59738296Y-80066445D01*
X59739618Y-79934333D01*
X59741143Y-79822594D01*
X59743119Y-79729025D01*
X59745794Y-79651419D01*
X59749418Y-79587574D01*
X59754239Y-79535283D01*
X59760506Y-79492344D01*
X59768468Y-79456551D01*
X59778373Y-79425700D01*
X59790469Y-79397586D01*
X59805007Y-79370005D01*
X59819689Y-79344966D01*
X59857686Y-79281867D01*
X58797803Y-79281867D01*
X58494966Y-79281867D01*
X58494999Y-79275617D01*
X58495805Y-79173544D01*
X58496830Y-79084633D01*
X58498100Y-79007941D01*
X58499640Y-78942527D01*
X58501476Y-78887449D01*
X58503633Y-78841765D01*
X58506137Y-78804534D01*
X58509013Y-78774813D01*
X58512287Y-78751662D01*
X58515985Y-78734139D01*
X58520131Y-78721301D01*
X58524753Y-78712208D01*
X58529874Y-78705918D01*
X58535522Y-78701488D01*
X58541721Y-78697978D01*
X58548496Y-78694445D01*
X58554492Y-78690876D01*
X58559725Y-78688300D01*
X58567901Y-78685972D01*
X58580114Y-78683878D01*
X58597459Y-78682007D01*
X58621031Y-78680347D01*
X58651923Y-78678884D01*
X58691232Y-78677608D01*
X58740050Y-78676504D01*
X58799473Y-78675561D01*
X58870596Y-78674767D01*
X58954512Y-78674109D01*
X59052317Y-78673575D01*
X59165106Y-78673153D01*
X59293971Y-78672829D01*
X59440009Y-78672592D01*
X59604314Y-78672430D01*
X59787980Y-78672330D01*
X59992103Y-78672280D01*
X60203247Y-78672267D01*
X61823600Y-78672267D01*
X61823600Y-78769054D01*
G36*
X65098429Y-79229071D02*
G01*
X65258570Y-79250245D01*
X65422510Y-79290385D01*
X65592313Y-79349889D01*
X65770043Y-79429154D01*
X65781310Y-79434699D01*
X65839005Y-79462725D01*
X65890552Y-79486802D01*
X65932191Y-79505249D01*
X65960162Y-79516386D01*
X65969733Y-79518933D01*
X65988950Y-79523941D01*
X65993561Y-79528147D01*
X65988458Y-79538580D01*
X65972418Y-79564868D01*
X65947288Y-79604257D01*
X65914914Y-79653991D01*
X65877143Y-79711315D01*
X65835822Y-79773476D01*
X65792798Y-79837718D01*
X65749917Y-79901285D01*
X65709026Y-79961425D01*
X65671971Y-80015380D01*
X65640600Y-80060397D01*
X65616759Y-80093721D01*
X65602294Y-80112597D01*
X65600309Y-80114787D01*
X65590191Y-80110138D01*
X65567850Y-80092962D01*
X65537280Y-80066440D01*
X65521536Y-80051964D01*
X65425047Y-79976682D01*
X65318336Y-79921241D01*
X65202832Y-79886141D01*
X65079962Y-79871880D01*
X65010561Y-79873051D01*
X64889423Y-79890212D01*
X64780205Y-79926094D01*
X64682582Y-79980959D01*
X64596228Y-80055070D01*
X64520815Y-80148688D01*
X64456018Y-80262076D01*
X64418601Y-80348667D01*
X64374748Y-80484366D01*
X64342428Y-80631850D01*
X64321557Y-80787314D01*
X64312051Y-80946956D01*
X64313827Y-81106973D01*
X64326803Y-81263561D01*
X64350894Y-81412918D01*
X64386018Y-81551240D01*
X64432092Y-81674724D01*
X64448373Y-81708978D01*
X64516620Y-81823064D01*
X64597079Y-81919557D01*
X64688570Y-81997670D01*
X64789911Y-82056617D01*
X64899920Y-82095612D01*
X65017415Y-82113868D01*
X65058883Y-82115211D01*
X65180441Y-82104290D01*
X65300878Y-82071474D01*
X65418666Y-82017439D01*
X65532277Y-81942865D01*
X65623685Y-81864539D01*
X65670215Y-81820008D01*
X65851483Y-82117271D01*
X65896580Y-82191433D01*
X65937819Y-82259646D01*
X65973735Y-82319459D01*
X66002866Y-82368420D01*
X66023750Y-82404079D01*
X66034924Y-82423984D01*
X66036375Y-82427079D01*
X66028146Y-82436718D01*
X66002567Y-82453999D01*
X65962873Y-82477283D01*
X65912297Y-82504934D01*
X65854074Y-82535315D01*
X65791437Y-82566790D01*
X65727621Y-82597722D01*
X65665860Y-82626473D01*
X65609388Y-82651408D01*
X65561438Y-82670889D01*
X65537986Y-82679318D01*
X65404221Y-82717133D01*
X65266327Y-82742136D01*
X65118622Y-82755140D01*
X64991833Y-82757468D01*
X64923878Y-82756373D01*
X64858277Y-82754275D01*
X64800847Y-82751434D01*
X64757403Y-82748106D01*
X64743298Y-82746422D01*
X64604284Y-82717587D01*
X64462757Y-82672468D01*
X64325275Y-82613750D01*
X64198394Y-82544120D01*
X64120889Y-82491441D01*
X63993481Y-82383239D01*
X63875178Y-82256671D01*
X63768172Y-82114866D01*
X63674652Y-81960951D01*
X63596810Y-81798053D01*
X63552956Y-81680756D01*
X63502708Y-81497128D01*
X63469209Y-81302581D01*
X63452449Y-81101325D01*
X63452416Y-80897568D01*
X63469101Y-80695521D01*
X63502493Y-80499392D01*
X63552580Y-80313391D01*
X63556397Y-80301803D01*
X63619281Y-80139750D01*
X63696028Y-79991832D01*
X63789242Y-79853865D01*
X63901527Y-79721661D01*
X63945392Y-79676399D01*
X64081534Y-79552457D01*
X64221491Y-79449915D01*
X64367411Y-79367656D01*
X64521442Y-79304564D01*
X64685732Y-79259523D01*
X64781289Y-79242033D01*
X64940023Y-79226466D01*
X65098429Y-79229071D01*
G37*
X65098429Y-79229071D02*
X65258570Y-79250245D01*
X65422510Y-79290385D01*
X65592313Y-79349889D01*
X65770043Y-79429154D01*
X65781310Y-79434699D01*
X65839005Y-79462725D01*
X65890552Y-79486802D01*
X65932191Y-79505249D01*
X65960162Y-79516386D01*
X65969733Y-79518933D01*
X65988950Y-79523941D01*
X65993561Y-79528147D01*
X65988458Y-79538580D01*
X65972418Y-79564868D01*
X65947288Y-79604257D01*
X65914914Y-79653991D01*
X65877143Y-79711315D01*
X65835822Y-79773476D01*
X65792798Y-79837718D01*
X65749917Y-79901285D01*
X65709026Y-79961425D01*
X65671971Y-80015380D01*
X65640600Y-80060397D01*
X65616759Y-80093721D01*
X65602294Y-80112597D01*
X65600309Y-80114787D01*
X65590191Y-80110138D01*
X65567850Y-80092962D01*
X65537280Y-80066440D01*
X65521536Y-80051964D01*
X65425047Y-79976682D01*
X65318336Y-79921241D01*
X65202832Y-79886141D01*
X65079962Y-79871880D01*
X65010561Y-79873051D01*
X64889423Y-79890212D01*
X64780205Y-79926094D01*
X64682582Y-79980959D01*
X64596228Y-80055070D01*
X64520815Y-80148688D01*
X64456018Y-80262076D01*
X64418601Y-80348667D01*
X64374748Y-80484366D01*
X64342428Y-80631850D01*
X64321557Y-80787314D01*
X64312051Y-80946956D01*
X64313827Y-81106973D01*
X64326803Y-81263561D01*
X64350894Y-81412918D01*
X64386018Y-81551240D01*
X64432092Y-81674724D01*
X64448373Y-81708978D01*
X64516620Y-81823064D01*
X64597079Y-81919557D01*
X64688570Y-81997670D01*
X64789911Y-82056617D01*
X64899920Y-82095612D01*
X65017415Y-82113868D01*
X65058883Y-82115211D01*
X65180441Y-82104290D01*
X65300878Y-82071474D01*
X65418666Y-82017439D01*
X65532277Y-81942865D01*
X65623685Y-81864539D01*
X65670215Y-81820008D01*
X65851483Y-82117271D01*
X65896580Y-82191433D01*
X65937819Y-82259646D01*
X65973735Y-82319459D01*
X66002866Y-82368420D01*
X66023750Y-82404079D01*
X66034924Y-82423984D01*
X66036375Y-82427079D01*
X66028146Y-82436718D01*
X66002567Y-82453999D01*
X65962873Y-82477283D01*
X65912297Y-82504934D01*
X65854074Y-82535315D01*
X65791437Y-82566790D01*
X65727621Y-82597722D01*
X65665860Y-82626473D01*
X65609388Y-82651408D01*
X65561438Y-82670889D01*
X65537986Y-82679318D01*
X65404221Y-82717133D01*
X65266327Y-82742136D01*
X65118622Y-82755140D01*
X64991833Y-82757468D01*
X64923878Y-82756373D01*
X64858277Y-82754275D01*
X64800847Y-82751434D01*
X64757403Y-82748106D01*
X64743298Y-82746422D01*
X64604284Y-82717587D01*
X64462757Y-82672468D01*
X64325275Y-82613750D01*
X64198394Y-82544120D01*
X64120889Y-82491441D01*
X63993481Y-82383239D01*
X63875178Y-82256671D01*
X63768172Y-82114866D01*
X63674652Y-81960951D01*
X63596810Y-81798053D01*
X63552956Y-81680756D01*
X63502708Y-81497128D01*
X63469209Y-81302581D01*
X63452449Y-81101325D01*
X63452416Y-80897568D01*
X63469101Y-80695521D01*
X63502493Y-80499392D01*
X63552580Y-80313391D01*
X63556397Y-80301803D01*
X63619281Y-80139750D01*
X63696028Y-79991832D01*
X63789242Y-79853865D01*
X63901527Y-79721661D01*
X63945392Y-79676399D01*
X64081534Y-79552457D01*
X64221491Y-79449915D01*
X64367411Y-79367656D01*
X64521442Y-79304564D01*
X64685732Y-79259523D01*
X64781289Y-79242033D01*
X64940023Y-79226466D01*
X65098429Y-79229071D01*
G36*
X67443574Y-80146552D02*
G01*
X67595492Y-80166567D01*
X67730756Y-80200202D01*
X67850239Y-80247725D01*
X67954815Y-80309405D01*
X68032424Y-80372965D01*
X68101265Y-80447099D01*
X68155006Y-80526871D01*
X68197910Y-80619091D01*
X68213384Y-80662161D01*
X68226244Y-80701142D01*
X68237446Y-80737289D01*
X68247120Y-80772434D01*
X68255396Y-80808410D01*
X68262403Y-80847050D01*
X68268272Y-80890185D01*
X68273131Y-80939649D01*
X68277110Y-80997273D01*
X68280340Y-81064891D01*
X68282949Y-81144334D01*
X68285067Y-81237436D01*
X68286824Y-81346027D01*
X68288349Y-81471942D01*
X68289772Y-81617012D01*
X68291025Y-81759778D01*
X68292351Y-81915968D01*
X68293556Y-82051239D01*
X68294766Y-82167246D01*
X68296106Y-82265645D01*
X68297700Y-82348093D01*
X68299675Y-82416246D01*
X68302156Y-82471760D01*
X68305269Y-82516292D01*
X68309138Y-82551498D01*
X68313889Y-82579034D01*
X68319648Y-82600556D01*
X68326539Y-82617722D01*
X68334689Y-82632186D01*
X68344223Y-82645606D01*
X68355266Y-82659638D01*
X68359566Y-82665071D01*
X68375386Y-82687910D01*
X68382422Y-82703463D01*
X68382444Y-82703922D01*
X68371567Y-82706121D01*
X68340582Y-82708147D01*
X68291957Y-82709942D01*
X68228163Y-82711451D01*
X68151669Y-82712616D01*
X68064944Y-82713380D01*
X67970457Y-82713686D01*
X67959550Y-82713689D01*
X67536657Y-82713689D01*
X67533395Y-82617622D01*
X67530133Y-82521556D01*
X67468044Y-82572543D01*
X67370714Y-82640057D01*
X67260813Y-82694749D01*
X67174349Y-82724978D01*
X67105278Y-82739666D01*
X67021925Y-82749659D01*
X66932159Y-82754646D01*
X66843845Y-82754313D01*
X66764851Y-82748351D01*
X66728622Y-82742638D01*
X66588603Y-82704776D01*
X66462178Y-82649932D01*
X66350260Y-82578924D01*
X66253762Y-82492568D01*
X66173600Y-82391679D01*
X66110687Y-82277076D01*
X66066312Y-82150984D01*
X66053978Y-82094401D01*
X66046368Y-82032202D01*
X66042739Y-81957363D01*
X66042245Y-81923467D01*
X66042310Y-81920282D01*
X66802248Y-81920282D01*
X66811541Y-81995333D01*
X66839728Y-82059160D01*
X66888197Y-82114798D01*
X66893254Y-82119211D01*
X66941548Y-82154037D01*
X66993257Y-82176620D01*
X67053989Y-82188540D01*
X67129352Y-82191383D01*
X67147459Y-82190978D01*
X67201278Y-82188325D01*
X67241308Y-82182909D01*
X67276324Y-82172745D01*
X67315103Y-82155850D01*
X67325745Y-82150672D01*
X67386396Y-82114844D01*
X67433215Y-82072212D01*
X67445952Y-82056973D01*
X67490622Y-82000462D01*
X67490622Y-81804586D01*
X67490086Y-81725939D01*
X67488396Y-81667988D01*
X67485428Y-81628875D01*
X67481057Y-81606741D01*
X67476972Y-81600274D01*
X67461047Y-81597111D01*
X67427264Y-81594488D01*
X67380340Y-81592655D01*
X67324993Y-81591857D01*
X67316106Y-81591842D01*
X67195330Y-81597096D01*
X67092660Y-81613263D01*
X67006106Y-81640961D01*
X66933681Y-81680808D01*
X66878751Y-81727758D01*
X66834204Y-81785645D01*
X66809480Y-81848693D01*
X66802248Y-81920282D01*
X66042310Y-81920282D01*
X66044178Y-81829712D01*
X66052522Y-81750812D01*
X66068768Y-81679590D01*
X66094405Y-81608864D01*
X66118401Y-81556493D01*
X66177020Y-81461196D01*
X66255117Y-81373170D01*
X66350315Y-81294017D01*
X66460238Y-81225340D01*
X66582510Y-81168741D01*
X66714755Y-81125821D01*
X66779422Y-81110882D01*
X66915604Y-81088777D01*
X67064049Y-81074194D01*
X67215505Y-81067813D01*
X67342064Y-81069445D01*
X67503950Y-81076224D01*
X67496530Y-81017245D01*
X67477238Y-80918092D01*
X67446104Y-80837372D01*
X67402269Y-80774466D01*
X67344871Y-80728756D01*
X67273048Y-80699622D01*
X67185941Y-80686447D01*
X67082686Y-80688611D01*
X67044711Y-80692612D01*
X66903520Y-80717780D01*
X66766707Y-80758814D01*
X66672178Y-80796815D01*
X66627018Y-80816190D01*
X66588585Y-80831760D01*
X66562234Y-80841405D01*
X66554546Y-80843452D01*
X66544802Y-80834374D01*
X66528083Y-80805405D01*
X66504232Y-80756217D01*
X66473093Y-80686484D01*
X66434507Y-80595879D01*
X66427910Y-80580089D01*
X66397853Y-80507772D01*
X66370874Y-80442425D01*
X66348136Y-80386906D01*
X66330806Y-80344072D01*
X66320048Y-80316781D01*
X66316941Y-80307942D01*
X66326940Y-80303187D01*
X66353217Y-80297910D01*
X66381489Y-80294231D01*
X66411646Y-80289474D01*
X66459433Y-80280028D01*
X66520612Y-80266820D01*
X66590946Y-80250776D01*
X66666194Y-80232820D01*
X66694755Y-80225797D01*
X66799816Y-80200209D01*
X66887480Y-80180147D01*
X66962068Y-80164969D01*
X67027903Y-80154035D01*
X67089307Y-80146704D01*
X67150602Y-80142335D01*
X67216110Y-80140287D01*
X67274128Y-80139889D01*
X67443574Y-80146552D01*
G37*
X67443574Y-80146552D02*
X67595492Y-80166567D01*
X67730756Y-80200202D01*
X67850239Y-80247725D01*
X67954815Y-80309405D01*
X68032424Y-80372965D01*
X68101265Y-80447099D01*
X68155006Y-80526871D01*
X68197910Y-80619091D01*
X68213384Y-80662161D01*
X68226244Y-80701142D01*
X68237446Y-80737289D01*
X68247120Y-80772434D01*
X68255396Y-80808410D01*
X68262403Y-80847050D01*
X68268272Y-80890185D01*
X68273131Y-80939649D01*
X68277110Y-80997273D01*
X68280340Y-81064891D01*
X68282949Y-81144334D01*
X68285067Y-81237436D01*
X68286824Y-81346027D01*
X68288349Y-81471942D01*
X68289772Y-81617012D01*
X68291025Y-81759778D01*
X68292351Y-81915968D01*
X68293556Y-82051239D01*
X68294766Y-82167246D01*
X68296106Y-82265645D01*
X68297700Y-82348093D01*
X68299675Y-82416246D01*
X68302156Y-82471760D01*
X68305269Y-82516292D01*
X68309138Y-82551498D01*
X68313889Y-82579034D01*
X68319648Y-82600556D01*
X68326539Y-82617722D01*
X68334689Y-82632186D01*
X68344223Y-82645606D01*
X68355266Y-82659638D01*
X68359566Y-82665071D01*
X68375386Y-82687910D01*
X68382422Y-82703463D01*
X68382444Y-82703922D01*
X68371567Y-82706121D01*
X68340582Y-82708147D01*
X68291957Y-82709942D01*
X68228163Y-82711451D01*
X68151669Y-82712616D01*
X68064944Y-82713380D01*
X67970457Y-82713686D01*
X67959550Y-82713689D01*
X67536657Y-82713689D01*
X67533395Y-82617622D01*
X67530133Y-82521556D01*
X67468044Y-82572543D01*
X67370714Y-82640057D01*
X67260813Y-82694749D01*
X67174349Y-82724978D01*
X67105278Y-82739666D01*
X67021925Y-82749659D01*
X66932159Y-82754646D01*
X66843845Y-82754313D01*
X66764851Y-82748351D01*
X66728622Y-82742638D01*
X66588603Y-82704776D01*
X66462178Y-82649932D01*
X66350260Y-82578924D01*
X66253762Y-82492568D01*
X66173600Y-82391679D01*
X66110687Y-82277076D01*
X66066312Y-82150984D01*
X66053978Y-82094401D01*
X66046368Y-82032202D01*
X66042739Y-81957363D01*
X66042245Y-81923467D01*
X66042310Y-81920282D01*
X66802248Y-81920282D01*
X66811541Y-81995333D01*
X66839728Y-82059160D01*
X66888197Y-82114798D01*
X66893254Y-82119211D01*
X66941548Y-82154037D01*
X66993257Y-82176620D01*
X67053989Y-82188540D01*
X67129352Y-82191383D01*
X67147459Y-82190978D01*
X67201278Y-82188325D01*
X67241308Y-82182909D01*
X67276324Y-82172745D01*
X67315103Y-82155850D01*
X67325745Y-82150672D01*
X67386396Y-82114844D01*
X67433215Y-82072212D01*
X67445952Y-82056973D01*
X67490622Y-82000462D01*
X67490622Y-81804586D01*
X67490086Y-81725939D01*
X67488396Y-81667988D01*
X67485428Y-81628875D01*
X67481057Y-81606741D01*
X67476972Y-81600274D01*
X67461047Y-81597111D01*
X67427264Y-81594488D01*
X67380340Y-81592655D01*
X67324993Y-81591857D01*
X67316106Y-81591842D01*
X67195330Y-81597096D01*
X67092660Y-81613263D01*
X67006106Y-81640961D01*
X66933681Y-81680808D01*
X66878751Y-81727758D01*
X66834204Y-81785645D01*
X66809480Y-81848693D01*
X66802248Y-81920282D01*
X66042310Y-81920282D01*
X66044178Y-81829712D01*
X66052522Y-81750812D01*
X66068768Y-81679590D01*
X66094405Y-81608864D01*
X66118401Y-81556493D01*
X66177020Y-81461196D01*
X66255117Y-81373170D01*
X66350315Y-81294017D01*
X66460238Y-81225340D01*
X66582510Y-81168741D01*
X66714755Y-81125821D01*
X66779422Y-81110882D01*
X66915604Y-81088777D01*
X67064049Y-81074194D01*
X67215505Y-81067813D01*
X67342064Y-81069445D01*
X67503950Y-81076224D01*
X67496530Y-81017245D01*
X67477238Y-80918092D01*
X67446104Y-80837372D01*
X67402269Y-80774466D01*
X67344871Y-80728756D01*
X67273048Y-80699622D01*
X67185941Y-80686447D01*
X67082686Y-80688611D01*
X67044711Y-80692612D01*
X66903520Y-80717780D01*
X66766707Y-80758814D01*
X66672178Y-80796815D01*
X66627018Y-80816190D01*
X66588585Y-80831760D01*
X66562234Y-80841405D01*
X66554546Y-80843452D01*
X66544802Y-80834374D01*
X66528083Y-80805405D01*
X66504232Y-80756217D01*
X66473093Y-80686484D01*
X66434507Y-80595879D01*
X66427910Y-80580089D01*
X66397853Y-80507772D01*
X66370874Y-80442425D01*
X66348136Y-80386906D01*
X66330806Y-80344072D01*
X66320048Y-80316781D01*
X66316941Y-80307942D01*
X66326940Y-80303187D01*
X66353217Y-80297910D01*
X66381489Y-80294231D01*
X66411646Y-80289474D01*
X66459433Y-80280028D01*
X66520612Y-80266820D01*
X66590946Y-80250776D01*
X66666194Y-80232820D01*
X66694755Y-80225797D01*
X66799816Y-80200209D01*
X66887480Y-80180147D01*
X66962068Y-80164969D01*
X67027903Y-80154035D01*
X67089307Y-80146704D01*
X67150602Y-80142335D01*
X67216110Y-80140287D01*
X67274128Y-80139889D01*
X67443574Y-80146552D01*
G36*
X70956507Y-80752245D02*
G01*
X70956526Y-80986662D01*
X70956552Y-81199603D01*
X70956625Y-81392168D01*
X70956782Y-81565459D01*
X70957064Y-81720576D01*
X70957509Y-81858620D01*
X70958156Y-81980692D01*
X70959045Y-82087894D01*
X70960213Y-82181326D01*
X70961701Y-82262090D01*
X70963546Y-82331286D01*
X70965789Y-82390015D01*
X70968469Y-82439379D01*
X70971623Y-82480478D01*
X70975292Y-82514413D01*
X70979513Y-82542286D01*
X70984327Y-82565198D01*
X70989773Y-82584249D01*
X70995888Y-82600540D01*
X71002712Y-82615173D01*
X71010285Y-82629249D01*
X71018645Y-82643868D01*
X71023839Y-82652974D01*
X71058104Y-82713689D01*
X70199955Y-82713689D01*
X70199955Y-82617733D01*
X70199224Y-82574370D01*
X70197272Y-82541205D01*
X70194463Y-82523424D01*
X70193221Y-82521778D01*
X70181799Y-82528662D01*
X70159084Y-82546505D01*
X70136385Y-82565879D01*
X70081800Y-82606614D01*
X70012321Y-82647617D01*
X69935270Y-82685123D01*
X69857965Y-82715364D01*
X69827113Y-82725012D01*
X69758616Y-82739578D01*
X69675764Y-82749539D01*
X69586371Y-82754583D01*
X69498248Y-82754396D01*
X69419207Y-82748666D01*
X69381511Y-82742858D01*
X69243414Y-82704797D01*
X69116113Y-82647073D01*
X69000292Y-82570211D01*
X68896637Y-82474739D01*
X68805833Y-82361179D01*
X68739031Y-82250381D01*
X68684164Y-82133625D01*
X68642163Y-82014276D01*
X68612167Y-81888283D01*
X68593311Y-81751594D01*
X68584732Y-81600158D01*
X68584006Y-81522711D01*
X68586100Y-81465934D01*
X69415217Y-81465934D01*
X69415424Y-81559002D01*
X69418337Y-81646692D01*
X69424000Y-81723772D01*
X69432455Y-81785009D01*
X69435038Y-81797350D01*
X69466840Y-81904633D01*
X69508498Y-81991658D01*
X69560363Y-82058642D01*
X69622781Y-82105805D01*
X69696100Y-82133365D01*
X69780669Y-82141541D01*
X69876835Y-82130551D01*
X69940311Y-82114829D01*
X69989454Y-82096639D01*
X70043583Y-82070791D01*
X70084244Y-82047089D01*
X70154800Y-82000721D01*
X70154800Y-80850530D01*
X70087392Y-80806962D01*
X70008867Y-80766040D01*
X69924681Y-80739389D01*
X69839557Y-80727465D01*
X69758216Y-80730722D01*
X69685380Y-80749615D01*
X69653426Y-80765184D01*
X69595501Y-80808181D01*
X69546544Y-80864953D01*
X69505390Y-80937575D01*
X69470874Y-81028121D01*
X69441833Y-81138666D01*
X69440552Y-81144533D01*
X69430381Y-81206788D01*
X69422739Y-81284594D01*
X69417670Y-81372720D01*
X69415217Y-81465934D01*
X68586100Y-81465934D01*
X68591857Y-81309895D01*
X68613802Y-81114059D01*
X68649786Y-80935332D01*
X68699759Y-80773845D01*
X68763668Y-80629726D01*
X68841462Y-80503106D01*
X68933089Y-80394115D01*
X69038497Y-80302883D01*
X69083662Y-80271932D01*
X69184611Y-80215785D01*
X69287901Y-80176174D01*
X69397989Y-80152014D01*
X69519330Y-80142219D01*
X69611836Y-80143265D01*
X69741490Y-80154231D01*
X69854084Y-80176046D01*
X69952875Y-80209714D01*
X70041121Y-80256236D01*
X70089986Y-80290448D01*
X70119353Y-80312362D01*
X70141043Y-80327333D01*
X70149253Y-80331733D01*
X70150868Y-80320904D01*
X70152159Y-80290251D01*
X70153138Y-80242526D01*
X70153817Y-80180479D01*
X70154210Y-80106862D01*
X70154330Y-80024427D01*
X70154188Y-79935925D01*
X70153797Y-79844107D01*
X70153171Y-79751724D01*
X70152320Y-79661528D01*
X70151260Y-79576271D01*
X70150001Y-79498703D01*
X70148556Y-79431576D01*
X70146938Y-79377641D01*
X70145161Y-79339650D01*
X70144669Y-79332667D01*
X70137092Y-79262251D01*
X70125531Y-79207102D01*
X70107792Y-79159981D01*
X70081682Y-79113647D01*
X70075415Y-79104067D01*
X70050983Y-79067378D01*
X70956311Y-79067378D01*
X70956507Y-80752245D01*
G37*
X70956507Y-80752245D02*
X70956526Y-80986662D01*
X70956552Y-81199603D01*
X70956625Y-81392168D01*
X70956782Y-81565459D01*
X70957064Y-81720576D01*
X70957509Y-81858620D01*
X70958156Y-81980692D01*
X70959045Y-82087894D01*
X70960213Y-82181326D01*
X70961701Y-82262090D01*
X70963546Y-82331286D01*
X70965789Y-82390015D01*
X70968469Y-82439379D01*
X70971623Y-82480478D01*
X70975292Y-82514413D01*
X70979513Y-82542286D01*
X70984327Y-82565198D01*
X70989773Y-82584249D01*
X70995888Y-82600540D01*
X71002712Y-82615173D01*
X71010285Y-82629249D01*
X71018645Y-82643868D01*
X71023839Y-82652974D01*
X71058104Y-82713689D01*
X70199955Y-82713689D01*
X70199955Y-82617733D01*
X70199224Y-82574370D01*
X70197272Y-82541205D01*
X70194463Y-82523424D01*
X70193221Y-82521778D01*
X70181799Y-82528662D01*
X70159084Y-82546505D01*
X70136385Y-82565879D01*
X70081800Y-82606614D01*
X70012321Y-82647617D01*
X69935270Y-82685123D01*
X69857965Y-82715364D01*
X69827113Y-82725012D01*
X69758616Y-82739578D01*
X69675764Y-82749539D01*
X69586371Y-82754583D01*
X69498248Y-82754396D01*
X69419207Y-82748666D01*
X69381511Y-82742858D01*
X69243414Y-82704797D01*
X69116113Y-82647073D01*
X69000292Y-82570211D01*
X68896637Y-82474739D01*
X68805833Y-82361179D01*
X68739031Y-82250381D01*
X68684164Y-82133625D01*
X68642163Y-82014276D01*
X68612167Y-81888283D01*
X68593311Y-81751594D01*
X68584732Y-81600158D01*
X68584006Y-81522711D01*
X68586100Y-81465934D01*
X69415217Y-81465934D01*
X69415424Y-81559002D01*
X69418337Y-81646692D01*
X69424000Y-81723772D01*
X69432455Y-81785009D01*
X69435038Y-81797350D01*
X69466840Y-81904633D01*
X69508498Y-81991658D01*
X69560363Y-82058642D01*
X69622781Y-82105805D01*
X69696100Y-82133365D01*
X69780669Y-82141541D01*
X69876835Y-82130551D01*
X69940311Y-82114829D01*
X69989454Y-82096639D01*
X70043583Y-82070791D01*
X70084244Y-82047089D01*
X70154800Y-82000721D01*
X70154800Y-80850530D01*
X70087392Y-80806962D01*
X70008867Y-80766040D01*
X69924681Y-80739389D01*
X69839557Y-80727465D01*
X69758216Y-80730722D01*
X69685380Y-80749615D01*
X69653426Y-80765184D01*
X69595501Y-80808181D01*
X69546544Y-80864953D01*
X69505390Y-80937575D01*
X69470874Y-81028121D01*
X69441833Y-81138666D01*
X69440552Y-81144533D01*
X69430381Y-81206788D01*
X69422739Y-81284594D01*
X69417670Y-81372720D01*
X69415217Y-81465934D01*
X68586100Y-81465934D01*
X68591857Y-81309895D01*
X68613802Y-81114059D01*
X68649786Y-80935332D01*
X68699759Y-80773845D01*
X68763668Y-80629726D01*
X68841462Y-80503106D01*
X68933089Y-80394115D01*
X69038497Y-80302883D01*
X69083662Y-80271932D01*
X69184611Y-80215785D01*
X69287901Y-80176174D01*
X69397989Y-80152014D01*
X69519330Y-80142219D01*
X69611836Y-80143265D01*
X69741490Y-80154231D01*
X69854084Y-80176046D01*
X69952875Y-80209714D01*
X70041121Y-80256236D01*
X70089986Y-80290448D01*
X70119353Y-80312362D01*
X70141043Y-80327333D01*
X70149253Y-80331733D01*
X70150868Y-80320904D01*
X70152159Y-80290251D01*
X70153138Y-80242526D01*
X70153817Y-80180479D01*
X70154210Y-80106862D01*
X70154330Y-80024427D01*
X70154188Y-79935925D01*
X70153797Y-79844107D01*
X70153171Y-79751724D01*
X70152320Y-79661528D01*
X70151260Y-79576271D01*
X70150001Y-79498703D01*
X70148556Y-79431576D01*
X70146938Y-79377641D01*
X70145161Y-79339650D01*
X70144669Y-79332667D01*
X70137092Y-79262251D01*
X70125531Y-79207102D01*
X70107792Y-79159981D01*
X70081682Y-79113647D01*
X70075415Y-79104067D01*
X70050983Y-79067378D01*
X70956311Y-79067378D01*
X70956507Y-80752245D01*
G36*
X62496957Y-78306571D02*
G01*
X62593232Y-78330809D01*
X62679816Y-78373641D01*
X62754627Y-78433419D01*
X62815582Y-78508494D01*
X62860601Y-78597220D01*
X62886864Y-78693530D01*
X62892714Y-78790795D01*
X62877860Y-78884654D01*
X62844160Y-78972511D01*
X62793472Y-79051770D01*
X62727655Y-79119836D01*
X62648566Y-79174112D01*
X62558066Y-79212002D01*
X62506800Y-79224426D01*
X62462302Y-79231947D01*
X62428001Y-79234919D01*
X62395040Y-79233094D01*
X62354566Y-79226225D01*
X62321469Y-79219250D01*
X62228053Y-79187741D01*
X62144381Y-79136617D01*
X62072335Y-79067429D01*
X62013800Y-78981728D01*
X61999852Y-78954489D01*
X61983414Y-78918122D01*
X61973106Y-78887582D01*
X61967540Y-78855450D01*
X61965331Y-78814307D01*
X61965052Y-78768222D01*
X61969139Y-78683865D01*
X61982554Y-78614586D01*
X62007744Y-78553961D01*
X62047154Y-78495567D01*
X62085702Y-78451302D01*
X62157594Y-78385484D01*
X62232687Y-78340053D01*
X62315438Y-78312850D01*
X62393072Y-78302576D01*
X62496957Y-78306571D01*
G37*
X62496957Y-78306571D02*
X62593232Y-78330809D01*
X62679816Y-78373641D01*
X62754627Y-78433419D01*
X62815582Y-78508494D01*
X62860601Y-78597220D01*
X62886864Y-78693530D01*
X62892714Y-78790795D01*
X62877860Y-78884654D01*
X62844160Y-78972511D01*
X62793472Y-79051770D01*
X62727655Y-79119836D01*
X62648566Y-79174112D01*
X62558066Y-79212002D01*
X62506800Y-79224426D01*
X62462302Y-79231947D01*
X62428001Y-79234919D01*
X62395040Y-79233094D01*
X62354566Y-79226225D01*
X62321469Y-79219250D01*
X62228053Y-79187741D01*
X62144381Y-79136617D01*
X62072335Y-79067429D01*
X62013800Y-78981728D01*
X61999852Y-78954489D01*
X61983414Y-78918122D01*
X61973106Y-78887582D01*
X61967540Y-78855450D01*
X61965331Y-78814307D01*
X61965052Y-78768222D01*
X61969139Y-78683865D01*
X61982554Y-78614586D01*
X62007744Y-78553961D01*
X62047154Y-78495567D01*
X62085702Y-78451302D01*
X62157594Y-78385484D01*
X62232687Y-78340053D01*
X62315438Y-78312850D01*
X62393072Y-78302576D01*
X62496957Y-78306571D01*
G36*
X58648629Y-83549066D02*
G01*
X58688111Y-83549467D01*
X58803800Y-83552259D01*
X58900689Y-83560550D01*
X58982081Y-83575232D01*
X59051277Y-83597193D01*
X59111580Y-83627322D01*
X59166292Y-83666510D01*
X59185833Y-83683532D01*
X59218250Y-83723363D01*
X59247480Y-83777413D01*
X59270009Y-83837323D01*
X59282321Y-83894739D01*
X59283600Y-83915956D01*
X59275583Y-83974769D01*
X59254101Y-84039013D01*
X59223001Y-84099821D01*
X59186134Y-84148330D01*
X59180146Y-84154182D01*
X59129421Y-84195321D01*
X59073875Y-84227435D01*
X59010304Y-84251365D01*
X58935506Y-84267953D01*
X58846278Y-84278041D01*
X58739418Y-84282469D01*
X58690472Y-84282845D01*
X58628238Y-84282545D01*
X58584472Y-84281292D01*
X58555069Y-84278554D01*
X58535921Y-84273801D01*
X58522923Y-84266501D01*
X58515955Y-84260267D01*
X58509374Y-84252694D01*
X58504212Y-84242924D01*
X58500297Y-84228340D01*
X58497457Y-84206326D01*
X58495520Y-84174264D01*
X58494316Y-84129536D01*
X58493672Y-84069526D01*
X58493417Y-83991617D01*
X58493378Y-83915956D01*
X58493130Y-83815041D01*
X58493183Y-83734427D01*
X58494143Y-83695822D01*
X58640133Y-83695822D01*
X58640133Y-84136089D01*
X58733266Y-84136004D01*
X58789307Y-84134396D01*
X58848001Y-84130256D01*
X58896972Y-84124464D01*
X58898462Y-84124226D01*
X58977608Y-84105090D01*
X59038998Y-84075287D01*
X59085695Y-84032878D01*
X59115365Y-83986961D01*
X59133647Y-83936026D01*
X59132229Y-83888200D01*
X59111012Y-83836933D01*
X59069511Y-83783899D01*
X59012002Y-83744600D01*
X58937250Y-83718331D01*
X58887292Y-83709035D01*
X58830584Y-83702507D01*
X58770481Y-83697782D01*
X58719361Y-83695817D01*
X58716333Y-83695808D01*
X58640133Y-83695822D01*
X58494143Y-83695822D01*
X58494740Y-83671851D01*
X58499002Y-83625055D01*
X58507170Y-83591778D01*
X58520444Y-83569759D01*
X58540026Y-83556739D01*
X58567117Y-83550457D01*
X58602918Y-83548653D01*
X58648629Y-83549066D01*
G37*
X58648629Y-83549066D02*
X58688111Y-83549467D01*
X58803800Y-83552259D01*
X58900689Y-83560550D01*
X58982081Y-83575232D01*
X59051277Y-83597193D01*
X59111580Y-83627322D01*
X59166292Y-83666510D01*
X59185833Y-83683532D01*
X59218250Y-83723363D01*
X59247480Y-83777413D01*
X59270009Y-83837323D01*
X59282321Y-83894739D01*
X59283600Y-83915956D01*
X59275583Y-83974769D01*
X59254101Y-84039013D01*
X59223001Y-84099821D01*
X59186134Y-84148330D01*
X59180146Y-84154182D01*
X59129421Y-84195321D01*
X59073875Y-84227435D01*
X59010304Y-84251365D01*
X58935506Y-84267953D01*
X58846278Y-84278041D01*
X58739418Y-84282469D01*
X58690472Y-84282845D01*
X58628238Y-84282545D01*
X58584472Y-84281292D01*
X58555069Y-84278554D01*
X58535921Y-84273801D01*
X58522923Y-84266501D01*
X58515955Y-84260267D01*
X58509374Y-84252694D01*
X58504212Y-84242924D01*
X58500297Y-84228340D01*
X58497457Y-84206326D01*
X58495520Y-84174264D01*
X58494316Y-84129536D01*
X58493672Y-84069526D01*
X58493417Y-83991617D01*
X58493378Y-83915956D01*
X58493130Y-83815041D01*
X58493183Y-83734427D01*
X58494143Y-83695822D01*
X58640133Y-83695822D01*
X58640133Y-84136089D01*
X58733266Y-84136004D01*
X58789307Y-84134396D01*
X58848001Y-84130256D01*
X58896972Y-84124464D01*
X58898462Y-84124226D01*
X58977608Y-84105090D01*
X59038998Y-84075287D01*
X59085695Y-84032878D01*
X59115365Y-83986961D01*
X59133647Y-83936026D01*
X59132229Y-83888200D01*
X59111012Y-83836933D01*
X59069511Y-83783899D01*
X59012002Y-83744600D01*
X58937250Y-83718331D01*
X58887292Y-83709035D01*
X58830584Y-83702507D01*
X58770481Y-83697782D01*
X58719361Y-83695817D01*
X58716333Y-83695808D01*
X58640133Y-83695822D01*
X58494143Y-83695822D01*
X58494740Y-83671851D01*
X58499002Y-83625055D01*
X58507170Y-83591778D01*
X58520444Y-83569759D01*
X58540026Y-83556739D01*
X58567117Y-83550457D01*
X58602918Y-83548653D01*
X58648629Y-83549066D01*
G36*
X60057206Y-83549146D02*
G01*
X60126614Y-83549518D01*
X60179003Y-83550385D01*
X60217153Y-83551946D01*
X60243841Y-83554403D01*
X60261847Y-83557957D01*
X60273951Y-83562810D01*
X60282931Y-83569161D01*
X60286182Y-83572084D01*
X60305957Y-83603142D01*
X60309518Y-83638828D01*
X60296509Y-83670510D01*
X60290494Y-83676913D01*
X60280765Y-83683121D01*
X60265099Y-83687910D01*
X60240592Y-83691514D01*
X60204339Y-83694164D01*
X60153435Y-83696095D01*
X60084974Y-83697539D01*
X60022383Y-83698418D01*
X59774666Y-83701467D01*
X59771281Y-83766378D01*
X59767895Y-83831289D01*
X59936042Y-83831289D01*
X60009041Y-83831919D01*
X60062483Y-83834553D01*
X60099372Y-83840309D01*
X60122712Y-83850304D01*
X60135506Y-83865656D01*
X60140758Y-83887482D01*
X60141555Y-83907738D01*
X60139077Y-83932592D01*
X60129723Y-83950906D01*
X60110617Y-83963637D01*
X60078882Y-83971741D01*
X60031641Y-83976176D01*
X59966017Y-83977899D01*
X59930199Y-83978045D01*
X59769022Y-83978045D01*
X59769022Y-84136089D01*
X60017378Y-84136089D01*
X60098787Y-84136202D01*
X60160658Y-84136712D01*
X60206032Y-84137870D01*
X60237946Y-84139930D01*
X60259441Y-84143146D01*
X60273557Y-84147772D01*
X60283332Y-84154059D01*
X60288311Y-84158667D01*
X60305390Y-84185560D01*
X60310889Y-84209467D01*
X60303037Y-84238667D01*
X60288311Y-84260267D01*
X60280454Y-84267066D01*
X60270312Y-84272346D01*
X60255156Y-84276298D01*
X60232259Y-84279113D01*
X60198891Y-84280982D01*
X60152325Y-84282098D01*
X60089833Y-84282651D01*
X60008686Y-84282833D01*
X59966578Y-84282845D01*
X59876402Y-84282765D01*
X59806076Y-84282398D01*
X59752871Y-84281552D01*
X59714060Y-84280036D01*
X59686913Y-84277659D01*
X59668702Y-84274229D01*
X59656700Y-84269554D01*
X59648178Y-84263444D01*
X59644844Y-84260267D01*
X59638245Y-84252670D01*
X59633073Y-84242870D01*
X59629154Y-84228239D01*
X59626316Y-84206152D01*
X59624385Y-84173982D01*
X59623188Y-84129103D01*
X59622552Y-84068889D01*
X59622303Y-83990713D01*
X59622266Y-83917923D01*
X59622300Y-83824707D01*
X59622535Y-83751431D01*
X59623170Y-83695458D01*
X59624406Y-83654151D01*
X59626444Y-83624872D01*
X59629483Y-83604984D01*
X59633723Y-83591850D01*
X59639365Y-83582832D01*
X59646609Y-83575293D01*
X59648394Y-83573612D01*
X59657055Y-83566172D01*
X59667118Y-83560409D01*
X59681375Y-83556112D01*
X59702617Y-83553064D01*
X59733636Y-83551051D01*
X59777223Y-83549860D01*
X59836169Y-83549275D01*
X59913266Y-83549083D01*
X59967999Y-83549067D01*
X60057206Y-83549146D01*
G37*
X60057206Y-83549146D02*
X60126614Y-83549518D01*
X60179003Y-83550385D01*
X60217153Y-83551946D01*
X60243841Y-83554403D01*
X60261847Y-83557957D01*
X60273951Y-83562810D01*
X60282931Y-83569161D01*
X60286182Y-83572084D01*
X60305957Y-83603142D01*
X60309518Y-83638828D01*
X60296509Y-83670510D01*
X60290494Y-83676913D01*
X60280765Y-83683121D01*
X60265099Y-83687910D01*
X60240592Y-83691514D01*
X60204339Y-83694164D01*
X60153435Y-83696095D01*
X60084974Y-83697539D01*
X60022383Y-83698418D01*
X59774666Y-83701467D01*
X59771281Y-83766378D01*
X59767895Y-83831289D01*
X59936042Y-83831289D01*
X60009041Y-83831919D01*
X60062483Y-83834553D01*
X60099372Y-83840309D01*
X60122712Y-83850304D01*
X60135506Y-83865656D01*
X60140758Y-83887482D01*
X60141555Y-83907738D01*
X60139077Y-83932592D01*
X60129723Y-83950906D01*
X60110617Y-83963637D01*
X60078882Y-83971741D01*
X60031641Y-83976176D01*
X59966017Y-83977899D01*
X59930199Y-83978045D01*
X59769022Y-83978045D01*
X59769022Y-84136089D01*
X60017378Y-84136089D01*
X60098787Y-84136202D01*
X60160658Y-84136712D01*
X60206032Y-84137870D01*
X60237946Y-84139930D01*
X60259441Y-84143146D01*
X60273557Y-84147772D01*
X60283332Y-84154059D01*
X60288311Y-84158667D01*
X60305390Y-84185560D01*
X60310889Y-84209467D01*
X60303037Y-84238667D01*
X60288311Y-84260267D01*
X60280454Y-84267066D01*
X60270312Y-84272346D01*
X60255156Y-84276298D01*
X60232259Y-84279113D01*
X60198891Y-84280982D01*
X60152325Y-84282098D01*
X60089833Y-84282651D01*
X60008686Y-84282833D01*
X59966578Y-84282845D01*
X59876402Y-84282765D01*
X59806076Y-84282398D01*
X59752871Y-84281552D01*
X59714060Y-84280036D01*
X59686913Y-84277659D01*
X59668702Y-84274229D01*
X59656700Y-84269554D01*
X59648178Y-84263444D01*
X59644844Y-84260267D01*
X59638245Y-84252670D01*
X59633073Y-84242870D01*
X59629154Y-84228239D01*
X59626316Y-84206152D01*
X59624385Y-84173982D01*
X59623188Y-84129103D01*
X59622552Y-84068889D01*
X59622303Y-83990713D01*
X59622266Y-83917923D01*
X59622300Y-83824707D01*
X59622535Y-83751431D01*
X59623170Y-83695458D01*
X59624406Y-83654151D01*
X59626444Y-83624872D01*
X59629483Y-83604984D01*
X59633723Y-83591850D01*
X59639365Y-83582832D01*
X59646609Y-83575293D01*
X59648394Y-83573612D01*
X59657055Y-83566172D01*
X59667118Y-83560409D01*
X59681375Y-83556112D01*
X59702617Y-83553064D01*
X59733636Y-83551051D01*
X59777223Y-83549860D01*
X59836169Y-83549275D01*
X59913266Y-83549083D01*
X59967999Y-83549067D01*
X60057206Y-83549146D01*
G36*
X61078297Y-83550351D02*
G01*
X61153112Y-83555581D01*
X61222694Y-83563750D01*
X61282998Y-83574550D01*
X61329980Y-83587673D01*
X61359594Y-83602813D01*
X61364140Y-83607269D01*
X61379946Y-83641850D01*
X61375153Y-83677351D01*
X61350636Y-83707725D01*
X61349466Y-83708596D01*
X61335046Y-83717954D01*
X61319992Y-83722876D01*
X61298995Y-83723473D01*
X61266743Y-83719861D01*
X61217927Y-83712154D01*
X61214000Y-83711505D01*
X61141261Y-83702569D01*
X61062783Y-83698161D01*
X60984073Y-83698119D01*
X60910639Y-83702279D01*
X60847989Y-83710479D01*
X60801630Y-83722557D01*
X60798584Y-83723771D01*
X60764952Y-83742615D01*
X60753136Y-83761685D01*
X60762386Y-83780439D01*
X60791953Y-83798337D01*
X60841089Y-83814837D01*
X60909043Y-83829396D01*
X60954355Y-83836406D01*
X61048544Y-83849889D01*
X61123456Y-83862214D01*
X61182283Y-83874449D01*
X61228215Y-83887661D01*
X61264445Y-83902917D01*
X61294162Y-83921285D01*
X61320558Y-83943831D01*
X61341770Y-83965971D01*
X61366935Y-83996819D01*
X61379319Y-84023345D01*
X61383192Y-84056026D01*
X61383333Y-84067995D01*
X61380424Y-84107712D01*
X61368798Y-84137259D01*
X61348677Y-84163486D01*
X61307784Y-84203576D01*
X61262183Y-84234149D01*
X61208487Y-84256203D01*
X61143308Y-84270735D01*
X61063256Y-84278741D01*
X60964943Y-84281218D01*
X60948711Y-84281177D01*
X60883151Y-84279818D01*
X60818134Y-84276730D01*
X60760748Y-84272356D01*
X60718078Y-84267140D01*
X60714628Y-84266541D01*
X60672204Y-84256491D01*
X60636220Y-84243796D01*
X60615850Y-84232190D01*
X60596893Y-84201572D01*
X60595573Y-84165918D01*
X60611915Y-84134144D01*
X60615571Y-84130551D01*
X60630685Y-84119876D01*
X60649585Y-84115276D01*
X60678838Y-84116059D01*
X60714349Y-84120127D01*
X60754030Y-84123762D01*
X60809655Y-84126828D01*
X60874594Y-84129053D01*
X60942215Y-84130164D01*
X60960000Y-84130237D01*
X61027872Y-84129964D01*
X61077546Y-84128646D01*
X61113390Y-84125827D01*
X61139776Y-84121050D01*
X61161074Y-84113857D01*
X61173874Y-84107867D01*
X61202000Y-84091233D01*
X61219932Y-84076168D01*
X61222553Y-84071897D01*
X61217024Y-84054263D01*
X61190740Y-84037192D01*
X61145522Y-84021458D01*
X61083192Y-84007838D01*
X61064829Y-84004804D01*
X60968910Y-83989738D01*
X60892359Y-83977146D01*
X60832220Y-83966111D01*
X60785540Y-83955720D01*
X60749363Y-83945056D01*
X60720735Y-83933205D01*
X60696702Y-83919251D01*
X60674308Y-83902281D01*
X60650598Y-83881378D01*
X60642620Y-83874049D01*
X60614647Y-83846699D01*
X60599840Y-83825029D01*
X60594048Y-83800232D01*
X60593111Y-83768983D01*
X60603425Y-83707705D01*
X60634248Y-83655640D01*
X60685405Y-83612958D01*
X60756717Y-83579825D01*
X60807600Y-83564964D01*
X60862900Y-83555366D01*
X60929147Y-83549936D01*
X61002294Y-83548367D01*
X61078297Y-83550351D01*
G37*
X61078297Y-83550351D02*
X61153112Y-83555581D01*
X61222694Y-83563750D01*
X61282998Y-83574550D01*
X61329980Y-83587673D01*
X61359594Y-83602813D01*
X61364140Y-83607269D01*
X61379946Y-83641850D01*
X61375153Y-83677351D01*
X61350636Y-83707725D01*
X61349466Y-83708596D01*
X61335046Y-83717954D01*
X61319992Y-83722876D01*
X61298995Y-83723473D01*
X61266743Y-83719861D01*
X61217927Y-83712154D01*
X61214000Y-83711505D01*
X61141261Y-83702569D01*
X61062783Y-83698161D01*
X60984073Y-83698119D01*
X60910639Y-83702279D01*
X60847989Y-83710479D01*
X60801630Y-83722557D01*
X60798584Y-83723771D01*
X60764952Y-83742615D01*
X60753136Y-83761685D01*
X60762386Y-83780439D01*
X60791953Y-83798337D01*
X60841089Y-83814837D01*
X60909043Y-83829396D01*
X60954355Y-83836406D01*
X61048544Y-83849889D01*
X61123456Y-83862214D01*
X61182283Y-83874449D01*
X61228215Y-83887661D01*
X61264445Y-83902917D01*
X61294162Y-83921285D01*
X61320558Y-83943831D01*
X61341770Y-83965971D01*
X61366935Y-83996819D01*
X61379319Y-84023345D01*
X61383192Y-84056026D01*
X61383333Y-84067995D01*
X61380424Y-84107712D01*
X61368798Y-84137259D01*
X61348677Y-84163486D01*
X61307784Y-84203576D01*
X61262183Y-84234149D01*
X61208487Y-84256203D01*
X61143308Y-84270735D01*
X61063256Y-84278741D01*
X60964943Y-84281218D01*
X60948711Y-84281177D01*
X60883151Y-84279818D01*
X60818134Y-84276730D01*
X60760748Y-84272356D01*
X60718078Y-84267140D01*
X60714628Y-84266541D01*
X60672204Y-84256491D01*
X60636220Y-84243796D01*
X60615850Y-84232190D01*
X60596893Y-84201572D01*
X60595573Y-84165918D01*
X60611915Y-84134144D01*
X60615571Y-84130551D01*
X60630685Y-84119876D01*
X60649585Y-84115276D01*
X60678838Y-84116059D01*
X60714349Y-84120127D01*
X60754030Y-84123762D01*
X60809655Y-84126828D01*
X60874594Y-84129053D01*
X60942215Y-84130164D01*
X60960000Y-84130237D01*
X61027872Y-84129964D01*
X61077546Y-84128646D01*
X61113390Y-84125827D01*
X61139776Y-84121050D01*
X61161074Y-84113857D01*
X61173874Y-84107867D01*
X61202000Y-84091233D01*
X61219932Y-84076168D01*
X61222553Y-84071897D01*
X61217024Y-84054263D01*
X61190740Y-84037192D01*
X61145522Y-84021458D01*
X61083192Y-84007838D01*
X61064829Y-84004804D01*
X60968910Y-83989738D01*
X60892359Y-83977146D01*
X60832220Y-83966111D01*
X60785540Y-83955720D01*
X60749363Y-83945056D01*
X60720735Y-83933205D01*
X60696702Y-83919251D01*
X60674308Y-83902281D01*
X60650598Y-83881378D01*
X60642620Y-83874049D01*
X60614647Y-83846699D01*
X60599840Y-83825029D01*
X60594048Y-83800232D01*
X60593111Y-83768983D01*
X60603425Y-83707705D01*
X60634248Y-83655640D01*
X60685405Y-83612958D01*
X60756717Y-83579825D01*
X60807600Y-83564964D01*
X60862900Y-83555366D01*
X60929147Y-83549936D01*
X61002294Y-83548367D01*
X61078297Y-83550351D01*
G36*
X61846178Y-83571645D02*
G01*
X61852758Y-83579218D01*
X61857921Y-83588987D01*
X61861836Y-83603571D01*
X61864676Y-83625585D01*
X61866613Y-83657648D01*
X61867817Y-83702375D01*
X61868461Y-83762385D01*
X61868716Y-83840294D01*
X61868755Y-83915956D01*
X61868686Y-84009802D01*
X61868362Y-84083689D01*
X61867614Y-84140232D01*
X61866268Y-84182049D01*
X61864154Y-84211757D01*
X61861100Y-84231973D01*
X61856934Y-84245314D01*
X61851484Y-84254398D01*
X61846178Y-84260267D01*
X61813174Y-84279947D01*
X61778009Y-84278181D01*
X61746545Y-84256717D01*
X61739316Y-84248337D01*
X61733666Y-84238614D01*
X61729401Y-84224861D01*
X61726327Y-84204389D01*
X61724248Y-84174512D01*
X61722970Y-84132541D01*
X61722299Y-84075789D01*
X61722041Y-84001567D01*
X61722000Y-83917537D01*
X61722000Y-83604485D01*
X61749709Y-83576776D01*
X61783863Y-83553463D01*
X61816994Y-83552623D01*
X61846178Y-83571645D01*
G37*
X61846178Y-83571645D02*
X61852758Y-83579218D01*
X61857921Y-83588987D01*
X61861836Y-83603571D01*
X61864676Y-83625585D01*
X61866613Y-83657648D01*
X61867817Y-83702375D01*
X61868461Y-83762385D01*
X61868716Y-83840294D01*
X61868755Y-83915956D01*
X61868686Y-84009802D01*
X61868362Y-84083689D01*
X61867614Y-84140232D01*
X61866268Y-84182049D01*
X61864154Y-84211757D01*
X61861100Y-84231973D01*
X61856934Y-84245314D01*
X61851484Y-84254398D01*
X61846178Y-84260267D01*
X61813174Y-84279947D01*
X61778009Y-84278181D01*
X61746545Y-84256717D01*
X61739316Y-84248337D01*
X61733666Y-84238614D01*
X61729401Y-84224861D01*
X61726327Y-84204389D01*
X61724248Y-84174512D01*
X61722970Y-84132541D01*
X61722299Y-84075789D01*
X61722041Y-84001567D01*
X61722000Y-83917537D01*
X61722000Y-83604485D01*
X61749709Y-83576776D01*
X61783863Y-83553463D01*
X61816994Y-83552623D01*
X61846178Y-83571645D01*
G36*
X62819919Y-83554599D02*
G01*
X62888435Y-83566095D01*
X62941057Y-83583967D01*
X62975292Y-83607499D01*
X62984621Y-83620924D01*
X62994107Y-83652148D01*
X62987723Y-83680395D01*
X62967570Y-83707182D01*
X62936255Y-83719713D01*
X62890817Y-83718696D01*
X62855674Y-83711906D01*
X62777581Y-83698971D01*
X62697774Y-83697742D01*
X62608445Y-83708241D01*
X62583771Y-83712690D01*
X62500709Y-83736108D01*
X62435727Y-83770945D01*
X62389539Y-83816604D01*
X62362855Y-83872494D01*
X62357337Y-83901388D01*
X62360949Y-83960012D01*
X62384271Y-84011879D01*
X62425176Y-84055978D01*
X62481541Y-84091299D01*
X62551240Y-84116829D01*
X62632148Y-84131559D01*
X62722140Y-84134478D01*
X62819090Y-84124575D01*
X62824564Y-84123641D01*
X62863125Y-84116459D01*
X62884506Y-84109521D01*
X62893773Y-84099227D01*
X62895994Y-84081976D01*
X62896044Y-84072841D01*
X62896044Y-84034489D01*
X62827569Y-84034489D01*
X62767100Y-84030347D01*
X62725835Y-84017147D01*
X62701825Y-83993730D01*
X62693123Y-83958936D01*
X62693017Y-83954394D01*
X62698108Y-83924654D01*
X62715567Y-83903419D01*
X62748061Y-83889366D01*
X62798257Y-83881173D01*
X62846877Y-83878161D01*
X62917544Y-83876433D01*
X62968802Y-83879070D01*
X63003761Y-83888800D01*
X63025530Y-83908353D01*
X63037220Y-83940456D01*
X63041940Y-83987838D01*
X63042800Y-84050071D01*
X63041391Y-84119535D01*
X63037152Y-84166786D01*
X63030064Y-84192012D01*
X63028689Y-84193988D01*
X62989772Y-84225508D01*
X62932714Y-84250470D01*
X62861131Y-84268340D01*
X62778642Y-84278586D01*
X62688861Y-84280673D01*
X62595408Y-84274068D01*
X62540444Y-84265956D01*
X62454234Y-84241554D01*
X62374108Y-84201662D01*
X62307023Y-84149887D01*
X62296827Y-84139539D01*
X62263698Y-84096035D01*
X62233806Y-84042118D01*
X62210643Y-83985592D01*
X62197702Y-83934259D01*
X62196142Y-83914544D01*
X62202782Y-83873419D01*
X62220432Y-83822252D01*
X62245703Y-83768394D01*
X62275211Y-83719195D01*
X62301281Y-83686334D01*
X62362235Y-83637452D01*
X62441031Y-83598545D01*
X62534843Y-83570494D01*
X62640850Y-83554179D01*
X62738000Y-83550192D01*
X62819919Y-83554599D01*
G37*
X62819919Y-83554599D02*
X62888435Y-83566095D01*
X62941057Y-83583967D01*
X62975292Y-83607499D01*
X62984621Y-83620924D01*
X62994107Y-83652148D01*
X62987723Y-83680395D01*
X62967570Y-83707182D01*
X62936255Y-83719713D01*
X62890817Y-83718696D01*
X62855674Y-83711906D01*
X62777581Y-83698971D01*
X62697774Y-83697742D01*
X62608445Y-83708241D01*
X62583771Y-83712690D01*
X62500709Y-83736108D01*
X62435727Y-83770945D01*
X62389539Y-83816604D01*
X62362855Y-83872494D01*
X62357337Y-83901388D01*
X62360949Y-83960012D01*
X62384271Y-84011879D01*
X62425176Y-84055978D01*
X62481541Y-84091299D01*
X62551240Y-84116829D01*
X62632148Y-84131559D01*
X62722140Y-84134478D01*
X62819090Y-84124575D01*
X62824564Y-84123641D01*
X62863125Y-84116459D01*
X62884506Y-84109521D01*
X62893773Y-84099227D01*
X62895994Y-84081976D01*
X62896044Y-84072841D01*
X62896044Y-84034489D01*
X62827569Y-84034489D01*
X62767100Y-84030347D01*
X62725835Y-84017147D01*
X62701825Y-83993730D01*
X62693123Y-83958936D01*
X62693017Y-83954394D01*
X62698108Y-83924654D01*
X62715567Y-83903419D01*
X62748061Y-83889366D01*
X62798257Y-83881173D01*
X62846877Y-83878161D01*
X62917544Y-83876433D01*
X62968802Y-83879070D01*
X63003761Y-83888800D01*
X63025530Y-83908353D01*
X63037220Y-83940456D01*
X63041940Y-83987838D01*
X63042800Y-84050071D01*
X63041391Y-84119535D01*
X63037152Y-84166786D01*
X63030064Y-84192012D01*
X63028689Y-84193988D01*
X62989772Y-84225508D01*
X62932714Y-84250470D01*
X62861131Y-84268340D01*
X62778642Y-84278586D01*
X62688861Y-84280673D01*
X62595408Y-84274068D01*
X62540444Y-84265956D01*
X62454234Y-84241554D01*
X62374108Y-84201662D01*
X62307023Y-84149887D01*
X62296827Y-84139539D01*
X62263698Y-84096035D01*
X62233806Y-84042118D01*
X62210643Y-83985592D01*
X62197702Y-83934259D01*
X62196142Y-83914544D01*
X62202782Y-83873419D01*
X62220432Y-83822252D01*
X62245703Y-83768394D01*
X62275211Y-83719195D01*
X62301281Y-83686334D01*
X62362235Y-83637452D01*
X62441031Y-83598545D01*
X62534843Y-83570494D01*
X62640850Y-83554179D01*
X62738000Y-83550192D01*
X62819919Y-83554599D01*
G36*
X63469886Y-83553448D02*
G01*
X63493452Y-83567273D01*
X63524265Y-83589881D01*
X63563922Y-83622338D01*
X63614020Y-83665708D01*
X63676157Y-83721058D01*
X63751928Y-83789451D01*
X63838666Y-83868084D01*
X64019289Y-84031878D01*
X64024933Y-83812029D01*
X64026971Y-83736351D01*
X64028937Y-83679994D01*
X64031266Y-83639706D01*
X64034394Y-83612235D01*
X64038755Y-83594329D01*
X64044784Y-83582737D01*
X64052916Y-83574208D01*
X64057228Y-83570623D01*
X64091759Y-83551670D01*
X64124617Y-83554441D01*
X64150682Y-83570633D01*
X64177333Y-83592199D01*
X64180648Y-83907151D01*
X64181565Y-83999779D01*
X64182032Y-84072544D01*
X64181887Y-84128161D01*
X64180968Y-84169342D01*
X64179113Y-84198803D01*
X64176161Y-84219255D01*
X64171950Y-84233413D01*
X64166318Y-84243991D01*
X64160073Y-84252474D01*
X64146561Y-84268207D01*
X64133117Y-84278636D01*
X64117876Y-84282639D01*
X64098974Y-84279094D01*
X64074545Y-84266879D01*
X64042727Y-84244871D01*
X64001652Y-84211949D01*
X63949458Y-84166991D01*
X63884278Y-84108875D01*
X63810444Y-84042099D01*
X63545155Y-83801458D01*
X63539511Y-84020589D01*
X63537469Y-84096128D01*
X63535498Y-84152354D01*
X63533161Y-84192524D01*
X63530019Y-84219896D01*
X63525636Y-84237728D01*
X63519576Y-84249279D01*
X63511400Y-84257807D01*
X63507216Y-84261282D01*
X63470235Y-84280372D01*
X63435292Y-84277493D01*
X63404864Y-84253100D01*
X63397903Y-84243286D01*
X63392477Y-84231826D01*
X63388397Y-84215968D01*
X63385471Y-84192963D01*
X63383508Y-84160062D01*
X63382317Y-84114516D01*
X63381708Y-84053573D01*
X63381489Y-83974486D01*
X63381466Y-83915956D01*
X63381540Y-83824407D01*
X63381887Y-83752687D01*
X63382699Y-83698045D01*
X63384167Y-83657732D01*
X63386481Y-83628998D01*
X63389833Y-83609093D01*
X63394412Y-83595268D01*
X63400411Y-83584772D01*
X63404864Y-83578811D01*
X63416150Y-83564691D01*
X63426699Y-83554029D01*
X63438107Y-83547892D01*
X63451970Y-83547343D01*
X63469886Y-83553448D01*
G37*
X63469886Y-83553448D02*
X63493452Y-83567273D01*
X63524265Y-83589881D01*
X63563922Y-83622338D01*
X63614020Y-83665708D01*
X63676157Y-83721058D01*
X63751928Y-83789451D01*
X63838666Y-83868084D01*
X64019289Y-84031878D01*
X64024933Y-83812029D01*
X64026971Y-83736351D01*
X64028937Y-83679994D01*
X64031266Y-83639706D01*
X64034394Y-83612235D01*
X64038755Y-83594329D01*
X64044784Y-83582737D01*
X64052916Y-83574208D01*
X64057228Y-83570623D01*
X64091759Y-83551670D01*
X64124617Y-83554441D01*
X64150682Y-83570633D01*
X64177333Y-83592199D01*
X64180648Y-83907151D01*
X64181565Y-83999779D01*
X64182032Y-84072544D01*
X64181887Y-84128161D01*
X64180968Y-84169342D01*
X64179113Y-84198803D01*
X64176161Y-84219255D01*
X64171950Y-84233413D01*
X64166318Y-84243991D01*
X64160073Y-84252474D01*
X64146561Y-84268207D01*
X64133117Y-84278636D01*
X64117876Y-84282639D01*
X64098974Y-84279094D01*
X64074545Y-84266879D01*
X64042727Y-84244871D01*
X64001652Y-84211949D01*
X63949458Y-84166991D01*
X63884278Y-84108875D01*
X63810444Y-84042099D01*
X63545155Y-83801458D01*
X63539511Y-84020589D01*
X63537469Y-84096128D01*
X63535498Y-84152354D01*
X63533161Y-84192524D01*
X63530019Y-84219896D01*
X63525636Y-84237728D01*
X63519576Y-84249279D01*
X63511400Y-84257807D01*
X63507216Y-84261282D01*
X63470235Y-84280372D01*
X63435292Y-84277493D01*
X63404864Y-84253100D01*
X63397903Y-84243286D01*
X63392477Y-84231826D01*
X63388397Y-84215968D01*
X63385471Y-84192963D01*
X63383508Y-84160062D01*
X63382317Y-84114516D01*
X63381708Y-84053573D01*
X63381489Y-83974486D01*
X63381466Y-83915956D01*
X63381540Y-83824407D01*
X63381887Y-83752687D01*
X63382699Y-83698045D01*
X63384167Y-83657732D01*
X63386481Y-83628998D01*
X63389833Y-83609093D01*
X63394412Y-83595268D01*
X63400411Y-83584772D01*
X63404864Y-83578811D01*
X63416150Y-83564691D01*
X63426699Y-83554029D01*
X63438107Y-83547892D01*
X63451970Y-83547343D01*
X63469886Y-83553448D01*
G36*
X65000343Y-83549260D02*
G01*
X65076701Y-83550174D01*
X65135217Y-83552311D01*
X65178255Y-83556175D01*
X65208183Y-83562267D01*
X65227368Y-83571090D01*
X65238176Y-83583146D01*
X65242973Y-83598939D01*
X65244127Y-83618970D01*
X65244133Y-83621335D01*
X65243131Y-83643992D01*
X65238396Y-83661503D01*
X65227333Y-83674574D01*
X65207348Y-83683913D01*
X65175846Y-83690227D01*
X65130232Y-83694222D01*
X65067913Y-83696606D01*
X64986293Y-83698086D01*
X64961277Y-83698414D01*
X64719200Y-83701467D01*
X64715814Y-83766378D01*
X64712429Y-83831289D01*
X64880576Y-83831289D01*
X64946266Y-83831531D01*
X64993172Y-83832556D01*
X65025083Y-83834811D01*
X65045791Y-83838742D01*
X65059084Y-83844798D01*
X65068755Y-83853424D01*
X65068817Y-83853493D01*
X65086356Y-83887112D01*
X65085722Y-83923448D01*
X65067314Y-83954423D01*
X65063671Y-83957607D01*
X65050741Y-83965812D01*
X65033024Y-83971521D01*
X65006570Y-83975162D01*
X64967432Y-83977167D01*
X64911662Y-83977964D01*
X64875994Y-83978045D01*
X64713555Y-83978045D01*
X64713555Y-84136089D01*
X64960161Y-84136089D01*
X65041580Y-84136231D01*
X65103410Y-84136814D01*
X65148637Y-84138068D01*
X65180248Y-84140227D01*
X65201231Y-84143523D01*
X65214573Y-84148189D01*
X65223261Y-84154457D01*
X65225450Y-84156733D01*
X65241614Y-84188280D01*
X65242797Y-84224168D01*
X65229536Y-84255285D01*
X65219043Y-84265271D01*
X65208129Y-84270769D01*
X65191217Y-84275022D01*
X65165633Y-84278180D01*
X65128701Y-84280392D01*
X65077746Y-84281806D01*
X65010094Y-84282572D01*
X64923069Y-84282838D01*
X64903394Y-84282845D01*
X64814911Y-84282787D01*
X64746227Y-84282467D01*
X64694564Y-84281667D01*
X64657145Y-84280167D01*
X64631190Y-84277749D01*
X64613922Y-84274194D01*
X64602562Y-84269282D01*
X64594332Y-84262795D01*
X64589817Y-84258138D01*
X64583021Y-84249889D01*
X64577712Y-84239669D01*
X64573706Y-84224800D01*
X64570821Y-84202602D01*
X64568874Y-84170393D01*
X64567681Y-84125496D01*
X64567061Y-84065228D01*
X64566829Y-83986911D01*
X64566800Y-83920994D01*
X64566871Y-83828628D01*
X64567208Y-83756117D01*
X64567998Y-83700737D01*
X64569426Y-83659765D01*
X64571679Y-83630478D01*
X64574943Y-83610153D01*
X64579404Y-83596066D01*
X64585248Y-83585495D01*
X64590197Y-83578811D01*
X64613594Y-83549067D01*
X64903774Y-83549067D01*
X65000343Y-83549260D01*
G37*
X65000343Y-83549260D02*
X65076701Y-83550174D01*
X65135217Y-83552311D01*
X65178255Y-83556175D01*
X65208183Y-83562267D01*
X65227368Y-83571090D01*
X65238176Y-83583146D01*
X65242973Y-83598939D01*
X65244127Y-83618970D01*
X65244133Y-83621335D01*
X65243131Y-83643992D01*
X65238396Y-83661503D01*
X65227333Y-83674574D01*
X65207348Y-83683913D01*
X65175846Y-83690227D01*
X65130232Y-83694222D01*
X65067913Y-83696606D01*
X64986293Y-83698086D01*
X64961277Y-83698414D01*
X64719200Y-83701467D01*
X64715814Y-83766378D01*
X64712429Y-83831289D01*
X64880576Y-83831289D01*
X64946266Y-83831531D01*
X64993172Y-83832556D01*
X65025083Y-83834811D01*
X65045791Y-83838742D01*
X65059084Y-83844798D01*
X65068755Y-83853424D01*
X65068817Y-83853493D01*
X65086356Y-83887112D01*
X65085722Y-83923448D01*
X65067314Y-83954423D01*
X65063671Y-83957607D01*
X65050741Y-83965812D01*
X65033024Y-83971521D01*
X65006570Y-83975162D01*
X64967432Y-83977167D01*
X64911662Y-83977964D01*
X64875994Y-83978045D01*
X64713555Y-83978045D01*
X64713555Y-84136089D01*
X64960161Y-84136089D01*
X65041580Y-84136231D01*
X65103410Y-84136814D01*
X65148637Y-84138068D01*
X65180248Y-84140227D01*
X65201231Y-84143523D01*
X65214573Y-84148189D01*
X65223261Y-84154457D01*
X65225450Y-84156733D01*
X65241614Y-84188280D01*
X65242797Y-84224168D01*
X65229536Y-84255285D01*
X65219043Y-84265271D01*
X65208129Y-84270769D01*
X65191217Y-84275022D01*
X65165633Y-84278180D01*
X65128701Y-84280392D01*
X65077746Y-84281806D01*
X65010094Y-84282572D01*
X64923069Y-84282838D01*
X64903394Y-84282845D01*
X64814911Y-84282787D01*
X64746227Y-84282467D01*
X64694564Y-84281667D01*
X64657145Y-84280167D01*
X64631190Y-84277749D01*
X64613922Y-84274194D01*
X64602562Y-84269282D01*
X64594332Y-84262795D01*
X64589817Y-84258138D01*
X64583021Y-84249889D01*
X64577712Y-84239669D01*
X64573706Y-84224800D01*
X64570821Y-84202602D01*
X64568874Y-84170393D01*
X64567681Y-84125496D01*
X64567061Y-84065228D01*
X64566829Y-83986911D01*
X64566800Y-83920994D01*
X64566871Y-83828628D01*
X64567208Y-83756117D01*
X64567998Y-83700737D01*
X64569426Y-83659765D01*
X64571679Y-83630478D01*
X64574943Y-83610153D01*
X64579404Y-83596066D01*
X64585248Y-83585495D01*
X64590197Y-83578811D01*
X64613594Y-83549067D01*
X64903774Y-83549067D01*
X65000343Y-83549260D01*
G36*
X65788309Y-83549275D02*
G01*
X65917288Y-83553636D01*
X66026991Y-83566861D01*
X66119226Y-83589741D01*
X66195802Y-83623070D01*
X66258527Y-83667638D01*
X66309212Y-83724236D01*
X66349663Y-83793658D01*
X66350459Y-83795351D01*
X66374601Y-83857483D01*
X66383203Y-83912509D01*
X66376231Y-83967887D01*
X66353654Y-84031073D01*
X66349372Y-84040689D01*
X66320172Y-84096966D01*
X66287356Y-84140451D01*
X66245002Y-84177417D01*
X66187190Y-84214135D01*
X66183831Y-84216052D01*
X66133504Y-84240227D01*
X66076621Y-84258282D01*
X66009527Y-84270839D01*
X65928565Y-84278522D01*
X65830082Y-84281953D01*
X65795286Y-84282251D01*
X65629594Y-84282845D01*
X65606197Y-84253100D01*
X65599257Y-84243319D01*
X65593842Y-84231897D01*
X65589765Y-84216095D01*
X65586837Y-84193175D01*
X65584867Y-84160396D01*
X65584225Y-84136089D01*
X65740844Y-84136089D01*
X65834726Y-84136089D01*
X65889664Y-84134483D01*
X65946060Y-84130255D01*
X65992345Y-84124292D01*
X65995139Y-84123790D01*
X66077348Y-84101736D01*
X66141114Y-84068600D01*
X66188452Y-84022847D01*
X66221382Y-83962939D01*
X66227108Y-83947061D01*
X66232721Y-83922333D01*
X66230291Y-83897902D01*
X66218467Y-83865400D01*
X66211340Y-83849434D01*
X66188000Y-83807006D01*
X66159880Y-83777240D01*
X66128940Y-83756511D01*
X66066966Y-83729537D01*
X65987651Y-83709998D01*
X65895253Y-83698746D01*
X65828333Y-83696270D01*
X65740844Y-83695822D01*
X65740844Y-84136089D01*
X65584225Y-84136089D01*
X65583668Y-84115021D01*
X65583050Y-84054311D01*
X65582825Y-83975526D01*
X65582800Y-83913920D01*
X65582800Y-83604485D01*
X65610509Y-83576776D01*
X65622806Y-83565544D01*
X65636103Y-83557853D01*
X65654672Y-83553040D01*
X65682786Y-83550446D01*
X65724717Y-83549410D01*
X65784737Y-83549270D01*
X65788309Y-83549275D01*
G37*
X65788309Y-83549275D02*
X65917288Y-83553636D01*
X66026991Y-83566861D01*
X66119226Y-83589741D01*
X66195802Y-83623070D01*
X66258527Y-83667638D01*
X66309212Y-83724236D01*
X66349663Y-83793658D01*
X66350459Y-83795351D01*
X66374601Y-83857483D01*
X66383203Y-83912509D01*
X66376231Y-83967887D01*
X66353654Y-84031073D01*
X66349372Y-84040689D01*
X66320172Y-84096966D01*
X66287356Y-84140451D01*
X66245002Y-84177417D01*
X66187190Y-84214135D01*
X66183831Y-84216052D01*
X66133504Y-84240227D01*
X66076621Y-84258282D01*
X66009527Y-84270839D01*
X65928565Y-84278522D01*
X65830082Y-84281953D01*
X65795286Y-84282251D01*
X65629594Y-84282845D01*
X65606197Y-84253100D01*
X65599257Y-84243319D01*
X65593842Y-84231897D01*
X65589765Y-84216095D01*
X65586837Y-84193175D01*
X65584867Y-84160396D01*
X65584225Y-84136089D01*
X65740844Y-84136089D01*
X65834726Y-84136089D01*
X65889664Y-84134483D01*
X65946060Y-84130255D01*
X65992345Y-84124292D01*
X65995139Y-84123790D01*
X66077348Y-84101736D01*
X66141114Y-84068600D01*
X66188452Y-84022847D01*
X66221382Y-83962939D01*
X66227108Y-83947061D01*
X66232721Y-83922333D01*
X66230291Y-83897902D01*
X66218467Y-83865400D01*
X66211340Y-83849434D01*
X66188000Y-83807006D01*
X66159880Y-83777240D01*
X66128940Y-83756511D01*
X66066966Y-83729537D01*
X65987651Y-83709998D01*
X65895253Y-83698746D01*
X65828333Y-83696270D01*
X65740844Y-83695822D01*
X65740844Y-84136089D01*
X65584225Y-84136089D01*
X65583668Y-84115021D01*
X65583050Y-84054311D01*
X65582825Y-83975526D01*
X65582800Y-83913920D01*
X65582800Y-83604485D01*
X65610509Y-83576776D01*
X65622806Y-83565544D01*
X65636103Y-83557853D01*
X65654672Y-83553040D01*
X65682786Y-83550446D01*
X65724717Y-83549410D01*
X65784737Y-83549270D01*
X65788309Y-83549275D01*
G36*
X68514665Y-83551034D02*
G01*
X68534255Y-83558035D01*
X68535010Y-83558377D01*
X68561613Y-83578678D01*
X68576270Y-83599561D01*
X68579138Y-83609352D01*
X68578996Y-83622361D01*
X68574961Y-83640895D01*
X68566146Y-83667257D01*
X68551669Y-83703752D01*
X68530645Y-83752687D01*
X68502188Y-83816365D01*
X68465415Y-83897093D01*
X68445175Y-83941216D01*
X68408625Y-84019985D01*
X68374315Y-84092423D01*
X68343552Y-84155880D01*
X68317648Y-84207708D01*
X68297910Y-84245259D01*
X68285650Y-84265884D01*
X68283224Y-84268733D01*
X68252183Y-84281302D01*
X68217121Y-84279619D01*
X68189000Y-84264332D01*
X68187854Y-84263089D01*
X68176668Y-84246154D01*
X68157904Y-84213170D01*
X68133875Y-84168380D01*
X68106897Y-84116032D01*
X68097201Y-84096742D01*
X68024014Y-83950150D01*
X67944240Y-84109393D01*
X67915767Y-84164415D01*
X67889350Y-84212132D01*
X67867148Y-84248893D01*
X67851319Y-84271044D01*
X67845954Y-84275741D01*
X67804257Y-84282102D01*
X67769849Y-84268733D01*
X67759728Y-84254446D01*
X67742214Y-84222692D01*
X67718735Y-84176597D01*
X67690720Y-84119285D01*
X67659599Y-84053880D01*
X67626799Y-83983507D01*
X67593750Y-83911291D01*
X67561881Y-83840355D01*
X67532619Y-83773825D01*
X67507395Y-83714826D01*
X67487636Y-83666481D01*
X67474772Y-83631915D01*
X67470231Y-83614253D01*
X67470277Y-83613613D01*
X67481326Y-83591388D01*
X67503410Y-83568753D01*
X67504710Y-83567768D01*
X67531853Y-83552425D01*
X67556958Y-83552574D01*
X67566368Y-83555466D01*
X67577834Y-83561718D01*
X67590010Y-83574014D01*
X67604357Y-83594908D01*
X67622336Y-83626949D01*
X67645407Y-83672688D01*
X67675030Y-83734677D01*
X67701745Y-83791898D01*
X67732480Y-83858226D01*
X67760021Y-83917874D01*
X67782938Y-83967725D01*
X67799798Y-84004664D01*
X67809173Y-84025573D01*
X67810540Y-84028845D01*
X67816689Y-84023497D01*
X67830822Y-84001109D01*
X67851057Y-83964946D01*
X67875515Y-83918277D01*
X67885248Y-83899022D01*
X67918217Y-83834004D01*
X67943643Y-83786654D01*
X67963612Y-83754219D01*
X67980210Y-83733946D01*
X67995524Y-83723082D01*
X68011640Y-83718875D01*
X68022143Y-83718400D01*
X68040670Y-83720042D01*
X68056904Y-83726831D01*
X68073035Y-83741566D01*
X68091251Y-83767044D01*
X68113739Y-83806061D01*
X68142689Y-83861414D01*
X68158662Y-83892903D01*
X68184570Y-83943087D01*
X68207167Y-83984704D01*
X68224458Y-84014242D01*
X68234450Y-84028189D01*
X68235809Y-84028770D01*
X68242261Y-84017793D01*
X68256708Y-83989290D01*
X68277703Y-83946244D01*
X68303797Y-83891638D01*
X68333546Y-83828454D01*
X68348180Y-83797071D01*
X68386250Y-83716078D01*
X68416905Y-83653756D01*
X68441737Y-83608071D01*
X68462337Y-83576989D01*
X68480298Y-83558478D01*
X68497210Y-83550504D01*
X68514665Y-83551034D01*
G37*
X68514665Y-83551034D02*
X68534255Y-83558035D01*
X68535010Y-83558377D01*
X68561613Y-83578678D01*
X68576270Y-83599561D01*
X68579138Y-83609352D01*
X68578996Y-83622361D01*
X68574961Y-83640895D01*
X68566146Y-83667257D01*
X68551669Y-83703752D01*
X68530645Y-83752687D01*
X68502188Y-83816365D01*
X68465415Y-83897093D01*
X68445175Y-83941216D01*
X68408625Y-84019985D01*
X68374315Y-84092423D01*
X68343552Y-84155880D01*
X68317648Y-84207708D01*
X68297910Y-84245259D01*
X68285650Y-84265884D01*
X68283224Y-84268733D01*
X68252183Y-84281302D01*
X68217121Y-84279619D01*
X68189000Y-84264332D01*
X68187854Y-84263089D01*
X68176668Y-84246154D01*
X68157904Y-84213170D01*
X68133875Y-84168380D01*
X68106897Y-84116032D01*
X68097201Y-84096742D01*
X68024014Y-83950150D01*
X67944240Y-84109393D01*
X67915767Y-84164415D01*
X67889350Y-84212132D01*
X67867148Y-84248893D01*
X67851319Y-84271044D01*
X67845954Y-84275741D01*
X67804257Y-84282102D01*
X67769849Y-84268733D01*
X67759728Y-84254446D01*
X67742214Y-84222692D01*
X67718735Y-84176597D01*
X67690720Y-84119285D01*
X67659599Y-84053880D01*
X67626799Y-83983507D01*
X67593750Y-83911291D01*
X67561881Y-83840355D01*
X67532619Y-83773825D01*
X67507395Y-83714826D01*
X67487636Y-83666481D01*
X67474772Y-83631915D01*
X67470231Y-83614253D01*
X67470277Y-83613613D01*
X67481326Y-83591388D01*
X67503410Y-83568753D01*
X67504710Y-83567768D01*
X67531853Y-83552425D01*
X67556958Y-83552574D01*
X67566368Y-83555466D01*
X67577834Y-83561718D01*
X67590010Y-83574014D01*
X67604357Y-83594908D01*
X67622336Y-83626949D01*
X67645407Y-83672688D01*
X67675030Y-83734677D01*
X67701745Y-83791898D01*
X67732480Y-83858226D01*
X67760021Y-83917874D01*
X67782938Y-83967725D01*
X67799798Y-84004664D01*
X67809173Y-84025573D01*
X67810540Y-84028845D01*
X67816689Y-84023497D01*
X67830822Y-84001109D01*
X67851057Y-83964946D01*
X67875515Y-83918277D01*
X67885248Y-83899022D01*
X67918217Y-83834004D01*
X67943643Y-83786654D01*
X67963612Y-83754219D01*
X67980210Y-83733946D01*
X67995524Y-83723082D01*
X68011640Y-83718875D01*
X68022143Y-83718400D01*
X68040670Y-83720042D01*
X68056904Y-83726831D01*
X68073035Y-83741566D01*
X68091251Y-83767044D01*
X68113739Y-83806061D01*
X68142689Y-83861414D01*
X68158662Y-83892903D01*
X68184570Y-83943087D01*
X68207167Y-83984704D01*
X68224458Y-84014242D01*
X68234450Y-84028189D01*
X68235809Y-84028770D01*
X68242261Y-84017793D01*
X68256708Y-83989290D01*
X68277703Y-83946244D01*
X68303797Y-83891638D01*
X68333546Y-83828454D01*
X68348180Y-83797071D01*
X68386250Y-83716078D01*
X68416905Y-83653756D01*
X68441737Y-83608071D01*
X68462337Y-83576989D01*
X68480298Y-83558478D01*
X68497210Y-83550504D01*
X68514665Y-83551034D01*
G36*
X68958614Y-83555877D02*
G01*
X68982327Y-83570647D01*
X69008978Y-83592227D01*
X69008978Y-83913773D01*
X69008893Y-84007830D01*
X69008529Y-84081932D01*
X69007724Y-84138704D01*
X69006313Y-84180768D01*
X69004133Y-84210748D01*
X69001021Y-84231267D01*
X68996814Y-84244949D01*
X68991348Y-84254416D01*
X68987472Y-84259082D01*
X68956034Y-84279575D01*
X68920233Y-84278739D01*
X68888873Y-84261264D01*
X68862222Y-84239684D01*
X68862222Y-83592227D01*
X68888873Y-83570647D01*
X68914594Y-83554949D01*
X68935600Y-83549067D01*
X68958614Y-83555877D01*
G37*
X68958614Y-83555877D02*
X68982327Y-83570647D01*
X69008978Y-83592227D01*
X69008978Y-83913773D01*
X69008893Y-84007830D01*
X69008529Y-84081932D01*
X69007724Y-84138704D01*
X69006313Y-84180768D01*
X69004133Y-84210748D01*
X69001021Y-84231267D01*
X68996814Y-84244949D01*
X68991348Y-84254416D01*
X68987472Y-84259082D01*
X68956034Y-84279575D01*
X68920233Y-84278739D01*
X68888873Y-84261264D01*
X68862222Y-84239684D01*
X68862222Y-83592227D01*
X68888873Y-83570647D01*
X68914594Y-83554949D01*
X68935600Y-83549067D01*
X68958614Y-83555877D01*
G36*
X69733065Y-83549163D02*
G01*
X69811772Y-83549542D01*
X69872863Y-83550333D01*
X69918817Y-83551670D01*
X69952114Y-83553683D01*
X69975236Y-83556506D01*
X69990662Y-83560269D01*
X70000871Y-83565105D01*
X70005813Y-83568822D01*
X70031457Y-83601358D01*
X70034559Y-83635138D01*
X70018711Y-83665826D01*
X70008348Y-83678089D01*
X69997196Y-83686450D01*
X69981035Y-83691657D01*
X69955642Y-83694457D01*
X69916798Y-83695596D01*
X69860280Y-83695821D01*
X69849180Y-83695822D01*
X69703244Y-83695822D01*
X69703244Y-83966756D01*
X69703148Y-84052154D01*
X69702711Y-84117864D01*
X69701712Y-84166774D01*
X69699928Y-84201773D01*
X69697137Y-84225749D01*
X69693117Y-84241593D01*
X69687645Y-84252191D01*
X69680666Y-84260267D01*
X69647734Y-84280112D01*
X69613354Y-84278548D01*
X69582176Y-84255906D01*
X69579886Y-84253100D01*
X69572429Y-84242492D01*
X69566747Y-84230081D01*
X69562601Y-84212850D01*
X69559750Y-84187784D01*
X69557954Y-84151867D01*
X69556972Y-84102083D01*
X69556564Y-84035417D01*
X69556489Y-83959589D01*
X69556489Y-83695822D01*
X69417127Y-83695822D01*
X69357322Y-83695418D01*
X69315918Y-83693840D01*
X69288748Y-83690547D01*
X69271646Y-83684992D01*
X69260443Y-83676631D01*
X69259083Y-83675178D01*
X69242725Y-83641939D01*
X69244172Y-83604362D01*
X69262978Y-83571645D01*
X69270250Y-83565298D01*
X69279627Y-83560266D01*
X69293609Y-83556396D01*
X69314696Y-83553537D01*
X69345389Y-83551535D01*
X69388189Y-83550239D01*
X69445595Y-83549498D01*
X69520110Y-83549158D01*
X69614233Y-83549068D01*
X69634260Y-83549067D01*
X69733065Y-83549163D01*
G37*
X69733065Y-83549163D02*
X69811772Y-83549542D01*
X69872863Y-83550333D01*
X69918817Y-83551670D01*
X69952114Y-83553683D01*
X69975236Y-83556506D01*
X69990662Y-83560269D01*
X70000871Y-83565105D01*
X70005813Y-83568822D01*
X70031457Y-83601358D01*
X70034559Y-83635138D01*
X70018711Y-83665826D01*
X70008348Y-83678089D01*
X69997196Y-83686450D01*
X69981035Y-83691657D01*
X69955642Y-83694457D01*
X69916798Y-83695596D01*
X69860280Y-83695821D01*
X69849180Y-83695822D01*
X69703244Y-83695822D01*
X69703244Y-83966756D01*
X69703148Y-84052154D01*
X69702711Y-84117864D01*
X69701712Y-84166774D01*
X69699928Y-84201773D01*
X69697137Y-84225749D01*
X69693117Y-84241593D01*
X69687645Y-84252191D01*
X69680666Y-84260267D01*
X69647734Y-84280112D01*
X69613354Y-84278548D01*
X69582176Y-84255906D01*
X69579886Y-84253100D01*
X69572429Y-84242492D01*
X69566747Y-84230081D01*
X69562601Y-84212850D01*
X69559750Y-84187784D01*
X69557954Y-84151867D01*
X69556972Y-84102083D01*
X69556564Y-84035417D01*
X69556489Y-83959589D01*
X69556489Y-83695822D01*
X69417127Y-83695822D01*
X69357322Y-83695418D01*
X69315918Y-83693840D01*
X69288748Y-83690547D01*
X69271646Y-83684992D01*
X69260443Y-83676631D01*
X69259083Y-83675178D01*
X69242725Y-83641939D01*
X69244172Y-83604362D01*
X69262978Y-83571645D01*
X69270250Y-83565298D01*
X69279627Y-83560266D01*
X69293609Y-83556396D01*
X69314696Y-83553537D01*
X69345389Y-83551535D01*
X69388189Y-83550239D01*
X69445595Y-83549498D01*
X69520110Y-83549158D01*
X69614233Y-83549068D01*
X69634260Y-83549067D01*
X69733065Y-83549163D01*
G36*
X70998823Y-83554533D02*
G01*
X71030202Y-83576776D01*
X71057911Y-83604485D01*
X71057911Y-83913920D01*
X71057838Y-84005799D01*
X71057495Y-84077840D01*
X71056692Y-84132780D01*
X71055241Y-84173360D01*
X71052952Y-84202317D01*
X71049636Y-84222391D01*
X71045105Y-84236321D01*
X71039169Y-84246845D01*
X71034514Y-84253100D01*
X71003783Y-84277673D01*
X70968496Y-84280341D01*
X70936245Y-84265271D01*
X70925588Y-84256374D01*
X70918464Y-84244557D01*
X70914167Y-84225526D01*
X70911991Y-84194992D01*
X70911228Y-84148662D01*
X70911155Y-84112871D01*
X70911155Y-83978045D01*
X70414444Y-83978045D01*
X70414444Y-84100700D01*
X70413931Y-84156787D01*
X70411876Y-84195333D01*
X70407508Y-84221361D01*
X70400056Y-84239897D01*
X70391047Y-84253100D01*
X70360144Y-84277604D01*
X70325196Y-84280506D01*
X70291738Y-84263089D01*
X70282604Y-84253959D01*
X70276152Y-84241855D01*
X70271897Y-84223001D01*
X70269352Y-84193620D01*
X70268029Y-84149937D01*
X70267443Y-84088175D01*
X70267375Y-84074000D01*
X70266891Y-83957631D01*
X70266641Y-83861727D01*
X70266723Y-83784177D01*
X70267231Y-83722869D01*
X70268262Y-83675690D01*
X70269913Y-83640530D01*
X70272279Y-83615276D01*
X70275457Y-83597817D01*
X70279544Y-83586041D01*
X70284634Y-83577835D01*
X70290266Y-83571645D01*
X70322128Y-83551844D01*
X70355357Y-83554533D01*
X70386735Y-83576776D01*
X70399433Y-83591126D01*
X70407526Y-83606978D01*
X70412042Y-83629554D01*
X70414006Y-83664078D01*
X70414444Y-83715776D01*
X70414444Y-83831289D01*
X70911155Y-83831289D01*
X70911155Y-83712756D01*
X70911662Y-83658148D01*
X70913698Y-83621275D01*
X70918035Y-83597307D01*
X70925447Y-83581415D01*
X70933733Y-83571645D01*
X70965594Y-83551844D01*
X70998823Y-83554533D01*
G37*
X70998823Y-83554533D02*
X71030202Y-83576776D01*
X71057911Y-83604485D01*
X71057911Y-83913920D01*
X71057838Y-84005799D01*
X71057495Y-84077840D01*
X71056692Y-84132780D01*
X71055241Y-84173360D01*
X71052952Y-84202317D01*
X71049636Y-84222391D01*
X71045105Y-84236321D01*
X71039169Y-84246845D01*
X71034514Y-84253100D01*
X71003783Y-84277673D01*
X70968496Y-84280341D01*
X70936245Y-84265271D01*
X70925588Y-84256374D01*
X70918464Y-84244557D01*
X70914167Y-84225526D01*
X70911991Y-84194992D01*
X70911228Y-84148662D01*
X70911155Y-84112871D01*
X70911155Y-83978045D01*
X70414444Y-83978045D01*
X70414444Y-84100700D01*
X70413931Y-84156787D01*
X70411876Y-84195333D01*
X70407508Y-84221361D01*
X70400056Y-84239897D01*
X70391047Y-84253100D01*
X70360144Y-84277604D01*
X70325196Y-84280506D01*
X70291738Y-84263089D01*
X70282604Y-84253959D01*
X70276152Y-84241855D01*
X70271897Y-84223001D01*
X70269352Y-84193620D01*
X70268029Y-84149937D01*
X70267443Y-84088175D01*
X70267375Y-84074000D01*
X70266891Y-83957631D01*
X70266641Y-83861727D01*
X70266723Y-83784177D01*
X70267231Y-83722869D01*
X70268262Y-83675690D01*
X70269913Y-83640530D01*
X70272279Y-83615276D01*
X70275457Y-83597817D01*
X70279544Y-83586041D01*
X70284634Y-83577835D01*
X70290266Y-83571645D01*
X70322128Y-83551844D01*
X70355357Y-83554533D01*
X70386735Y-83576776D01*
X70399433Y-83591126D01*
X70407526Y-83606978D01*
X70412042Y-83629554D01*
X70414006Y-83664078D01*
X70414444Y-83715776D01*
X70414444Y-83831289D01*
X70911155Y-83831289D01*
X70911155Y-83712756D01*
X70911662Y-83658148D01*
X70913698Y-83621275D01*
X70918035Y-83597307D01*
X70925447Y-83581415D01*
X70933733Y-83571645D01*
X70965594Y-83551844D01*
X70998823Y-83554533D01*
D12*
%TO.C,R1*%
X69850000Y-92260000D02*
X69850000Y-90000000D01*
X71570000Y-93980000D02*
G75*
G03*
X71570000Y-93980000I-1720000J0D01*
G01*
%TO.C,U1*%
X68290000Y-97730000D02*
X67040000Y-97730000D01*
X68290000Y-108010000D02*
X68290000Y-97730000D01*
X63790000Y-108010000D02*
X68290000Y-108010000D01*
X63790000Y-97730000D02*
X63790000Y-108010000D01*
X65040000Y-97730000D02*
X63790000Y-97730000D01*
X67040000Y-97730000D02*
G75*
G02*
X65040000Y-97730000I-1000000J0D01*
G01*
%TO.C,R2*%
X66490000Y-93980000D02*
G75*
G03*
X66490000Y-93980000I-1720000J0D01*
G01*
X64770000Y-92260000D02*
X64770000Y-90000000D01*
%TO.C,R3*%
X76200000Y-92260000D02*
X76200000Y-90000000D01*
X77920000Y-93980000D02*
G75*
G03*
X77920000Y-93980000I-1720000J0D01*
G01*
%TO.C,J1*%
X50800000Y-87630000D02*
X50800000Y-97790000D01*
X58420000Y-87630000D02*
X50800000Y-87630000D01*
X58420000Y-97790000D02*
X58420000Y-87630000D01*
X50800000Y-97790000D02*
X58420000Y-97790000D01*
X52070000Y-97790000D02*
X52070000Y-87630000D01*
%TO.C,C1*%
X53340000Y-103080000D02*
X53340000Y-104220000D01*
X53340000Y-115600000D02*
X53340000Y-114460000D01*
X55710000Y-111460000D02*
X55710000Y-104220000D01*
X54960000Y-112210000D02*
X55710000Y-111460000D01*
X55710000Y-112960000D02*
X54960000Y-112210000D01*
X55710000Y-114460000D02*
X55710000Y-112960000D01*
X50970000Y-111460000D02*
X50970000Y-104220000D01*
X51720000Y-112210000D02*
X50970000Y-111460000D01*
X50970000Y-112960000D02*
X51720000Y-112210000D01*
X50970000Y-114460000D02*
X50970000Y-112960000D01*
X50970000Y-104220000D02*
X55710000Y-104220000D01*
X50970000Y-114460000D02*
X55710000Y-114460000D01*
X50390000Y-115460000D02*
X51890000Y-115460000D01*
X51140000Y-116210000D02*
X51140000Y-114710000D01*
%TO.C,D1*%
X74655000Y-106700000D02*
X77745000Y-106700000D01*
X78700000Y-104140000D02*
G75*
G03*
X78700000Y-104140000I-2500000J0D01*
G01*
X76200462Y-101150000D02*
G75*
G03*
X74655170Y-106700000I-462J-2990000D01*
G01*
X76199538Y-101150000D02*
G75*
G02*
X77744830Y-106700000I462J-2990000D01*
G01*
%TO.C,REF\u002A\u002A*%
D10*
X52006666Y-77532380D02*
X51673333Y-77056190D01*
X51435238Y-77532380D02*
X51435238Y-76532380D01*
X51816190Y-76532380D01*
X51911428Y-76580000D01*
X51959047Y-76627619D01*
X52006666Y-76722857D01*
X52006666Y-76865714D01*
X51959047Y-76960952D01*
X51911428Y-77008571D01*
X51816190Y-77056190D01*
X51435238Y-77056190D01*
X52435238Y-77008571D02*
X52768571Y-77008571D01*
X52911428Y-77532380D02*
X52435238Y-77532380D01*
X52435238Y-76532380D01*
X52911428Y-76532380D01*
X53673333Y-77008571D02*
X53340000Y-77008571D01*
X53340000Y-77532380D02*
X53340000Y-76532380D01*
X53816190Y-76532380D01*
X54340000Y-76532380D02*
X54340000Y-76770476D01*
X54101904Y-76675238D02*
X54340000Y-76770476D01*
X54578095Y-76675238D01*
X54197142Y-76960952D02*
X54340000Y-76770476D01*
X54482857Y-76960952D01*
X55101904Y-76532380D02*
X55101904Y-76770476D01*
X54863809Y-76675238D02*
X55101904Y-76770476D01*
X55340000Y-76675238D01*
X54959047Y-76960952D02*
X55101904Y-76770476D01*
X55244761Y-76960952D01*
%TO.C,R1*%
X67582380Y-91606666D02*
X67106190Y-91940000D01*
X67582380Y-92178095D02*
X66582380Y-92178095D01*
X66582380Y-91797142D01*
X66630000Y-91701904D01*
X66677619Y-91654285D01*
X66772857Y-91606666D01*
X66915714Y-91606666D01*
X67010952Y-91654285D01*
X67058571Y-91701904D01*
X67106190Y-91797142D01*
X67106190Y-92178095D01*
X67582380Y-90654285D02*
X67582380Y-91225714D01*
X67582380Y-90940000D02*
X66582380Y-90940000D01*
X66725238Y-91035238D01*
X66820476Y-91130476D01*
X66868095Y-91225714D01*
%TO.C,U1*%
X65278095Y-96182380D02*
X65278095Y-96991904D01*
X65325714Y-97087142D01*
X65373333Y-97134761D01*
X65468571Y-97182380D01*
X65659047Y-97182380D01*
X65754285Y-97134761D01*
X65801904Y-97087142D01*
X65849523Y-96991904D01*
X65849523Y-96182380D01*
X66849523Y-97182380D02*
X66278095Y-97182380D01*
X66563809Y-97182380D02*
X66563809Y-96182380D01*
X66468571Y-96325238D01*
X66373333Y-96420476D01*
X66278095Y-96468095D01*
%TO.C,R2*%
X62502380Y-91606666D02*
X62026190Y-91940000D01*
X62502380Y-92178095D02*
X61502380Y-92178095D01*
X61502380Y-91797142D01*
X61550000Y-91701904D01*
X61597619Y-91654285D01*
X61692857Y-91606666D01*
X61835714Y-91606666D01*
X61930952Y-91654285D01*
X61978571Y-91701904D01*
X62026190Y-91797142D01*
X62026190Y-92178095D01*
X61597619Y-91225714D02*
X61550000Y-91178095D01*
X61502380Y-91082857D01*
X61502380Y-90844761D01*
X61550000Y-90749523D01*
X61597619Y-90701904D01*
X61692857Y-90654285D01*
X61788095Y-90654285D01*
X61930952Y-90701904D01*
X62502380Y-91273333D01*
X62502380Y-90654285D01*
%TO.C,R3*%
X73932380Y-91606666D02*
X73456190Y-91940000D01*
X73932380Y-92178095D02*
X72932380Y-92178095D01*
X72932380Y-91797142D01*
X72980000Y-91701904D01*
X73027619Y-91654285D01*
X73122857Y-91606666D01*
X73265714Y-91606666D01*
X73360952Y-91654285D01*
X73408571Y-91701904D01*
X73456190Y-91797142D01*
X73456190Y-92178095D01*
X72932380Y-91273333D02*
X72932380Y-90654285D01*
X73313333Y-90987619D01*
X73313333Y-90844761D01*
X73360952Y-90749523D01*
X73408571Y-90701904D01*
X73503809Y-90654285D01*
X73741904Y-90654285D01*
X73837142Y-90701904D01*
X73884761Y-90749523D01*
X73932380Y-90844761D01*
X73932380Y-91130476D01*
X73884761Y-91225714D01*
X73837142Y-91273333D01*
%TO.C,J1*%
X59142380Y-93043333D02*
X59856666Y-93043333D01*
X59999523Y-93090952D01*
X60094761Y-93186190D01*
X60142380Y-93329047D01*
X60142380Y-93424285D01*
X60142380Y-92043333D02*
X60142380Y-92614761D01*
X60142380Y-92329047D02*
X59142380Y-92329047D01*
X59285238Y-92424285D01*
X59380476Y-92519523D01*
X59428095Y-92614761D01*
%TO.C,C1*%
X50327142Y-109506666D02*
X50374761Y-109554285D01*
X50422380Y-109697142D01*
X50422380Y-109792380D01*
X50374761Y-109935238D01*
X50279523Y-110030476D01*
X50184285Y-110078095D01*
X49993809Y-110125714D01*
X49850952Y-110125714D01*
X49660476Y-110078095D01*
X49565238Y-110030476D01*
X49470000Y-109935238D01*
X49422380Y-109792380D01*
X49422380Y-109697142D01*
X49470000Y-109554285D01*
X49517619Y-109506666D01*
X50422380Y-108554285D02*
X50422380Y-109125714D01*
X50422380Y-108840000D02*
X49422380Y-108840000D01*
X49565238Y-108935238D01*
X49660476Y-109030476D01*
X49708095Y-109125714D01*
%TO.C,REF\u002A\u002A*%
X73596666Y-77532380D02*
X73263333Y-77056190D01*
X73025238Y-77532380D02*
X73025238Y-76532380D01*
X73406190Y-76532380D01*
X73501428Y-76580000D01*
X73549047Y-76627619D01*
X73596666Y-76722857D01*
X73596666Y-76865714D01*
X73549047Y-76960952D01*
X73501428Y-77008571D01*
X73406190Y-77056190D01*
X73025238Y-77056190D01*
X74025238Y-77008571D02*
X74358571Y-77008571D01*
X74501428Y-77532380D02*
X74025238Y-77532380D01*
X74025238Y-76532380D01*
X74501428Y-76532380D01*
X75263333Y-77008571D02*
X74930000Y-77008571D01*
X74930000Y-77532380D02*
X74930000Y-76532380D01*
X75406190Y-76532380D01*
X75930000Y-76532380D02*
X75930000Y-76770476D01*
X75691904Y-76675238D02*
X75930000Y-76770476D01*
X76168095Y-76675238D01*
X75787142Y-76960952D02*
X75930000Y-76770476D01*
X76072857Y-76960952D01*
X76691904Y-76532380D02*
X76691904Y-76770476D01*
X76453809Y-76675238D02*
X76691904Y-76770476D01*
X76930000Y-76675238D01*
X76549047Y-76960952D02*
X76691904Y-76770476D01*
X76834761Y-76960952D01*
%TO.C,D1*%
X72692380Y-104878095D02*
X71692380Y-104878095D01*
X71692380Y-104640000D01*
X71740000Y-104497142D01*
X71835238Y-104401904D01*
X71930476Y-104354285D01*
X72120952Y-104306666D01*
X72263809Y-104306666D01*
X72454285Y-104354285D01*
X72549523Y-104401904D01*
X72644761Y-104497142D01*
X72692380Y-104640000D01*
X72692380Y-104878095D01*
X72692380Y-103354285D02*
X72692380Y-103925714D01*
X72692380Y-103640000D02*
X71692380Y-103640000D01*
X71835238Y-103735238D01*
X71930476Y-103830476D01*
X71978095Y-103925714D01*
%TO.C,REF\u002A\u002A*%
X59626666Y-111822380D02*
X59293333Y-111346190D01*
X59055238Y-111822380D02*
X59055238Y-110822380D01*
X59436190Y-110822380D01*
X59531428Y-110870000D01*
X59579047Y-110917619D01*
X59626666Y-111012857D01*
X59626666Y-111155714D01*
X59579047Y-111250952D01*
X59531428Y-111298571D01*
X59436190Y-111346190D01*
X59055238Y-111346190D01*
X60055238Y-111298571D02*
X60388571Y-111298571D01*
X60531428Y-111822380D02*
X60055238Y-111822380D01*
X60055238Y-110822380D01*
X60531428Y-110822380D01*
X61293333Y-111298571D02*
X60960000Y-111298571D01*
X60960000Y-111822380D02*
X60960000Y-110822380D01*
X61436190Y-110822380D01*
X61960000Y-110822380D02*
X61960000Y-111060476D01*
X61721904Y-110965238D02*
X61960000Y-111060476D01*
X62198095Y-110965238D01*
X61817142Y-111250952D02*
X61960000Y-111060476D01*
X62102857Y-111250952D01*
X62721904Y-110822380D02*
X62721904Y-111060476D01*
X62483809Y-110965238D02*
X62721904Y-111060476D01*
X62960000Y-110965238D01*
X62579047Y-111250952D02*
X62721904Y-111060476D01*
X62864761Y-111250952D01*
X74866666Y-111822380D02*
X74533333Y-111346190D01*
X74295238Y-111822380D02*
X74295238Y-110822380D01*
X74676190Y-110822380D01*
X74771428Y-110870000D01*
X74819047Y-110917619D01*
X74866666Y-111012857D01*
X74866666Y-111155714D01*
X74819047Y-111250952D01*
X74771428Y-111298571D01*
X74676190Y-111346190D01*
X74295238Y-111346190D01*
X75295238Y-111298571D02*
X75628571Y-111298571D01*
X75771428Y-111822380D02*
X75295238Y-111822380D01*
X75295238Y-110822380D01*
X75771428Y-110822380D01*
X76533333Y-111298571D02*
X76200000Y-111298571D01*
X76200000Y-111822380D02*
X76200000Y-110822380D01*
X76676190Y-110822380D01*
X77200000Y-110822380D02*
X77200000Y-111060476D01*
X76961904Y-110965238D02*
X77200000Y-111060476D01*
X77438095Y-110965238D01*
X77057142Y-111250952D02*
X77200000Y-111060476D01*
X77342857Y-111250952D01*
X77961904Y-110822380D02*
X77961904Y-111060476D01*
X77723809Y-110965238D02*
X77961904Y-111060476D01*
X78200000Y-110965238D01*
X77819047Y-111250952D02*
X77961904Y-111060476D01*
X78104761Y-111250952D01*
%TD*%
M02*
